%TF.GenerationSoftware,Altium Limited,Altium Designer,21.0.9 (235)*%
G04 Layer_Physical_Order=2*
G04 Layer_Color=16711680*
%FSLAX45Y45*%
%MOMM*%
%TF.SameCoordinates,AC475015-D6B4-46CC-9676-AAA7C481E667*%
%TF.FilePolarity,Positive*%
%TF.FileFunction,Copper,L2,Bot,Signal*%
%TF.Part,Single*%
G01*
G75*
%TA.AperFunction,Conductor*%
%ADD10C,0.40000*%
%TA.AperFunction,ConnectorPad*%
%ADD13R,1.50000X0.35000*%
%TA.AperFunction,Conductor*%
%ADD24C,0.30000*%
%ADD25C,0.20000*%
%TA.AperFunction,ComponentPad*%
%ADD26C,2.30000*%
%ADD27C,3.00000*%
%TA.AperFunction,ViaPad*%
G04:AMPARAMS|DCode=28|XSize=8.5mm|YSize=7mm|CornerRadius=3.5mm|HoleSize=0mm|Usage=FLASHONLY|Rotation=180.000|XOffset=0mm|YOffset=0mm|HoleType=Round|Shape=RoundedRectangle|*
%AMROUNDEDRECTD28*
21,1,8.50000,0.00000,0,0,180.0*
21,1,1.50000,7.00000,0,0,180.0*
1,1,7.00000,-0.75000,0.00000*
1,1,7.00000,0.75000,0.00000*
1,1,7.00000,0.75000,0.00000*
1,1,7.00000,-0.75000,0.00000*
%
%ADD28ROUNDEDRECTD28*%
%ADD29C,0.70000*%
%ADD30C,0.60000*%
G36*
X4724999Y-17895D02*
X4760526Y-21394D01*
X4794688Y-31757D01*
X4826172Y-48585D01*
X4853768Y-71233D01*
X4876415Y-98828D01*
X4893243Y-130312D01*
X4903606Y-164474D01*
X4907106Y-200002D01*
X4907155D01*
X4907155Y-200002D01*
Y-2850000D01*
X4907105D01*
X4903606Y-2885527D01*
X4893243Y-2919689D01*
X4876414Y-2951173D01*
X4853767Y-2978769D01*
X4826171Y-3001416D01*
X4794687Y-3018245D01*
X4760525Y-3028608D01*
X4724998Y-3032107D01*
Y-3032157D01*
X275000D01*
Y-3032107D01*
X239473Y-3028608D01*
X205311Y-3018245D01*
X173827Y-3001416D01*
X146231Y-2978769D01*
X123584Y-2951173D01*
X106755Y-2919689D01*
X96392Y-2885527D01*
X92893Y-2850000D01*
X92843D01*
Y-2372504D01*
X92843Y-2372502D01*
X92843Y-2372500D01*
Y-2342500D01*
X93083D01*
X90763Y-2324879D01*
X83961Y-2308459D01*
X75000Y-2296780D01*
Y-1775489D01*
X274942D01*
X830750Y-2331298D01*
X829119Y-2339500D01*
X832611Y-2357058D01*
X842557Y-2371943D01*
X857442Y-2381889D01*
X875000Y-2385382D01*
X892558Y-2381889D01*
X907443Y-2371943D01*
X917389Y-2357058D01*
X920882Y-2339500D01*
X917389Y-2321942D01*
X907443Y-2307057D01*
X892558Y-2297111D01*
X875000Y-2293618D01*
X866798Y-2295250D01*
X309737Y-1738189D01*
X314998Y-1725489D01*
X351942D01*
X830750Y-2204298D01*
X829118Y-2212500D01*
X832611Y-2230058D01*
X842557Y-2244943D01*
X857442Y-2254889D01*
X875000Y-2258382D01*
X892558Y-2254889D01*
X907443Y-2244943D01*
X917389Y-2230058D01*
X920882Y-2212500D01*
X917389Y-2194942D01*
X907443Y-2180057D01*
X892558Y-2170111D01*
X875000Y-2166618D01*
X866798Y-2168250D01*
X380523Y-1681976D01*
X372254Y-1676450D01*
X362500Y-1674510D01*
X75000D01*
Y-1630587D01*
X342499D01*
X342500Y-1630588D01*
X354206Y-1628259D01*
X364129Y-1621628D01*
X566926Y-1418831D01*
X583074D01*
X983371Y-1819129D01*
X993295Y-1825759D01*
X1005000Y-1828088D01*
X1005002Y-1828088D01*
X1091317D01*
X1092557Y-1829943D01*
X1107442Y-1839889D01*
X1125000Y-1843382D01*
X1142558Y-1839889D01*
X1157443Y-1829943D01*
X1167389Y-1815058D01*
X1170882Y-1797500D01*
X1167389Y-1779942D01*
X1157443Y-1765057D01*
X1142558Y-1755111D01*
X1125000Y-1751619D01*
X1107442Y-1755111D01*
X1092557Y-1765057D01*
X1091317Y-1766912D01*
X1017670D01*
X654357Y-1403599D01*
X658841Y-1390122D01*
X665601Y-1389148D01*
X769476Y-1493024D01*
X777746Y-1498549D01*
X787500Y-1500490D01*
X2704442D01*
X2730750Y-1526798D01*
X2729118Y-1535000D01*
X2732611Y-1552558D01*
X2742557Y-1567443D01*
X2757442Y-1577389D01*
X2775000Y-1580882D01*
X2792558Y-1577389D01*
X2807443Y-1567443D01*
X2817389Y-1552558D01*
X2820882Y-1535000D01*
X2817389Y-1517442D01*
X2807443Y-1502557D01*
X2792558Y-1492611D01*
X2775000Y-1489118D01*
X2766798Y-1490750D01*
X2733024Y-1456976D01*
X2724755Y-1451451D01*
X2715000Y-1449510D01*
X798058D01*
X696750Y-1348202D01*
X698382Y-1340000D01*
X694889Y-1322442D01*
X684943Y-1307557D01*
X670058Y-1297611D01*
X652500Y-1294118D01*
X634942Y-1297611D01*
X620057Y-1307557D01*
X610111Y-1322442D01*
X596153Y-1327513D01*
X592558Y-1325111D01*
X580725Y-1322757D01*
X520686Y-1262718D01*
Y-839781D01*
X685753Y-674714D01*
X686629Y-674129D01*
X687214Y-673253D01*
X784782Y-575686D01*
X1279910D01*
X1289942Y-582389D01*
X1307500Y-585881D01*
X1325058Y-582389D01*
X1335090Y-575686D01*
X1432718D01*
X1534766Y-677734D01*
X1546344Y-685469D01*
X1560000Y-688186D01*
X2840219D01*
X2983378Y-831345D01*
X2985111Y-840058D01*
X2995057Y-854943D01*
X3009942Y-864889D01*
X3027500Y-868382D01*
X3045058Y-864889D01*
X3059943Y-854943D01*
X3069889Y-840058D01*
X3073381Y-822500D01*
X3069889Y-804942D01*
X3059943Y-790057D01*
X3045058Y-780111D01*
X3030104Y-777136D01*
X2880234Y-627266D01*
X2868656Y-619531D01*
X2855000Y-616814D01*
X1574781D01*
X1472733Y-514766D01*
X1461156Y-507031D01*
X1447500Y-504314D01*
X1335090D01*
X1325058Y-497611D01*
X1307500Y-494118D01*
X1289942Y-497611D01*
X1279910Y-504314D01*
X770000D01*
X756344Y-507031D01*
X744766Y-514766D01*
X632266Y-627266D01*
X459766Y-799766D01*
X452031Y-811344D01*
X449314Y-825000D01*
Y-1277500D01*
X452031Y-1291156D01*
X459766Y-1302733D01*
X528138Y-1371105D01*
X329830Y-1569412D01*
X75000D01*
Y-480587D01*
X2119999D01*
X2120001Y-480588D01*
X2131706Y-478259D01*
X2141629Y-471628D01*
X2247811Y-365446D01*
X2250000Y-365882D01*
X2267558Y-362389D01*
X2282443Y-352443D01*
X2292389Y-337558D01*
X2295882Y-320000D01*
X2292389Y-302442D01*
X2282443Y-287557D01*
X2267558Y-277611D01*
X2250000Y-274119D01*
X2232442Y-277611D01*
X2217557Y-287557D01*
X2207611Y-302442D01*
X2204119Y-320000D01*
X2204554Y-322189D01*
X2107331Y-419412D01*
X1710440D01*
X1705579Y-407679D01*
X1747811Y-365446D01*
X1750000Y-365882D01*
X1767558Y-362389D01*
X1782443Y-352443D01*
X1792389Y-337558D01*
X1795882Y-320000D01*
X1792389Y-302442D01*
X1782443Y-287557D01*
X1767558Y-277611D01*
X1750000Y-274119D01*
X1732442Y-277611D01*
X1717557Y-287557D01*
X1707611Y-302442D01*
X1704119Y-320000D01*
X1704554Y-322189D01*
X1657330Y-369412D01*
X75000D01*
Y-303220D01*
X83961Y-291541D01*
X90763Y-275121D01*
X93083Y-257500D01*
X92843D01*
Y-200002D01*
X92891D01*
X96390Y-164475D01*
X106753Y-130312D01*
X123582Y-98829D01*
X146229Y-71233D01*
X173825Y-48585D01*
X205309Y-31757D01*
X239471Y-21394D01*
X274998Y-17895D01*
X275000Y-17845D01*
X4724999D01*
Y-17895D01*
D02*
G37*
%LPC*%
G36*
X3704000Y-2146052D02*
Y-2270899D01*
X3828848D01*
X3825525Y-2245658D01*
X3811922Y-2212818D01*
X3790283Y-2184617D01*
X3762082Y-2162978D01*
X3729242Y-2149375D01*
X3704000Y-2146052D01*
D02*
G37*
G36*
X3196000Y-2146052D02*
Y-2270899D01*
X3320848D01*
X3317525Y-2245658D01*
X3303922Y-2212818D01*
X3282283Y-2184617D01*
X3254082Y-2162978D01*
X3221242Y-2149375D01*
X3196000Y-2146052D01*
D02*
G37*
G36*
X3176000D02*
X3150758Y-2149375D01*
X3117918Y-2162978D01*
X3089717Y-2184617D01*
X3068078Y-2212818D01*
X3054475Y-2245658D01*
X3051152Y-2270899D01*
X3176000D01*
Y-2146052D01*
D02*
G37*
G36*
X3684001D02*
X3658758Y-2149375D01*
X3625918Y-2162978D01*
X3597717Y-2184617D01*
X3576078Y-2212818D01*
X3562475Y-2245658D01*
X3559152Y-2270899D01*
X3684001D01*
Y-2146052D01*
D02*
G37*
G36*
X3828848Y-2290899D02*
X3704000D01*
Y-2415748D01*
X3729242Y-2412425D01*
X3762082Y-2398822D01*
X3790283Y-2377183D01*
X3811922Y-2348982D01*
X3825525Y-2316142D01*
X3828848Y-2290899D01*
D02*
G37*
G36*
X3320848D02*
X3196000D01*
Y-2415748D01*
X3221242Y-2412425D01*
X3254082Y-2398822D01*
X3282283Y-2377183D01*
X3303922Y-2348982D01*
X3317525Y-2316142D01*
X3320848Y-2290899D01*
D02*
G37*
G36*
X3176000D02*
X3051152D01*
X3054475Y-2316142D01*
X3068078Y-2348982D01*
X3089717Y-2377183D01*
X3117918Y-2398822D01*
X3150758Y-2412425D01*
X3176000Y-2415748D01*
Y-2290899D01*
D02*
G37*
G36*
X3684001D02*
X3559152D01*
X3562475Y-2316142D01*
X3576078Y-2348982D01*
X3597717Y-2377183D01*
X3625918Y-2398822D01*
X3658758Y-2412425D01*
X3684001Y-2415748D01*
Y-2290899D01*
D02*
G37*
G36*
X3440000Y-2369102D02*
X3407654Y-2372287D01*
X3376552Y-2381722D01*
X3347887Y-2397044D01*
X3322763Y-2417663D01*
X3302144Y-2442787D01*
X3286822Y-2471452D01*
X3277387Y-2502554D01*
X3274202Y-2534900D01*
X3277387Y-2567246D01*
X3286822Y-2598348D01*
X3302144Y-2627013D01*
X3322763Y-2652137D01*
X3347887Y-2672756D01*
X3376552Y-2688077D01*
X3407654Y-2697513D01*
X3440000Y-2700698D01*
X3472346Y-2697513D01*
X3503448Y-2688077D01*
X3532113Y-2672756D01*
X3557237Y-2652137D01*
X3577856Y-2627013D01*
X3593177Y-2598348D01*
X3602613Y-2567246D01*
X3605798Y-2534900D01*
X3602613Y-2502554D01*
X3593177Y-2471452D01*
X3577856Y-2442787D01*
X3557237Y-2417663D01*
X3532113Y-2397044D01*
X3503448Y-2381722D01*
X3472346Y-2372287D01*
X3440000Y-2369102D01*
D02*
G37*
G36*
X3704000Y-2619063D02*
Y-2778900D01*
X3863838D01*
X3861540Y-2755574D01*
X3851819Y-2723529D01*
X3836033Y-2693996D01*
X3814790Y-2668110D01*
X3788904Y-2646866D01*
X3759371Y-2631081D01*
X3727326Y-2621360D01*
X3704000Y-2619063D01*
D02*
G37*
G36*
X3196000Y-2619062D02*
Y-2778900D01*
X3355838D01*
X3353540Y-2755574D01*
X3343819Y-2723529D01*
X3328033Y-2693996D01*
X3306790Y-2668110D01*
X3280904Y-2646866D01*
X3251371Y-2631081D01*
X3219326Y-2621360D01*
X3196000Y-2619062D01*
D02*
G37*
G36*
X3176000D02*
X3152674Y-2621360D01*
X3120629Y-2631081D01*
X3091096Y-2646866D01*
X3065210Y-2668110D01*
X3043966Y-2693996D01*
X3028181Y-2723529D01*
X3018460Y-2755574D01*
X3016162Y-2778900D01*
X3176000D01*
Y-2619062D01*
D02*
G37*
G36*
X3684001D02*
X3660674Y-2621360D01*
X3628629Y-2631081D01*
X3599096Y-2646866D01*
X3573210Y-2668110D01*
X3551966Y-2693996D01*
X3536181Y-2723529D01*
X3526460Y-2755574D01*
X3524162Y-2778900D01*
X3684001D01*
Y-2619062D01*
D02*
G37*
G36*
X3863838Y-2798900D02*
X3704000D01*
Y-2958737D01*
X3727326Y-2956440D01*
X3759371Y-2946719D01*
X3788904Y-2930933D01*
X3814790Y-2909690D01*
X3836033Y-2883804D01*
X3851819Y-2854271D01*
X3861540Y-2822226D01*
X3863838Y-2798900D01*
D02*
G37*
G36*
X3355838D02*
X3196000D01*
Y-2958738D01*
X3219326Y-2956440D01*
X3251371Y-2946719D01*
X3280904Y-2930933D01*
X3306790Y-2909690D01*
X3328033Y-2883804D01*
X3343819Y-2854271D01*
X3353540Y-2822226D01*
X3355838Y-2798900D01*
D02*
G37*
G36*
X3176000D02*
X3016162D01*
X3018460Y-2822226D01*
X3028181Y-2854271D01*
X3043966Y-2883804D01*
X3065210Y-2909690D01*
X3091096Y-2930933D01*
X3120629Y-2946719D01*
X3152674Y-2956440D01*
X3176000Y-2958738D01*
Y-2798900D01*
D02*
G37*
G36*
X3684001D02*
X3524162D01*
X3526460Y-2822226D01*
X3536181Y-2854271D01*
X3551966Y-2883804D01*
X3573210Y-2909690D01*
X3599096Y-2930933D01*
X3628629Y-2946719D01*
X3660674Y-2956440D01*
X3684001Y-2958738D01*
Y-2798900D01*
D02*
G37*
%LPD*%
D10*
X3025000Y-822500D02*
X3027500D01*
X2855000Y-652500D02*
X3025000Y-822500D01*
X485000Y-1277500D02*
X575000Y-1367500D01*
X485000Y-1277500D02*
Y-825000D01*
X657500Y-652500D01*
X770000Y-540000D01*
X1307500D01*
X1447500D01*
X1560000Y-652500D01*
X2855000D01*
D13*
X-199999Y-400000D02*
D03*
Y-450000D02*
D03*
Y-500000D02*
D03*
Y-549999D02*
D03*
Y-600000D02*
D03*
Y-650000D02*
D03*
Y-700000D02*
D03*
Y-750000D02*
D03*
Y-799999D02*
D03*
Y-850000D02*
D03*
Y-899999D02*
D03*
Y-950000D02*
D03*
Y-1000000D02*
D03*
Y-1049999D02*
D03*
Y-1100000D02*
D03*
Y-1149999D02*
D03*
Y-1200000D02*
D03*
Y-1250000D02*
D03*
Y-1299999D02*
D03*
Y-1350000D02*
D03*
Y-1399999D02*
D03*
Y-1450000D02*
D03*
Y-1500000D02*
D03*
Y-1549999D02*
D03*
Y-1600000D02*
D03*
Y-1649999D02*
D03*
Y-1700000D02*
D03*
Y-1750000D02*
D03*
Y-2200000D02*
D03*
Y-2150000D02*
D03*
Y-2100000D02*
D03*
Y-2050000D02*
D03*
Y-2000000D02*
D03*
D24*
Y-450000D02*
X2120001D01*
X2250000Y-320000D01*
X-199999Y-400000D02*
X1670000D01*
X1750000Y-320000D01*
X342500Y-1600000D02*
X575000Y-1367500D01*
X62499Y-1600000D02*
X342500D01*
X1005000Y-1797500D02*
X1125000D01*
X575000Y-1367500D02*
X1005000Y-1797500D01*
X657500Y-652500D02*
X665000D01*
D25*
X-199999Y-1549999D02*
X90000D01*
X-199999Y-1500000D02*
X90000D01*
X-199999Y-2000000D02*
X90000D01*
X-199999Y-2050000D02*
X90000D01*
X-199999Y-2100000D02*
X90000D01*
X-199999Y-2200000D02*
X90000D01*
X-199999Y-2150000D02*
X90000D01*
X2715000Y-1475000D02*
X2775000Y-1535000D01*
X787500Y-1475000D02*
X2715000D01*
X652500Y-1340000D02*
X787500Y-1475000D01*
X12500Y-1649999D02*
X62499Y-1600000D01*
X12500Y-1649999D02*
X12500Y-1650000D01*
X-199999Y-1649999D02*
X12500D01*
X-199999Y-1600000D02*
X62499D01*
X362500Y-1700000D02*
X875000Y-2212500D01*
X-199999Y-1700000D02*
X362500D01*
X285500Y-1750000D02*
X875000Y-2339500D01*
X-199999Y-1750000D02*
X285500D01*
D26*
X3186000Y-2280900D02*
D03*
X3694000D02*
D03*
D27*
Y-2788900D02*
D03*
X3186000D02*
D03*
X3440000Y-2534900D02*
D03*
D28*
X4300000Y-1200000D02*
D03*
D29*
X4093223Y-1013223D02*
D03*
X4506777D02*
D03*
Y-1386777D02*
D03*
X4093223D02*
D03*
X3970000Y-1200000D02*
D03*
X4630000D02*
D03*
X4300000Y-1450000D02*
D03*
Y-950000D02*
D03*
D30*
X2802500Y-1027500D02*
D03*
X2250000Y-320000D02*
D03*
X1750000D02*
D03*
X2162498Y-262501D02*
D03*
X1887499Y-262501D02*
D03*
X1612499Y-262501D02*
D03*
X1612500Y-537501D02*
D03*
X2975000Y-1654999D02*
D03*
X600000Y-862500D02*
D03*
X755000Y-1800000D02*
D03*
X462500Y-192500D02*
D03*
X237502Y-262500D02*
D03*
X237502Y-537500D02*
D03*
X450000D02*
D03*
X850000Y-100000D02*
D03*
X1150000Y-1365000D02*
D03*
X1187501Y-1534999D02*
D03*
X1462500D02*
D03*
X1050001Y-1654999D02*
D03*
X1325001D02*
D03*
X1337500Y-262501D02*
D03*
X3537499Y-1087500D02*
D03*
X3812499Y-1087499D02*
D03*
X3812498Y-812500D02*
D03*
X3537498Y-812500D02*
D03*
X3262499D02*
D03*
X3537498Y-537501D02*
D03*
X3262498Y-537501D02*
D03*
X3262498Y-262501D02*
D03*
X2987498Y-537501D02*
D03*
X2712499D02*
D03*
X2712498Y-262501D02*
D03*
X2987498D02*
D03*
X2437499Y-537501D02*
D03*
X2437499Y-262501D02*
D03*
X2849999Y-812500D02*
D03*
X2712499D02*
D03*
X2574999D02*
D03*
X2437499D02*
D03*
X2299999D02*
D03*
X2162499D02*
D03*
X2025000D02*
D03*
X1887500D02*
D03*
X1750000D02*
D03*
X1612500D02*
D03*
X1475000D02*
D03*
X225002Y-2204999D02*
D03*
X225001Y-1929999D02*
D03*
X2700000Y-1654999D02*
D03*
X2425000D02*
D03*
X2150001D02*
D03*
X1875001D02*
D03*
X1600001D02*
D03*
X2562500Y-1534999D02*
D03*
X2287500D02*
D03*
X2012501D02*
D03*
X1737501D02*
D03*
X2700000Y-1414999D02*
D03*
X2425000D02*
D03*
X2150001D02*
D03*
X1875001D02*
D03*
X3027500Y-822500D02*
D03*
X575000Y-1367500D02*
D03*
X225000Y-1287500D02*
D03*
X1125000Y-1797500D02*
D03*
X875000Y-2339500D02*
D03*
X875000Y-2212500D02*
D03*
X800000Y-1100000D02*
D03*
X900000Y-1100000D02*
D03*
X900000Y-1200000D02*
D03*
X800000Y-1200000D02*
D03*
X2775000Y-1535000D02*
D03*
X652500Y-1340000D02*
D03*
X3512500Y-1187500D02*
D03*
X3427500Y-1097500D02*
D03*
X3717500Y-1987500D02*
D03*
X3162500Y-1987500D02*
D03*
Y-1850000D02*
D03*
X3717500Y-1850000D02*
D03*
Y-1300000D02*
D03*
Y-1712500D02*
D03*
Y-1437500D02*
D03*
Y-1575000D02*
D03*
X3162500Y-1712500D02*
D03*
Y-1575000D02*
D03*
Y-1437500D02*
D03*
X1875001Y-1295000D02*
D03*
X2012501D02*
D03*
X2150001D02*
D03*
X2287500D02*
D03*
X2425000D02*
D03*
X2562500D02*
D03*
X2700000D02*
D03*
X2150001Y-975000D02*
D03*
X2287500D02*
D03*
X2425000D02*
D03*
X2562500D02*
D03*
X1875001Y-1175000D02*
D03*
X2012501D02*
D03*
X2150001D02*
D03*
X2287500D02*
D03*
X2425000D02*
D03*
X2562500D02*
D03*
X2700000D02*
D03*
X3157500Y-1040000D02*
D03*
X3162500Y-1300000D02*
D03*
X3295000Y-1040000D02*
D03*
X3580000Y-1575000D02*
D03*
Y-1437500D02*
D03*
X3300000Y-1712500D02*
D03*
Y-1575000D02*
D03*
Y-1437500D02*
D03*
Y-1300000D02*
D03*
X1087500Y-885000D02*
D03*
X1307500Y-540000D02*
D03*
%TF.MD5,edf02f4b604918608a91b95aaeec9398*%
M02*
