%TF.GenerationSoftware,Altium Limited,Altium Designer,21.0.9 (235)*%
G04 Layer_Physical_Order=1*
G04 Layer_Color=255*
%FSLAX45Y45*%
%MOMM*%
%TF.SameCoordinates,AC475015-D6B4-46CC-9676-AAA7C481E667*%
%TF.FilePolarity,Positive*%
%TF.FileFunction,Copper,L1,Top,Signal*%
%TF.Part,Single*%
G01*
G75*
%TA.AperFunction,Conductor*%
%ADD10C,0.40000*%
%TA.AperFunction,SMDPad,CuDef*%
%ADD11R,1.00000X1.00000*%
%ADD12R,1.00000X2.20000*%
%TA.AperFunction,ConnectorPad*%
%ADD13R,1.50000X0.35000*%
%TA.AperFunction,SMDPad,CuDef*%
%ADD14R,0.85000X0.95000*%
%ADD15R,0.95000X0.85000*%
%ADD16R,1.55000X0.60000*%
%ADD17R,2.64160X2.64160*%
%ADD18R,0.75720X0.25480*%
%ADD19R,0.25480X0.75720*%
G04:AMPARAMS|DCode=20|XSize=0.35mm|YSize=0.65mm|CornerRadius=0.04375mm|HoleSize=0mm|Usage=FLASHONLY|Rotation=270.000|XOffset=0mm|YOffset=0mm|HoleType=Round|Shape=RoundedRectangle|*
%AMROUNDEDRECTD20*
21,1,0.35000,0.56250,0,0,270.0*
21,1,0.26250,0.65000,0,0,270.0*
1,1,0.08750,-0.28125,-0.13125*
1,1,0.08750,-0.28125,0.13125*
1,1,0.08750,0.28125,0.13125*
1,1,0.08750,0.28125,-0.13125*
%
%ADD20ROUNDEDRECTD20*%
%ADD21R,0.80000X1.20000*%
%ADD22R,0.60000X0.80000*%
%ADD23R,1.20000X0.80000*%
%TA.AperFunction,Conductor*%
%ADD24C,0.30000*%
%ADD25C,0.20000*%
%TA.AperFunction,ComponentPad*%
%ADD26C,2.30000*%
%ADD27C,3.00000*%
%TA.AperFunction,ViaPad*%
G04:AMPARAMS|DCode=28|XSize=8.5mm|YSize=7mm|CornerRadius=3.5mm|HoleSize=0mm|Usage=FLASHONLY|Rotation=180.000|XOffset=0mm|YOffset=0mm|HoleType=Round|Shape=RoundedRectangle|*
%AMROUNDEDRECTD28*
21,1,8.50000,0.00000,0,0,180.0*
21,1,1.50000,7.00000,0,0,180.0*
1,1,7.00000,-0.75000,0.00000*
1,1,7.00000,0.75000,0.00000*
1,1,7.00000,0.75000,0.00000*
1,1,7.00000,-0.75000,0.00000*
%
%ADD28ROUNDEDRECTD28*%
%ADD29C,0.70000*%
%ADD30C,0.60000*%
G36*
X4724999Y-17895D02*
X4760526Y-21394D01*
X4794688Y-31757D01*
X4826172Y-48585D01*
X4853768Y-71233D01*
X4876415Y-98828D01*
X4893243Y-130312D01*
X4903606Y-164474D01*
X4907106Y-200002D01*
X4907155D01*
X4907155Y-200002D01*
Y-2850000D01*
X4907105D01*
X4903606Y-2885527D01*
X4893243Y-2919689D01*
X4876414Y-2951173D01*
X4853767Y-2978769D01*
X4826171Y-3001416D01*
X4794687Y-3018245D01*
X4760525Y-3028608D01*
X4724998Y-3032107D01*
Y-3032157D01*
X275000D01*
Y-3032107D01*
X239473Y-3028608D01*
X205311Y-3018245D01*
X173827Y-3001416D01*
X146231Y-2978769D01*
X123584Y-2951173D01*
X106755Y-2919689D01*
X96392Y-2885527D01*
X92893Y-2850000D01*
X92843D01*
Y-2372504D01*
X92843Y-2372502D01*
X92843Y-2372500D01*
Y-2342500D01*
X93083D01*
X90763Y-2324879D01*
X83961Y-2308459D01*
X75000Y-2296780D01*
Y-1750489D01*
X807501D01*
X814799Y-1749037D01*
X823478Y-1753669D01*
X827500Y-1756978D01*
Y-1787500D01*
X880000D01*
Y-1730000D01*
X855141D01*
X850281Y-1718267D01*
X1064634Y-1503914D01*
X1070159Y-1495644D01*
X1072100Y-1485890D01*
Y-1302740D01*
X1099470D01*
Y-1257740D01*
X1104470D01*
Y-1229611D01*
X1116203Y-1224751D01*
X1215000Y-1323548D01*
Y-1400000D01*
X1340000D01*
Y-1380686D01*
X1355000D01*
Y-1415000D01*
X1470000D01*
Y-1290000D01*
X1355000D01*
Y-1309314D01*
X1340000D01*
Y-1285000D01*
X1248608D01*
X1241263Y-1276094D01*
X1246003Y-1265000D01*
X1340000D01*
Y-1240686D01*
X1355000D01*
Y-1275000D01*
X1470000D01*
Y-1150000D01*
X1402983D01*
X1402500Y-1137500D01*
X1402500Y-1137300D01*
Y-1110686D01*
X1417500D01*
Y-1132500D01*
X1542500D01*
Y-1110686D01*
X1557500D01*
Y-1132500D01*
X1682500D01*
Y-1110686D01*
X1700000D01*
Y-1134800D01*
X1700000Y-1137500D01*
X1693482Y-1147500D01*
X1620000D01*
Y-1169314D01*
X1605000D01*
Y-1150000D01*
X1490000D01*
Y-1272300D01*
X1490000Y-1274371D01*
X1485000Y-1285000D01*
X1485000Y-1285629D01*
Y-1342500D01*
X1547500D01*
Y-1352500D01*
X1557500D01*
Y-1420000D01*
X1610000D01*
Y-1413129D01*
X1615000Y-1402500D01*
X1622700Y-1402500D01*
X1672500D01*
Y-1340001D01*
Y-1277500D01*
X1616664Y-1277500D01*
X1614185Y-1276968D01*
X1605000Y-1270981D01*
Y-1240686D01*
X1620000D01*
Y-1262500D01*
X1745000D01*
Y-1260489D01*
X2789335D01*
X2790407Y-1262093D01*
X2796816Y-1266375D01*
X2804375Y-1267879D01*
X2860625D01*
X2868185Y-1266375D01*
X2874594Y-1262093D01*
X2878876Y-1255684D01*
X2880380Y-1248125D01*
Y-1221875D01*
X2878876Y-1214315D01*
X2874594Y-1207907D01*
X2880813Y-1196787D01*
X2883586Y-1192637D01*
X2885478Y-1183126D01*
Y-1180001D01*
X2832500D01*
X2779523D01*
Y-1183126D01*
X2781415Y-1192637D01*
X2784188Y-1196787D01*
X2784202Y-1196812D01*
X2779107Y-1208943D01*
X2778577Y-1209510D01*
X1745000D01*
Y-1150200D01*
X1745000Y-1147500D01*
X1751519Y-1137500D01*
X1815000D01*
Y-1012500D01*
X1793186D01*
Y-997500D01*
X1815000D01*
Y-872500D01*
X1700000D01*
Y-877017D01*
X1687500Y-877500D01*
X1687300Y-877500D01*
X1630000D01*
Y-940000D01*
X1610000D01*
Y-877500D01*
X1553129D01*
X1552500Y-877500D01*
X1541871Y-882500D01*
X1539800Y-882500D01*
X1417500D01*
Y-904314D01*
X1402500D01*
Y-882500D01*
X1277500D01*
Y-904314D01*
X1262500D01*
Y-882500D01*
X1137500D01*
Y-966452D01*
X1110566Y-993387D01*
X1099470Y-997260D01*
X1099470Y-997260D01*
Y-997260D01*
X1099469Y-997260D01*
X1002740D01*
Y-900531D01*
X1002740Y-900530D01*
X1002740D01*
X1002740Y-900530D01*
X1006613Y-889434D01*
X1033024Y-863024D01*
X1038550Y-854754D01*
X1040490Y-845000D01*
Y-825000D01*
X1077500D01*
Y-788003D01*
X1119800Y-745703D01*
X1132500Y-750963D01*
Y-795000D01*
X1200000D01*
Y-805000D01*
X1210000D01*
Y-867500D01*
X1259800D01*
X1267500Y-867500D01*
X1280200Y-867500D01*
X1330001D01*
Y-805000D01*
Y-742500D01*
X1280200D01*
X1267500Y-742500D01*
X1262500Y-731872D01*
X1262500Y-729800D01*
Y-617500D01*
X1137500D01*
Y-659314D01*
X1120036D01*
X1106380Y-662031D01*
X1095200Y-669500D01*
X1089635Y-668430D01*
X1082500Y-665475D01*
Y-642501D01*
X1025000D01*
Y-695000D01*
X1040190D01*
X1046978Y-707700D01*
X1045441Y-710000D01*
X952500D01*
Y-825000D01*
X981644D01*
X986252Y-837700D01*
X956976Y-866976D01*
X951451Y-875245D01*
X949510Y-885000D01*
Y-895530D01*
X935000D01*
Y-953390D01*
X915000D01*
Y-895530D01*
X900490D01*
Y-825000D01*
X937500D01*
Y-710000D01*
X812500D01*
Y-825000D01*
X849510D01*
Y-900530D01*
X807740D01*
Y-895530D01*
X784999D01*
Y-953390D01*
X764999D01*
Y-895530D01*
X750490D01*
Y-825000D01*
X787500D01*
Y-710000D01*
X662500D01*
Y-825000D01*
X699510D01*
Y-900530D01*
X697260D01*
Y-997260D01*
X600530D01*
Y-999510D01*
X540000D01*
Y-937500D01*
X415000D01*
Y-982033D01*
X329533Y-1067500D01*
X250000D01*
Y-1217500D01*
X273481D01*
X280000Y-1227500D01*
X280000Y-1230200D01*
Y-1285000D01*
X342499D01*
X405000D01*
Y-1227500D01*
X366519D01*
X360000Y-1217500D01*
X360000Y-1214800D01*
Y-1137967D01*
X418267Y-1079700D01*
X430000Y-1084561D01*
Y-1217500D01*
X501342D01*
X510383Y-1230200D01*
X509586Y-1232500D01*
X420000D01*
Y-1357500D01*
X442923D01*
X446264Y-1362500D01*
Y-1399510D01*
X75000D01*
Y-303220D01*
X83961Y-291541D01*
X90763Y-275121D01*
X93083Y-257500D01*
X92843D01*
Y-200002D01*
X92891D01*
X96390Y-164475D01*
X106753Y-130312D01*
X123582Y-98829D01*
X146229Y-71233D01*
X173825Y-48585D01*
X205309Y-31757D01*
X239471Y-21394D01*
X274998Y-17895D01*
X275000Y-17845D01*
X4724999D01*
Y-17895D01*
D02*
G37*
G36*
X595530Y-1165000D02*
X653390D01*
Y-1185000D01*
X595530D01*
Y-1207740D01*
X595530D01*
Y-1215000D01*
X653390D01*
Y-1235000D01*
X595530D01*
Y-1257740D01*
X600530D01*
Y-1302740D01*
X608001D01*
X614789Y-1315440D01*
X610111Y-1322442D01*
X606619Y-1340000D01*
X610111Y-1357558D01*
X620057Y-1372443D01*
X634942Y-1382389D01*
X637500Y-1382898D01*
Y-1399510D01*
X462500D01*
Y-1362500D01*
X467499D01*
Y-1295000D01*
X477499D01*
Y-1285000D01*
X540000D01*
Y-1227500D01*
X540000D01*
X540001Y-1217499D01*
X540000D01*
Y-1150490D01*
X595530D01*
Y-1165000D01*
D02*
G37*
%LPC*%
G36*
X820000Y-345000D02*
X780000D01*
Y-395000D01*
X820000D01*
Y-345000D01*
D02*
G37*
G36*
X940000Y-345000D02*
X900000D01*
Y-395000D01*
X940000D01*
Y-345000D01*
D02*
G37*
G36*
X2142500Y-370000D02*
X2085000D01*
Y-422500D01*
X2142500D01*
Y-370000D01*
D02*
G37*
G36*
X1992500D02*
X1935000D01*
Y-422500D01*
X1992500D01*
Y-370000D01*
D02*
G37*
G36*
X1915000D02*
X1857500D01*
Y-422500D01*
X1915000D01*
Y-370000D01*
D02*
G37*
G36*
X2065000D02*
X2007500D01*
Y-422500D01*
X2065000D01*
Y-370000D01*
D02*
G37*
G36*
X2250000Y-274119D02*
X2232442Y-277611D01*
X2217557Y-287557D01*
X2207611Y-302442D01*
X2204119Y-320000D01*
X2207611Y-337558D01*
X2214121Y-347300D01*
X2211767Y-360000D01*
X2175000D01*
Y-470000D01*
X2325000D01*
Y-360000D01*
X2288233D01*
X2285880Y-347300D01*
X2292389Y-337558D01*
X2295882Y-320000D01*
X2292389Y-302442D01*
X2282443Y-287557D01*
X2267558Y-277611D01*
X2250000Y-274119D01*
D02*
G37*
G36*
X1750000D02*
X1732442Y-277611D01*
X1717557Y-287557D01*
X1707611Y-302442D01*
X1704119Y-320000D01*
X1707611Y-337558D01*
X1714121Y-347300D01*
X1711767Y-360000D01*
X1675000D01*
Y-470000D01*
X1825000D01*
Y-360000D01*
X1788233D01*
X1785880Y-347300D01*
X1792389Y-337558D01*
X1795882Y-320000D01*
X1792389Y-302442D01*
X1782443Y-287557D01*
X1767558Y-277611D01*
X1750000Y-274119D01*
D02*
G37*
G36*
X647500Y-425000D02*
X595000D01*
Y-482500D01*
X647500D01*
Y-425000D01*
D02*
G37*
G36*
X575000D02*
X522500D01*
Y-482500D01*
X575000D01*
Y-425000D01*
D02*
G37*
G36*
X2142500Y-442500D02*
X2085000D01*
Y-495000D01*
X2142500D01*
Y-442500D01*
D02*
G37*
G36*
X2065000D02*
X2007500D01*
Y-495000D01*
X2065000D01*
Y-442500D01*
D02*
G37*
G36*
X1992500D02*
X1935000D01*
Y-495000D01*
X1992500D01*
Y-442500D01*
D02*
G37*
G36*
X1915000D02*
X1857500D01*
Y-495000D01*
X1915000D01*
Y-442500D01*
D02*
G37*
G36*
X1987500Y-510000D02*
X1862500D01*
Y-531814D01*
X1825000D01*
Y-530000D01*
X1675000D01*
Y-640000D01*
X1825000D01*
Y-603186D01*
X1862500D01*
Y-625000D01*
X1987500D01*
Y-510000D01*
D02*
G37*
G36*
X647500Y-502500D02*
X595000D01*
Y-560000D01*
X647500D01*
Y-502500D01*
D02*
G37*
G36*
X575000D02*
X522500D01*
Y-560000D01*
X575000D01*
Y-502500D01*
D02*
G37*
G36*
X995000Y-160000D02*
X905000D01*
Y-264371D01*
X900000Y-275000D01*
X900000D01*
X900000Y-275001D01*
Y-325000D01*
X950000D01*
Y-335000D01*
X960000D01*
Y-395000D01*
X1000000D01*
X1001912Y-406908D01*
Y-437500D01*
X952500D01*
X952500Y-559371D01*
X952155Y-560104D01*
X935983Y-565117D01*
X932520Y-563012D01*
X932500Y-562500D01*
X932500D01*
Y-437500D01*
X817500D01*
Y-562500D01*
X817500D01*
X817017Y-575000D01*
X812500D01*
Y-690000D01*
X934800D01*
X936872Y-690000D01*
X947500Y-695000D01*
X948129Y-695000D01*
X1005000D01*
Y-632501D01*
X1015000D01*
Y-622501D01*
X1082500D01*
Y-570000D01*
X1077094D01*
X1067500Y-562500D01*
X1067500Y-557300D01*
Y-437500D01*
X1063088D01*
Y-297501D01*
X1063088Y-297500D01*
X1060759Y-285794D01*
X1054129Y-275871D01*
X1054128Y-275870D01*
X995000Y-216742D01*
Y-160000D01*
D02*
G37*
G36*
X1262500Y-482500D02*
X1137500D01*
Y-597500D01*
X1262500D01*
Y-575686D01*
X1279910D01*
X1289942Y-582389D01*
X1307500Y-585881D01*
X1325058Y-582389D01*
X1339943Y-572443D01*
X1349889Y-557558D01*
X1353382Y-540000D01*
X1349889Y-522442D01*
X1339943Y-507557D01*
X1325058Y-497611D01*
X1307500Y-494118D01*
X1289942Y-497611D01*
X1279910Y-504314D01*
X1262500D01*
Y-482500D01*
D02*
G37*
G36*
X2137500Y-510000D02*
X2012500D01*
Y-625000D01*
X2137500D01*
Y-603186D01*
X2175000D01*
Y-640000D01*
X2325000D01*
Y-530000D01*
X2175000D01*
Y-531814D01*
X2137500D01*
Y-510000D01*
D02*
G37*
G36*
X815000Y-160000D02*
X725000D01*
Y-216742D01*
X670871Y-270871D01*
X664241Y-280795D01*
X661912Y-292500D01*
X661912Y-292501D01*
Y-464999D01*
X661912Y-465000D01*
X662500Y-467956D01*
Y-555000D01*
X684314D01*
Y-575000D01*
X662500D01*
Y-690000D01*
X787500D01*
Y-575000D01*
X755686D01*
Y-555000D01*
X777500D01*
Y-430000D01*
X723088D01*
Y-395000D01*
X760000D01*
Y-335000D01*
X770000D01*
Y-325000D01*
X820000D01*
Y-275000D01*
X820000D01*
X815000Y-269999D01*
Y-160000D01*
D02*
G37*
G36*
X1350001Y-742500D02*
Y-795000D01*
X1407500D01*
Y-742500D01*
X1350001D01*
D02*
G37*
G36*
X545000Y-797500D02*
X487500D01*
Y-850000D01*
X545000D01*
Y-797500D01*
D02*
G37*
G36*
X467500D02*
X410000D01*
Y-850000D01*
X467500D01*
Y-797500D01*
D02*
G37*
G36*
X1407500Y-815000D02*
X1350001D01*
Y-867500D01*
X1407500D01*
Y-815000D01*
D02*
G37*
G36*
X1190000D02*
X1132500D01*
Y-867500D01*
X1190000D01*
Y-815000D01*
D02*
G37*
G36*
X545000Y-870000D02*
X487500D01*
Y-922500D01*
X545000D01*
Y-870000D01*
D02*
G37*
G36*
X467500D02*
X410000D01*
Y-922500D01*
X467500D01*
Y-870000D01*
D02*
G37*
G36*
X2955000Y-872500D02*
X2902500D01*
Y-930000D01*
X2955000D01*
Y-872500D01*
D02*
G37*
G36*
X2882500D02*
X2830000D01*
Y-930000D01*
X2882500D01*
Y-872500D01*
D02*
G37*
G36*
X2037500Y-877500D02*
Y-930000D01*
X2095000D01*
Y-877500D01*
X2037500D01*
D02*
G37*
G36*
X2765000D02*
X2707500D01*
Y-930000D01*
X2765000D01*
Y-877500D01*
D02*
G37*
G36*
X2687500D02*
X2630000D01*
Y-930000D01*
X2687500D01*
Y-877500D01*
D02*
G37*
G36*
X2765000Y-950000D02*
X2707500D01*
Y-1002500D01*
X2765000D01*
Y-950000D01*
D02*
G37*
G36*
X2687500D02*
X2630000D01*
Y-1002500D01*
X2687500D01*
Y-950000D01*
D02*
G37*
G36*
X2095000D02*
X2037500D01*
Y-1002500D01*
X2095000D01*
Y-950000D01*
D02*
G37*
G36*
X1950000Y-872500D02*
X1949371Y-872500D01*
X1835000D01*
Y-997500D01*
X1856814D01*
Y-1012500D01*
X1835000D01*
Y-1137500D01*
X1950000D01*
Y-1110686D01*
X1965000D01*
Y-1132500D01*
X2090000D01*
Y-1110686D01*
X2105000D01*
Y-1137500D01*
X2220000D01*
Y-1012500D01*
X2105000D01*
Y-1039314D01*
X2090000D01*
Y-1017500D01*
X1965000D01*
Y-1039314D01*
X1950000D01*
Y-1012500D01*
X1940127D01*
X1934867Y-999800D01*
X1937166Y-997500D01*
X1949372Y-997500D01*
X1960000Y-1002500D01*
X1960629Y-1002500D01*
X2017500D01*
Y-940000D01*
Y-877500D01*
X1962700D01*
X1960629Y-877500D01*
X1950000Y-872500D01*
D02*
G37*
G36*
X2955000Y-950000D02*
X2902500D01*
Y-1007500D01*
X2955000D01*
Y-950000D01*
D02*
G37*
G36*
X2882500D02*
X2830000D01*
Y-1007500D01*
X2882500D01*
Y-950000D01*
D02*
G37*
G36*
X2485000Y-1012500D02*
X2370000D01*
Y-1039314D01*
X2355000D01*
Y-1012500D01*
X2240000D01*
Y-1137500D01*
X2355000D01*
Y-1110686D01*
X2370000D01*
Y-1137500D01*
X2485000D01*
Y-1012500D01*
D02*
G37*
G36*
X2620000D02*
X2505000D01*
Y-1137500D01*
X2620000D01*
Y-1110686D01*
X2635000D01*
Y-1132500D01*
X2760000D01*
Y-1130490D01*
X2778579D01*
X2779113Y-1131061D01*
X2784204Y-1143187D01*
X2784189Y-1143213D01*
X2781415Y-1147366D01*
X2779523Y-1156876D01*
Y-1160001D01*
X2832500D01*
X2885478D01*
Y-1156876D01*
X2883586Y-1147366D01*
X2880812Y-1143213D01*
X2874594Y-1132093D01*
X2878876Y-1125685D01*
X2880380Y-1118125D01*
Y-1091875D01*
X2878876Y-1084316D01*
X2874594Y-1077907D01*
X2868185Y-1073624D01*
X2860625Y-1072121D01*
X2804375D01*
X2796816Y-1073624D01*
X2790407Y-1077907D01*
X2789335Y-1079510D01*
X2760000D01*
Y-1017500D01*
X2635000D01*
Y-1039314D01*
X2620000D01*
Y-1012500D01*
D02*
G37*
G36*
X3027500Y-776618D02*
X3009942Y-780111D01*
X2995057Y-790057D01*
X2985111Y-804942D01*
X2981618Y-822500D01*
X2985111Y-840058D01*
X2991814Y-850090D01*
Y-877500D01*
X2970000D01*
Y-1002500D01*
X2996912D01*
Y-1072611D01*
X2991815Y-1073624D01*
X2985407Y-1077907D01*
X2981124Y-1084316D01*
X2979621Y-1091875D01*
Y-1118125D01*
X2981124Y-1125685D01*
X2985407Y-1132093D01*
X2985407Y-1142907D01*
X2981125Y-1149315D01*
X2979621Y-1156875D01*
Y-1183125D01*
X2981125Y-1190684D01*
X2985407Y-1197093D01*
X2985407Y-1207907D01*
X2981124Y-1214315D01*
X2979621Y-1221875D01*
Y-1248125D01*
X2981124Y-1255684D01*
X2985407Y-1262093D01*
X2991815Y-1266375D01*
X2996912Y-1267389D01*
Y-1332500D01*
X2970000D01*
Y-1457500D01*
X2996912D01*
Y-1472500D01*
X2970000D01*
Y-1597500D01*
X3085000D01*
Y-1472500D01*
X3058088D01*
Y-1457500D01*
X3085000D01*
Y-1332500D01*
X3058088D01*
Y-1267389D01*
X3063185Y-1266375D01*
X3069594Y-1262093D01*
X3073876Y-1255684D01*
X3075380Y-1248125D01*
Y-1221875D01*
X3073876Y-1214315D01*
X3073189Y-1213288D01*
X3079760Y-1200588D01*
X3105000D01*
Y-1232500D01*
X3220000D01*
Y-1107500D01*
X3105000D01*
Y-1139412D01*
X3079760D01*
X3073189Y-1126712D01*
X3073876Y-1125685D01*
X3075380Y-1118125D01*
Y-1091875D01*
X3073876Y-1084316D01*
X3069594Y-1077907D01*
X3063185Y-1073624D01*
X3058088Y-1072611D01*
Y-1002500D01*
X3085000D01*
Y-877500D01*
X3063186D01*
Y-850090D01*
X3069889Y-840058D01*
X3073381Y-822500D01*
X3069889Y-804942D01*
X3059943Y-790057D01*
X3045058Y-780111D01*
X3027500Y-776618D01*
D02*
G37*
G36*
X3637500Y-1250000D02*
X3585000D01*
Y-1307500D01*
X3637500D01*
Y-1250000D01*
D02*
G37*
G36*
X3565000D02*
X3512500D01*
Y-1307500D01*
X3565000D01*
Y-1250000D01*
D02*
G37*
G36*
X1692500Y-1277500D02*
Y-1330001D01*
X1750000D01*
Y-1277500D01*
X1692500D01*
D02*
G37*
G36*
X405000Y-1305000D02*
X352499D01*
Y-1362500D01*
X405000D01*
Y-1305000D01*
D02*
G37*
G36*
X332499D02*
X280000D01*
Y-1362500D01*
X332499D01*
Y-1305000D01*
D02*
G37*
G36*
X2955000Y-1327500D02*
X2902500D01*
Y-1385000D01*
X2955000D01*
Y-1327500D01*
D02*
G37*
G36*
X3637500Y-1327500D02*
X3585000D01*
Y-1385000D01*
X3637500D01*
Y-1327500D01*
D02*
G37*
G36*
X3565000D02*
X3512500D01*
Y-1385000D01*
X3565000D01*
Y-1327500D01*
D02*
G37*
G36*
X2882500Y-1327500D02*
X2830000D01*
Y-1385000D01*
X2882500D01*
Y-1327500D01*
D02*
G37*
G36*
X1750000Y-1350001D02*
X1692500D01*
Y-1402500D01*
X1750000D01*
Y-1350001D01*
D02*
G37*
G36*
X1537500Y-1362500D02*
X1485000D01*
Y-1420000D01*
X1537500D01*
Y-1362500D01*
D02*
G37*
G36*
X2955000Y-1405000D02*
X2892500D01*
X2830000D01*
Y-1461871D01*
X2830000Y-1462500D01*
X2835000Y-1473129D01*
X2835000Y-1475200D01*
Y-1504412D01*
X2808683D01*
X2807443Y-1502557D01*
X2792558Y-1492611D01*
X2775000Y-1489118D01*
X2757442Y-1492611D01*
X2742557Y-1502557D01*
X2732611Y-1517442D01*
X2729118Y-1535000D01*
X2732611Y-1552558D01*
X2742557Y-1567443D01*
X2757442Y-1577389D01*
X2775000Y-1580882D01*
X2792558Y-1577389D01*
X2807443Y-1567443D01*
X2808683Y-1565588D01*
X2835000D01*
Y-1597500D01*
X2950000D01*
Y-1475200D01*
X2950000Y-1473129D01*
X2955000Y-1462500D01*
X2955000Y-1461871D01*
Y-1405000D01*
D02*
G37*
G36*
X3355000Y-1107500D02*
X3240000D01*
Y-1232500D01*
X3355000D01*
Y-1218015D01*
X3358607Y-1215054D01*
X3367700Y-1211861D01*
X3385947Y-1224053D01*
X3398139Y-1242300D01*
X3394946Y-1251392D01*
X3391985Y-1255000D01*
X3382500D01*
Y-1380000D01*
X3404314D01*
Y-1394999D01*
X3377500D01*
Y-1510000D01*
X3502500D01*
Y-1394999D01*
X3475686D01*
Y-1380000D01*
X3497500D01*
Y-1255000D01*
X3474190D01*
X3471525Y-1234758D01*
X3457922Y-1201918D01*
X3436283Y-1173717D01*
X3408082Y-1152078D01*
X3375242Y-1138475D01*
X3355000Y-1135810D01*
Y-1107500D01*
D02*
G37*
G36*
X3637500Y-1655000D02*
X3584999D01*
Y-1712499D01*
X3637500D01*
Y-1655000D01*
D02*
G37*
G36*
X3564999D02*
X3512500D01*
Y-1712499D01*
X3564999D01*
Y-1655000D01*
D02*
G37*
G36*
X952500Y-1730000D02*
X900000D01*
Y-1787500D01*
X952500D01*
Y-1730000D01*
D02*
G37*
G36*
X3637500Y-1732499D02*
X3584999D01*
Y-1790000D01*
X3637500D01*
Y-1732499D01*
D02*
G37*
G36*
X1082500Y-1735000D02*
X967500D01*
Y-1860000D01*
X994412D01*
Y-1915000D01*
X932500D01*
Y-2005000D01*
X1117500D01*
Y-1915000D01*
X1055587D01*
Y-1860000D01*
X1082500D01*
Y-1837335D01*
X1085841Y-1834879D01*
X1095200Y-1831709D01*
X1107442Y-1839889D01*
X1125000Y-1843382D01*
X1142558Y-1839889D01*
X1157443Y-1829943D01*
X1167389Y-1815058D01*
X1170882Y-1797500D01*
X1167389Y-1779942D01*
X1157443Y-1765057D01*
X1142558Y-1755111D01*
X1125000Y-1751619D01*
X1107442Y-1755111D01*
X1095200Y-1763291D01*
X1085841Y-1760121D01*
X1082500Y-1757665D01*
Y-1735000D01*
D02*
G37*
G36*
X952500Y-1807500D02*
X900000D01*
Y-1865000D01*
X952500D01*
Y-1807500D01*
D02*
G37*
G36*
X880000D02*
X827500D01*
Y-1865000D01*
X880000D01*
Y-1807500D01*
D02*
G37*
G36*
X582500Y-1910000D02*
X495000D01*
Y-1950000D01*
X582500D01*
Y-1910000D01*
D02*
G37*
G36*
X475000D02*
X387500D01*
Y-1950000D01*
X475000D01*
Y-1910000D01*
D02*
G37*
G36*
X3589691Y-1877481D02*
Y-1997481D01*
X3649691D01*
Y-1877481D01*
X3589691D01*
D02*
G37*
G36*
X3502500Y-1530000D02*
X3377500D01*
Y-1645000D01*
X3404314D01*
Y-1660000D01*
X3382500D01*
Y-1785000D01*
X3374992Y-1790081D01*
X3374992D01*
Y-1866728D01*
X3370291Y-1877480D01*
X3362292Y-1877481D01*
X3310291D01*
Y-1997481D01*
X3370291D01*
Y-1930834D01*
X3374992Y-1920081D01*
X3382992Y-1920080D01*
X3404314D01*
Y-2373301D01*
X3376552Y-2381722D01*
X3347887Y-2397044D01*
X3322763Y-2417663D01*
X3302144Y-2442787D01*
X3286822Y-2471452D01*
X3277387Y-2502554D01*
X3274202Y-2534900D01*
X3277387Y-2567246D01*
X3286822Y-2598348D01*
X3302144Y-2627013D01*
X3322763Y-2652137D01*
X3347887Y-2672756D01*
X3376552Y-2688077D01*
X3407654Y-2697513D01*
X3440000Y-2700698D01*
X3472346Y-2697513D01*
X3503448Y-2688077D01*
X3532113Y-2672756D01*
X3557237Y-2652137D01*
X3577856Y-2627013D01*
X3593177Y-2598348D01*
X3602613Y-2567246D01*
X3605798Y-2534900D01*
X3602613Y-2502554D01*
X3593177Y-2471452D01*
X3577856Y-2442787D01*
X3557237Y-2417663D01*
X3532113Y-2397044D01*
X3503448Y-2381722D01*
X3475686Y-2373301D01*
Y-1929061D01*
X3484666Y-1920080D01*
X3504991Y-1920081D01*
X3509691Y-1930834D01*
Y-1997481D01*
X3569691D01*
Y-1877481D01*
X3517692D01*
X3509692Y-1877480D01*
X3504992Y-1866727D01*
Y-1802199D01*
X3504997Y-1799583D01*
X3512474Y-1790034D01*
X3517658Y-1790000D01*
X3520609Y-1790000D01*
X3564999D01*
Y-1732499D01*
X3512500D01*
Y-1770787D01*
X3501462Y-1779585D01*
X3499795Y-1779839D01*
X3497500Y-1779048D01*
Y-1660000D01*
X3475686D01*
Y-1645000D01*
X3502500D01*
Y-1530000D01*
D02*
G37*
G36*
X3290291Y-1877481D02*
X3230292D01*
Y-1997481D01*
X3290291D01*
Y-1877481D01*
D02*
G37*
G36*
X582500Y-1970000D02*
X495000D01*
Y-2010000D01*
X582500D01*
Y-1970000D01*
D02*
G37*
G36*
X475000D02*
X387500D01*
Y-2010000D01*
X475000D01*
Y-1970000D01*
D02*
G37*
G36*
X582500Y-2037000D02*
X495000D01*
Y-2077000D01*
X582500D01*
Y-2037000D01*
D02*
G37*
G36*
X475000D02*
X387500D01*
Y-2077000D01*
X475000D01*
Y-2037000D01*
D02*
G37*
G36*
X1122499D02*
X1034999D01*
Y-2077000D01*
X1122499D01*
Y-2037000D01*
D02*
G37*
G36*
X1014999D02*
X927500D01*
Y-2077000D01*
X1014999D01*
Y-2037000D01*
D02*
G37*
G36*
X1122499Y-2097000D02*
X1034999D01*
Y-2137000D01*
X1122499D01*
Y-2097000D01*
D02*
G37*
G36*
X1014999D02*
X927500D01*
Y-2137000D01*
X1014999D01*
Y-2097000D01*
D02*
G37*
G36*
X582500Y-2097000D02*
X495000D01*
Y-2137000D01*
X582500D01*
Y-2097000D01*
D02*
G37*
G36*
X475000D02*
X387500D01*
Y-2137000D01*
X475000D01*
Y-2097000D01*
D02*
G37*
G36*
X3649691Y-2017481D02*
X3589691D01*
Y-2137481D01*
X3649691D01*
Y-2017481D01*
D02*
G37*
G36*
X3569691D02*
X3509691D01*
Y-2137481D01*
X3569691D01*
Y-2017481D01*
D02*
G37*
G36*
X3370291Y-2017481D02*
X3310291D01*
Y-2137481D01*
X3370291D01*
Y-2017481D01*
D02*
G37*
G36*
X3290291D02*
X3230292D01*
Y-2137481D01*
X3290291D01*
Y-2017481D01*
D02*
G37*
G36*
X582500Y-2164000D02*
X495000D01*
Y-2204000D01*
X582500D01*
Y-2164000D01*
D02*
G37*
G36*
X475000D02*
X387500D01*
Y-2204000D01*
X475000D01*
Y-2164000D01*
D02*
G37*
G36*
X875000Y-2166618D02*
X857442Y-2170111D01*
X842557Y-2180057D01*
X832611Y-2194942D01*
X829118Y-2212500D01*
X832611Y-2230058D01*
X842557Y-2244943D01*
X857442Y-2254889D01*
X875000Y-2258382D01*
X892558Y-2254889D01*
X907443Y-2244943D01*
X907681Y-2244588D01*
X932500D01*
Y-2259000D01*
X1117499D01*
Y-2169000D01*
X932500D01*
Y-2183412D01*
X909685D01*
X907443Y-2180057D01*
X892558Y-2170111D01*
X875000Y-2166618D01*
D02*
G37*
G36*
X582500Y-2224000D02*
X495000D01*
Y-2264000D01*
X582500D01*
Y-2224000D01*
D02*
G37*
G36*
X475000D02*
X387500D01*
Y-2264000D01*
X475000D01*
Y-2224000D01*
D02*
G37*
G36*
X3704000Y-2146052D02*
Y-2270899D01*
X3828848D01*
X3825525Y-2245658D01*
X3811922Y-2212818D01*
X3790283Y-2184617D01*
X3762082Y-2162978D01*
X3729242Y-2149375D01*
X3704000Y-2146052D01*
D02*
G37*
G36*
X3196000Y-2146052D02*
Y-2270899D01*
X3320848D01*
X3317525Y-2245658D01*
X3303922Y-2212818D01*
X3282283Y-2184617D01*
X3254082Y-2162978D01*
X3221242Y-2149375D01*
X3196000Y-2146052D01*
D02*
G37*
G36*
X3176000D02*
X3150758Y-2149375D01*
X3117918Y-2162978D01*
X3089717Y-2184617D01*
X3068078Y-2212818D01*
X3054475Y-2245658D01*
X3051152Y-2270899D01*
X3176000D01*
Y-2146052D01*
D02*
G37*
G36*
X3684001D02*
X3658758Y-2149375D01*
X3625918Y-2162978D01*
X3597717Y-2184617D01*
X3576078Y-2212818D01*
X3562475Y-2245658D01*
X3559152Y-2270899D01*
X3684001D01*
Y-2146052D01*
D02*
G37*
G36*
X582500Y-2291000D02*
X495000D01*
Y-2331000D01*
X582500D01*
Y-2291000D01*
D02*
G37*
G36*
X475000D02*
X387500D01*
Y-2331000D01*
X475000D01*
Y-2291000D01*
D02*
G37*
G36*
X875000Y-2293618D02*
X857442Y-2297111D01*
X842557Y-2307057D01*
X832611Y-2321942D01*
X829119Y-2339500D01*
X832611Y-2357058D01*
X842557Y-2371943D01*
X857442Y-2381889D01*
X875000Y-2385382D01*
X892558Y-2381889D01*
X907443Y-2371943D01*
X907681Y-2371588D01*
X932500D01*
Y-2386000D01*
X1117500D01*
Y-2296000D01*
X932500D01*
Y-2310412D01*
X909686D01*
X907443Y-2307057D01*
X892558Y-2297111D01*
X875000Y-2293618D01*
D02*
G37*
G36*
X582500Y-2351000D02*
X495000D01*
Y-2391000D01*
X582500D01*
Y-2351000D01*
D02*
G37*
G36*
X475000D02*
X387500D01*
Y-2391000D01*
X475000D01*
Y-2351000D01*
D02*
G37*
G36*
X3828848Y-2290899D02*
X3704000D01*
Y-2415748D01*
X3729242Y-2412425D01*
X3762082Y-2398822D01*
X3790283Y-2377183D01*
X3811922Y-2348982D01*
X3825525Y-2316142D01*
X3828848Y-2290899D01*
D02*
G37*
G36*
X3320848D02*
X3196000D01*
Y-2415748D01*
X3221242Y-2412425D01*
X3254082Y-2398822D01*
X3282283Y-2377183D01*
X3303922Y-2348982D01*
X3317525Y-2316142D01*
X3320848Y-2290899D01*
D02*
G37*
G36*
X3176000D02*
X3051152D01*
X3054475Y-2316142D01*
X3068078Y-2348982D01*
X3089717Y-2377183D01*
X3117918Y-2398822D01*
X3150758Y-2412425D01*
X3176000Y-2415748D01*
Y-2290899D01*
D02*
G37*
G36*
X3684001D02*
X3559152D01*
X3562475Y-2316142D01*
X3576078Y-2348982D01*
X3597717Y-2377183D01*
X3625918Y-2398822D01*
X3658758Y-2412425D01*
X3684001Y-2415748D01*
Y-2290899D01*
D02*
G37*
G36*
X3704000Y-2619063D02*
Y-2778900D01*
X3863838D01*
X3861540Y-2755574D01*
X3851819Y-2723529D01*
X3836033Y-2693996D01*
X3814790Y-2668110D01*
X3788904Y-2646866D01*
X3759371Y-2631081D01*
X3727326Y-2621360D01*
X3704000Y-2619063D01*
D02*
G37*
G36*
X3196000Y-2619062D02*
Y-2778900D01*
X3355838D01*
X3353540Y-2755574D01*
X3343819Y-2723529D01*
X3328033Y-2693996D01*
X3306790Y-2668110D01*
X3280904Y-2646866D01*
X3251371Y-2631081D01*
X3219326Y-2621360D01*
X3196000Y-2619062D01*
D02*
G37*
G36*
X3176000D02*
X3152674Y-2621360D01*
X3120629Y-2631081D01*
X3091096Y-2646866D01*
X3065210Y-2668110D01*
X3043966Y-2693996D01*
X3028181Y-2723529D01*
X3018460Y-2755574D01*
X3016162Y-2778900D01*
X3176000D01*
Y-2619062D01*
D02*
G37*
G36*
X3684001D02*
X3660674Y-2621360D01*
X3628629Y-2631081D01*
X3599096Y-2646866D01*
X3573210Y-2668110D01*
X3551966Y-2693996D01*
X3536181Y-2723529D01*
X3526460Y-2755574D01*
X3524162Y-2778900D01*
X3684001D01*
Y-2619062D01*
D02*
G37*
G36*
X3863838Y-2798900D02*
X3704000D01*
Y-2958737D01*
X3727326Y-2956440D01*
X3759371Y-2946719D01*
X3788904Y-2930933D01*
X3814790Y-2909690D01*
X3836033Y-2883804D01*
X3851819Y-2854271D01*
X3861540Y-2822226D01*
X3863838Y-2798900D01*
D02*
G37*
G36*
X3355838D02*
X3196000D01*
Y-2958738D01*
X3219326Y-2956440D01*
X3251371Y-2946719D01*
X3280904Y-2930933D01*
X3306790Y-2909690D01*
X3328033Y-2883804D01*
X3343819Y-2854271D01*
X3353540Y-2822226D01*
X3355838Y-2798900D01*
D02*
G37*
G36*
X3176000D02*
X3016162D01*
X3018460Y-2822226D01*
X3028181Y-2854271D01*
X3043966Y-2883804D01*
X3065210Y-2909690D01*
X3091096Y-2930933D01*
X3120629Y-2946719D01*
X3152674Y-2956440D01*
X3176000Y-2958738D01*
Y-2798900D01*
D02*
G37*
G36*
X3684001D02*
X3524162D01*
X3526460Y-2822226D01*
X3536181Y-2854271D01*
X3551966Y-2883804D01*
X3573210Y-2909690D01*
X3599096Y-2930933D01*
X3628629Y-2946719D01*
X3660674Y-2956440D01*
X3684001Y-2958738D01*
Y-2798900D01*
D02*
G37*
G36*
X540000Y-1305000D02*
X487499D01*
Y-1362500D01*
X540000D01*
Y-1305000D01*
D02*
G37*
%LPD*%
D10*
X3440000Y-1270000D02*
G03*
X3340000Y-1170000I-100000J0D01*
G01*
X2250000Y-415000D02*
Y-320000D01*
X1750000Y-415000D02*
Y-320000D01*
X2232500Y-567500D02*
X2250000Y-585000D01*
X2075000Y-567500D02*
X2232500D01*
X1750000Y-585000D02*
X1767500Y-567500D01*
X1925000D01*
X3027500Y-940000D02*
Y-822500D01*
X1277500Y-1342500D02*
X1280000Y-1345000D01*
X1412500D01*
X1277500Y-1207500D02*
X1280000Y-1205000D01*
X1412500D01*
X1547500D02*
X1682500D01*
X1340000Y-940000D02*
X1480000D01*
X1200000D02*
X1340000D01*
X1345000Y-1075000D02*
X1480000D01*
X1620000D01*
X1757500D01*
Y-935000D01*
X1892500Y-1075000D02*
Y-935000D01*
Y-1075000D02*
X2027500D01*
X2162500D01*
X2297500D02*
X2427500D01*
X2562500D02*
X2697500D01*
X3440000Y-2517408D02*
Y-1722500D01*
Y-1587500D01*
Y-1452500D02*
Y-1317500D01*
X3439992Y-2517417D02*
X3440000Y-2517408D01*
X305000Y-1142500D02*
X452500Y-995000D01*
X477500D01*
X1022500Y-767500D02*
X1047536D01*
X1120036Y-695000D01*
X1180000D01*
X1200000Y-675000D01*
Y-540000D02*
X1307500D01*
X720000Y-627500D02*
Y-492500D01*
X875000Y-632500D02*
Y-500000D01*
D11*
X3439992Y-1855081D02*
D03*
D12*
X3579691Y-2007481D02*
D03*
X3300292D02*
D03*
D13*
X-199999Y-1975000D02*
D03*
Y-2025000D02*
D03*
Y-2075000D02*
D03*
Y-2125000D02*
D03*
Y-2175000D02*
D03*
Y-2225000D02*
D03*
Y-1725000D02*
D03*
Y-1675000D02*
D03*
Y-1625000D02*
D03*
Y-1575000D02*
D03*
Y-1524999D02*
D03*
Y-1475000D02*
D03*
Y-1425000D02*
D03*
Y-1375000D02*
D03*
Y-1325000D02*
D03*
Y-1274999D02*
D03*
Y-1225000D02*
D03*
Y-1175000D02*
D03*
Y-1125000D02*
D03*
Y-1075000D02*
D03*
Y-1024999D02*
D03*
Y-975000D02*
D03*
Y-925000D02*
D03*
Y-875000D02*
D03*
Y-825000D02*
D03*
Y-774999D02*
D03*
Y-725000D02*
D03*
Y-675000D02*
D03*
Y-625000D02*
D03*
Y-575000D02*
D03*
Y-524999D02*
D03*
Y-475000D02*
D03*
Y-425000D02*
D03*
Y-375000D02*
D03*
D14*
X890000Y-1797500D02*
D03*
X1025000D02*
D03*
X875000Y-500000D02*
D03*
X1010000D02*
D03*
X585000Y-492500D02*
D03*
X720000D02*
D03*
X1892500Y-935000D02*
D03*
X1757500D02*
D03*
X2297500Y-1075000D02*
D03*
X2162500D02*
D03*
X3297500Y-1170000D02*
D03*
X3162500D02*
D03*
X3575000Y-1317500D02*
D03*
X3440000D02*
D03*
X3575000Y-1722500D02*
D03*
X3440000D02*
D03*
X1547500Y-1352500D02*
D03*
X1412500D02*
D03*
X1547500Y-1212500D02*
D03*
X1412500D02*
D03*
X342500Y-1295000D02*
D03*
X477500D02*
D03*
X2892500Y-1395000D02*
D03*
X3027500D02*
D03*
X2892500Y-940000D02*
D03*
X3027500D02*
D03*
X2562500Y-1075000D02*
D03*
X2427500D02*
D03*
X1210000D02*
D03*
X1345000D02*
D03*
X2892500Y-1535000D02*
D03*
X3027500D02*
D03*
X1892500Y-1075000D02*
D03*
X1757500D02*
D03*
D15*
X1200000Y-805000D02*
D03*
Y-940000D02*
D03*
X1340000Y-805000D02*
D03*
Y-940000D02*
D03*
X2697500Y-1075000D02*
D03*
Y-940000D02*
D03*
X1620000D02*
D03*
Y-1075000D02*
D03*
X2027500Y-940000D02*
D03*
Y-1075000D02*
D03*
X1682500Y-1205000D02*
D03*
Y-1340000D02*
D03*
X1015000Y-632500D02*
D03*
Y-767500D02*
D03*
X477500Y-995000D02*
D03*
Y-860000D02*
D03*
X875000Y-632500D02*
D03*
Y-767500D02*
D03*
X1200000Y-540000D02*
D03*
Y-675000D02*
D03*
X1925000Y-567500D02*
D03*
Y-432500D02*
D03*
X2075000Y-567500D02*
D03*
Y-432500D02*
D03*
X725000Y-767500D02*
D03*
Y-632500D02*
D03*
X1480000Y-1075000D02*
D03*
Y-940000D02*
D03*
X3440000Y-1452500D02*
D03*
Y-1587500D02*
D03*
X1277500Y-1207500D02*
D03*
Y-1342500D02*
D03*
D16*
X1025000Y-2341000D02*
D03*
X1024999Y-2214000D02*
D03*
Y-2087000D02*
D03*
X1025000Y-1960000D02*
D03*
X485000Y-2341000D02*
D03*
Y-2214000D02*
D03*
Y-2087000D02*
D03*
Y-1960000D02*
D03*
D17*
X850000Y-1150000D02*
D03*
D18*
X1046610Y-1025000D02*
D03*
Y-1075000D02*
D03*
X1046610Y-1125000D02*
D03*
Y-1175000D02*
D03*
X1046610Y-1225000D02*
D03*
Y-1275000D02*
D03*
X653390D02*
D03*
Y-1225000D02*
D03*
X653390Y-1175000D02*
D03*
Y-1125000D02*
D03*
X653390Y-1075000D02*
D03*
Y-1025000D02*
D03*
D19*
X975000Y-1346610D02*
D03*
X925000D02*
D03*
X875000Y-1346610D02*
D03*
X825000D02*
D03*
X775000Y-1346610D02*
D03*
X725000D02*
D03*
Y-953390D02*
D03*
X775000D02*
D03*
X825000Y-953390D02*
D03*
X875000D02*
D03*
X925000Y-953390D02*
D03*
X975000D02*
D03*
D20*
X3027500Y-1170000D02*
D03*
X2832500Y-1235000D02*
D03*
Y-1170001D02*
D03*
Y-1105000D02*
D03*
X3027500Y-1235000D02*
D03*
Y-1105000D02*
D03*
D21*
X305000Y-1142500D02*
D03*
X485000D02*
D03*
D22*
X770000Y-335000D02*
D03*
X950000D02*
D03*
Y-215000D02*
D03*
X770000D02*
D03*
D23*
X1750000Y-415000D02*
D03*
Y-585000D02*
D03*
X2250000Y-415000D02*
D03*
Y-585000D02*
D03*
D24*
X692500Y-465000D02*
X697500Y-470000D01*
X692500Y-292500D02*
X770000Y-215000D01*
X692500Y-465000D02*
Y-292500D01*
X950000Y-215000D02*
X1032500Y-297500D01*
X3027500Y-940000D02*
X3027500Y-940000D01*
Y-1105000D02*
Y-940000D01*
X1025000Y-1960000D02*
Y-1797500D01*
X1125000D01*
X876500Y-2341000D02*
X1025000D01*
X875000Y-2212500D02*
X876500Y-2214000D01*
X1024999D01*
X3027500Y-1535000D02*
Y-1395000D01*
Y-1235000D01*
X2775000Y-1535000D02*
X2892500D01*
X3027500Y-1170000D02*
X3162500D01*
X1032500Y-477500D02*
Y-297500D01*
D25*
X775000Y-1075000D02*
Y-953390D01*
Y-1150000D02*
Y-1075000D01*
X850000D01*
X653390D02*
X775000D01*
X850000Y-1150000D02*
Y-1075000D01*
X775000Y-1150000D02*
X850000D01*
X925000D02*
Y-953390D01*
X850000Y-1150000D02*
X925000D01*
X850000Y-1225000D02*
X1046610D01*
X850000D02*
Y-1150000D01*
X-199999Y-1425000D02*
X702501D01*
X725000Y-1402500D01*
X1015000Y-767500D02*
X1022500D01*
X1015000Y-845000D02*
Y-767500D01*
X975000Y-885000D02*
X1015000Y-845000D01*
X975000Y-953390D02*
Y-885000D01*
X1210000Y-1075000D02*
X1210000Y-1075000D01*
X1046610Y-1075000D02*
X1210000D01*
X1115000Y-1025000D02*
X1200000Y-940000D01*
X1046610Y-1025000D02*
X1115000D01*
X725000Y-953390D02*
Y-767500D01*
X875000Y-767500D02*
X875000Y-767500D01*
X875000Y-953390D02*
Y-767500D01*
X1270000Y-1342500D02*
X1277500D01*
X1102500Y-1175000D02*
X1270000Y-1342500D01*
X1046610Y-1175000D02*
X1102500D01*
X1190000Y-1207500D02*
X1277500D01*
X1107500Y-1125000D02*
X1190000Y-1207500D01*
X1046610Y-1125000D02*
X1107500D01*
X875000Y-1452500D02*
Y-1346610D01*
X752500Y-1575000D02*
X875000Y-1452500D01*
X650000Y-1342500D02*
X652500Y-1340000D01*
Y-1325000D01*
X653390Y-1324110D01*
Y-1275000D01*
X482500Y-1295000D02*
X512500D01*
X485000Y-1142500D02*
X502500Y-1125000D01*
X653390D01*
X477500Y-995000D02*
X507500Y-1025000D01*
X653390D01*
X-199999Y-1725000D02*
X807501D01*
X1046610Y-1485890D01*
Y-1275000D01*
X-199999Y-1675000D02*
X787500D01*
X975000Y-1487500D01*
Y-1346610D01*
X-199999Y-1625000D02*
X770000D01*
X925000Y-1470000D01*
Y-1346610D01*
X-199999Y-1575000D02*
X752500D01*
X-199999Y-1524999D02*
X735001D01*
X825000Y-1435000D01*
Y-1346610D01*
X-199999Y-1475000D02*
X712500D01*
X775000Y-1412500D01*
Y-1346610D01*
X725000Y-1402500D02*
Y-1346610D01*
X1702500Y-1235000D02*
X2832500D01*
X2697500Y-1075000D02*
X2727500Y-1105000D01*
X2832500D01*
X1200000Y-805000D02*
X1340000D01*
X720000Y-627500D02*
X725000Y-632500D01*
X875000Y-632500D02*
X875000Y-632500D01*
X1010000Y-500000D02*
X1032500Y-477500D01*
X697500Y-470000D02*
X720000Y-492500D01*
D26*
X3186000Y-2280900D02*
D03*
X3694000D02*
D03*
D27*
Y-2788900D02*
D03*
X3186000D02*
D03*
X3440000Y-2534900D02*
D03*
D28*
X4300000Y-1200000D02*
D03*
D29*
X4093223Y-1013223D02*
D03*
X4506777D02*
D03*
Y-1386777D02*
D03*
X4093223D02*
D03*
X3970000Y-1200000D02*
D03*
X4630000D02*
D03*
X4300000Y-1450000D02*
D03*
Y-950000D02*
D03*
D30*
X2802500Y-1027500D02*
D03*
X2250000Y-320000D02*
D03*
X1750000D02*
D03*
X2162498Y-262501D02*
D03*
X1887499Y-262501D02*
D03*
X1612499Y-262501D02*
D03*
X1612500Y-537501D02*
D03*
X2975000Y-1654999D02*
D03*
X600000Y-862500D02*
D03*
X755000Y-1800000D02*
D03*
X462500Y-192500D02*
D03*
X237502Y-262500D02*
D03*
X237502Y-537500D02*
D03*
X450000D02*
D03*
X850000Y-100000D02*
D03*
X1150000Y-1365000D02*
D03*
X1187501Y-1534999D02*
D03*
X1462500D02*
D03*
X1050001Y-1654999D02*
D03*
X1325001D02*
D03*
X1337500Y-262501D02*
D03*
X3537499Y-1087500D02*
D03*
X3812499Y-1087499D02*
D03*
X3812498Y-812500D02*
D03*
X3537498Y-812500D02*
D03*
X3262499D02*
D03*
X3537498Y-537501D02*
D03*
X3262498Y-537501D02*
D03*
X3262498Y-262501D02*
D03*
X2987498Y-537501D02*
D03*
X2712499D02*
D03*
X2712498Y-262501D02*
D03*
X2987498D02*
D03*
X2437499Y-537501D02*
D03*
X2437499Y-262501D02*
D03*
X2849999Y-812500D02*
D03*
X2712499D02*
D03*
X2574999D02*
D03*
X2437499D02*
D03*
X2299999D02*
D03*
X2162499D02*
D03*
X2025000D02*
D03*
X1887500D02*
D03*
X1750000D02*
D03*
X1612500D02*
D03*
X1475000D02*
D03*
X225002Y-2204999D02*
D03*
X225001Y-1929999D02*
D03*
X2700000Y-1654999D02*
D03*
X2425000D02*
D03*
X2150001D02*
D03*
X1875001D02*
D03*
X1600001D02*
D03*
X2562500Y-1534999D02*
D03*
X2287500D02*
D03*
X2012501D02*
D03*
X1737501D02*
D03*
X2700000Y-1414999D02*
D03*
X2425000D02*
D03*
X2150001D02*
D03*
X1875001D02*
D03*
X3027500Y-822500D02*
D03*
X575000Y-1367500D02*
D03*
X225000Y-1287500D02*
D03*
X1125000Y-1797500D02*
D03*
X875000Y-2339500D02*
D03*
X875000Y-2212500D02*
D03*
X800000Y-1100000D02*
D03*
X900000Y-1100000D02*
D03*
X900000Y-1200000D02*
D03*
X800000Y-1200000D02*
D03*
X2775000Y-1535000D02*
D03*
X652500Y-1340000D02*
D03*
X3512500Y-1187500D02*
D03*
X3427500Y-1097500D02*
D03*
X3717500Y-1987500D02*
D03*
X3162500Y-1987500D02*
D03*
Y-1850000D02*
D03*
X3717500Y-1850000D02*
D03*
Y-1300000D02*
D03*
Y-1712500D02*
D03*
Y-1437500D02*
D03*
Y-1575000D02*
D03*
X3162500Y-1712500D02*
D03*
Y-1575000D02*
D03*
Y-1437500D02*
D03*
X1875001Y-1295000D02*
D03*
X2012501D02*
D03*
X2150001D02*
D03*
X2287500D02*
D03*
X2425000D02*
D03*
X2562500D02*
D03*
X2700000D02*
D03*
X2150001Y-975000D02*
D03*
X2287500D02*
D03*
X2425000D02*
D03*
X2562500D02*
D03*
X1875001Y-1175000D02*
D03*
X2012501D02*
D03*
X2150001D02*
D03*
X2287500D02*
D03*
X2425000D02*
D03*
X2562500D02*
D03*
X2700000D02*
D03*
X3157500Y-1040000D02*
D03*
X3162500Y-1300000D02*
D03*
X3295000Y-1040000D02*
D03*
X3580000Y-1575000D02*
D03*
Y-1437500D02*
D03*
X3300000Y-1712500D02*
D03*
Y-1575000D02*
D03*
Y-1437500D02*
D03*
Y-1300000D02*
D03*
X1087500Y-885000D02*
D03*
X1307500Y-540000D02*
D03*
%TF.MD5,33961b53680222102cd08c540479c97d*%
M02*
