G04*
G04 #@! TF.GenerationSoftware,Altium Limited,Altium Designer,21.0.9 (235)*
G04*
G04 Layer_Physical_Order=2*
G04 Layer_Color=16711680*
%FSLAX25Y25*%
%MOIN*%
G70*
G04*
G04 #@! TF.SameCoordinates,F721A58B-7B9E-4F0E-AACC-754D3C1868C2*
G04*
G04*
G04 #@! TF.FilePolarity,Positive*
G04*
G01*
G75*
%ADD10R,0.05906X0.01378*%
%ADD11C,0.01181*%
%ADD12C,0.00787*%
%ADD13C,0.01575*%
%ADD14C,0.09055*%
%ADD15C,0.11811*%
G04:AMPARAMS|DCode=16|XSize=334.65mil|YSize=275.59mil|CornerRadius=137.8mil|HoleSize=0mil|Usage=FLASHONLY|Rotation=180.000|XOffset=0mil|YOffset=0mil|HoleType=Round|Shape=RoundedRectangle|*
%AMROUNDEDRECTD16*
21,1,0.33465,0.00000,0,0,180.0*
21,1,0.05906,0.27559,0,0,180.0*
1,1,0.27559,-0.02953,0.00000*
1,1,0.27559,0.02953,0.00000*
1,1,0.27559,0.02953,0.00000*
1,1,0.27559,-0.02953,0.00000*
%
%ADD16ROUNDEDRECTD16*%
%ADD17C,0.02756*%
%ADD18C,0.02362*%
G36*
X186024Y-704D02*
X187422Y-842D01*
X188767Y-1250D01*
X190007Y-1913D01*
X191093Y-2804D01*
X191985Y-3891D01*
X192647Y-5130D01*
X193055Y-6475D01*
X193193Y-7874D01*
X193195D01*
X193195Y-7874D01*
Y-112205D01*
X193193D01*
X193055Y-113603D01*
X192647Y-114948D01*
X191985Y-116188D01*
X191093Y-117274D01*
X190007Y-118166D01*
X188767Y-118828D01*
X187422Y-119237D01*
X186023Y-119374D01*
Y-119376D01*
X10827D01*
Y-119374D01*
X9428Y-119237D01*
X8083Y-118828D01*
X6844Y-118166D01*
X5757Y-117274D01*
X4865Y-116188D01*
X4203Y-114948D01*
X3795Y-113603D01*
X3657Y-112205D01*
X3655D01*
Y-93406D01*
X3655Y-93406D01*
X3655Y-93405D01*
Y-92224D01*
X3665D01*
X3573Y-91531D01*
X3306Y-90884D01*
X2953Y-90424D01*
Y-69901D01*
X10825D01*
X32707Y-91783D01*
X32642Y-92106D01*
X32780Y-92798D01*
X33171Y-93384D01*
X33758Y-93775D01*
X34449Y-93913D01*
X35140Y-93775D01*
X35726Y-93384D01*
X36118Y-92798D01*
X36255Y-92106D01*
X36118Y-91415D01*
X35726Y-90829D01*
X35140Y-90437D01*
X34449Y-90300D01*
X34126Y-90364D01*
X12194Y-68433D01*
X12402Y-67933D01*
X13856D01*
X32707Y-86783D01*
X32642Y-87106D01*
X32780Y-87798D01*
X33171Y-88384D01*
X33758Y-88775D01*
X34449Y-88913D01*
X35140Y-88775D01*
X35726Y-88384D01*
X36118Y-87798D01*
X36255Y-87106D01*
X36118Y-86415D01*
X35726Y-85829D01*
X35140Y-85437D01*
X34449Y-85300D01*
X34126Y-85364D01*
X14981Y-66220D01*
X14656Y-66002D01*
X14272Y-65926D01*
X2953D01*
Y-64196D01*
X13484D01*
X13484Y-64196D01*
X13945Y-64105D01*
X14336Y-63844D01*
X22320Y-55860D01*
X22956D01*
X38715Y-71619D01*
X39106Y-71880D01*
X39567Y-71972D01*
X39567Y-71972D01*
X42965D01*
X43014Y-72045D01*
X43600Y-72437D01*
X44291Y-72574D01*
X44983Y-72437D01*
X45569Y-72045D01*
X45960Y-71459D01*
X46098Y-70768D01*
X45960Y-70077D01*
X45569Y-69490D01*
X44983Y-69099D01*
X44291Y-68961D01*
X43600Y-69099D01*
X43014Y-69490D01*
X42965Y-69564D01*
X40066D01*
X25762Y-55260D01*
X25939Y-54729D01*
X26205Y-54691D01*
X30294Y-58780D01*
X30620Y-58998D01*
X31004Y-59074D01*
X106474D01*
X107510Y-60110D01*
X107446Y-60433D01*
X107583Y-61124D01*
X107975Y-61710D01*
X108561Y-62102D01*
X109252Y-62239D01*
X109943Y-62102D01*
X110529Y-61710D01*
X110921Y-61124D01*
X111058Y-60433D01*
X110921Y-59742D01*
X110529Y-59156D01*
X109943Y-58764D01*
X109252Y-58627D01*
X108929Y-58691D01*
X107599Y-57361D01*
X107274Y-57144D01*
X106890Y-57067D01*
X31420D01*
X27431Y-53079D01*
X27495Y-52756D01*
X27358Y-52065D01*
X26966Y-51479D01*
X26380Y-51087D01*
X25689Y-50950D01*
X24998Y-51087D01*
X24412Y-51479D01*
X24020Y-52065D01*
X23471Y-52264D01*
X23329Y-52170D01*
X22863Y-52077D01*
X20499Y-49713D01*
Y-33062D01*
X26998Y-26564D01*
X27033Y-26540D01*
X27056Y-26506D01*
X30897Y-22665D01*
X50390D01*
X50785Y-22929D01*
X51476Y-23066D01*
X52168Y-22929D01*
X52563Y-22665D01*
X56406D01*
X60424Y-26682D01*
X60880Y-26987D01*
X61417Y-27094D01*
X111820D01*
X117456Y-32730D01*
X117524Y-33073D01*
X117916Y-33659D01*
X118502Y-34051D01*
X119193Y-34188D01*
X119884Y-34051D01*
X120470Y-33659D01*
X120862Y-33073D01*
X120999Y-32382D01*
X120862Y-31691D01*
X120470Y-31105D01*
X119884Y-30713D01*
X119295Y-30596D01*
X113395Y-24696D01*
X112939Y-24391D01*
X112402Y-24284D01*
X61999D01*
X57982Y-20266D01*
X57526Y-19962D01*
X56988Y-19855D01*
X52563D01*
X52168Y-19591D01*
X51476Y-19454D01*
X50785Y-19591D01*
X50390Y-19855D01*
X30315D01*
X29777Y-19962D01*
X29322Y-20266D01*
X24892Y-24696D01*
X18101Y-31487D01*
X17797Y-31943D01*
X17689Y-32480D01*
Y-50295D01*
X17797Y-50833D01*
X18101Y-51289D01*
X20793Y-53980D01*
X12986Y-61788D01*
X2953D01*
Y-18921D01*
X83464D01*
X83465Y-18921D01*
X83925Y-18829D01*
X84316Y-18568D01*
X88497Y-14388D01*
X88583Y-14405D01*
X89274Y-14267D01*
X89860Y-13876D01*
X90251Y-13290D01*
X90389Y-12598D01*
X90251Y-11907D01*
X89860Y-11321D01*
X89274Y-10930D01*
X88583Y-10792D01*
X87891Y-10930D01*
X87305Y-11321D01*
X86914Y-11907D01*
X86776Y-12598D01*
X86794Y-12685D01*
X82966Y-16512D01*
X67340D01*
X67149Y-16050D01*
X68812Y-14388D01*
X68898Y-14405D01*
X69589Y-14267D01*
X70175Y-13876D01*
X70566Y-13290D01*
X70704Y-12598D01*
X70566Y-11907D01*
X70175Y-11321D01*
X69589Y-10930D01*
X68898Y-10792D01*
X68206Y-10930D01*
X67620Y-11321D01*
X67229Y-11907D01*
X67091Y-12598D01*
X67108Y-12685D01*
X65249Y-14544D01*
X2953D01*
Y-11938D01*
X3306Y-11478D01*
X3573Y-10831D01*
X3665Y-10138D01*
X3655D01*
Y-7874D01*
X3657D01*
X3795Y-6475D01*
X4203Y-5130D01*
X4865Y-3891D01*
X5757Y-2804D01*
X6843Y-1913D01*
X8083Y-1250D01*
X9428Y-842D01*
X10827Y-704D01*
X10827Y-703D01*
X186024D01*
Y-704D01*
D02*
G37*
%LPC*%
G36*
X145827Y-84490D02*
Y-89406D01*
X150742D01*
X150611Y-88412D01*
X150076Y-87119D01*
X149224Y-86009D01*
X148114Y-85157D01*
X146821Y-84621D01*
X145827Y-84490D01*
D02*
G37*
G36*
X125827Y-84490D02*
Y-89406D01*
X130742D01*
X130611Y-88412D01*
X130076Y-87119D01*
X129224Y-86009D01*
X128113Y-85157D01*
X126821Y-84621D01*
X125827Y-84490D01*
D02*
G37*
G36*
X125039D02*
X124046Y-84621D01*
X122753Y-85157D01*
X121642Y-86009D01*
X120791Y-87119D01*
X120255Y-88412D01*
X120124Y-89406D01*
X125039D01*
Y-84490D01*
D02*
G37*
G36*
X145039D02*
X144046Y-84621D01*
X142753Y-85157D01*
X141642Y-86009D01*
X140790Y-87119D01*
X140255Y-88412D01*
X140124Y-89406D01*
X145039D01*
Y-84490D01*
D02*
G37*
G36*
X150742Y-90193D02*
X145827D01*
Y-95108D01*
X146821Y-94977D01*
X148114Y-94442D01*
X149224Y-93590D01*
X150076Y-92480D01*
X150611Y-91187D01*
X150742Y-90193D01*
D02*
G37*
G36*
X130742D02*
X125827D01*
Y-95108D01*
X126821Y-94977D01*
X128113Y-94442D01*
X129224Y-93590D01*
X130076Y-92480D01*
X130611Y-91187D01*
X130742Y-90193D01*
D02*
G37*
G36*
X125039D02*
X120124D01*
X120255Y-91187D01*
X120791Y-92480D01*
X121642Y-93590D01*
X122753Y-94442D01*
X124046Y-94977D01*
X125039Y-95108D01*
Y-90193D01*
D02*
G37*
G36*
X145039D02*
X140124D01*
X140255Y-91187D01*
X140790Y-92480D01*
X141642Y-93590D01*
X142753Y-94442D01*
X144046Y-94977D01*
X145039Y-95108D01*
Y-90193D01*
D02*
G37*
G36*
X135433Y-93272D02*
X134160Y-93397D01*
X132935Y-93769D01*
X131807Y-94372D01*
X130817Y-95184D01*
X130006Y-96173D01*
X129402Y-97301D01*
X129031Y-98526D01*
X128906Y-99799D01*
X129031Y-101073D01*
X129402Y-102297D01*
X130006Y-103426D01*
X130817Y-104415D01*
X131807Y-105227D01*
X132935Y-105830D01*
X134160Y-106201D01*
X135433Y-106327D01*
X136706Y-106201D01*
X137931Y-105830D01*
X139059Y-105227D01*
X140049Y-104415D01*
X140860Y-103426D01*
X141464Y-102297D01*
X141835Y-101073D01*
X141961Y-99799D01*
X141835Y-98526D01*
X141464Y-97301D01*
X140860Y-96173D01*
X140049Y-95184D01*
X139059Y-94372D01*
X137931Y-93769D01*
X136706Y-93397D01*
X135433Y-93272D01*
D02*
G37*
G36*
X145827Y-103113D02*
Y-109406D01*
X152120D01*
X152029Y-108487D01*
X151646Y-107226D01*
X151025Y-106063D01*
X150189Y-105044D01*
X149169Y-104207D01*
X148007Y-103586D01*
X146745Y-103203D01*
X145827Y-103113D01*
D02*
G37*
G36*
X125827Y-103113D02*
Y-109406D01*
X132120D01*
X132029Y-108487D01*
X131646Y-107226D01*
X131025Y-106063D01*
X130189Y-105044D01*
X129169Y-104207D01*
X128007Y-103586D01*
X126745Y-103203D01*
X125827Y-103113D01*
D02*
G37*
G36*
X125039D02*
X124121Y-103203D01*
X122859Y-103586D01*
X121697Y-104207D01*
X120678Y-105044D01*
X119841Y-106063D01*
X119220Y-107226D01*
X118837Y-108487D01*
X118747Y-109406D01*
X125039D01*
Y-103113D01*
D02*
G37*
G36*
X145039D02*
X144121Y-103203D01*
X142859Y-103586D01*
X141697Y-104207D01*
X140678Y-105044D01*
X139841Y-106063D01*
X139220Y-107226D01*
X138837Y-108487D01*
X138747Y-109406D01*
X145039D01*
Y-103113D01*
D02*
G37*
G36*
X152120Y-110193D02*
X145827D01*
Y-116486D01*
X146745Y-116395D01*
X148007Y-116013D01*
X149169Y-115391D01*
X150189Y-114555D01*
X151025Y-113536D01*
X151646Y-112373D01*
X152029Y-111111D01*
X152120Y-110193D01*
D02*
G37*
G36*
X132120D02*
X125827D01*
Y-116486D01*
X126745Y-116395D01*
X128007Y-116013D01*
X129169Y-115391D01*
X130189Y-114555D01*
X131025Y-113536D01*
X131646Y-112373D01*
X132029Y-111111D01*
X132120Y-110193D01*
D02*
G37*
G36*
X125039D02*
X118747D01*
X118837Y-111111D01*
X119220Y-112373D01*
X119841Y-113536D01*
X120678Y-114555D01*
X121697Y-115391D01*
X122859Y-116013D01*
X124121Y-116395D01*
X125039Y-116486D01*
Y-110193D01*
D02*
G37*
G36*
X145039D02*
X138747D01*
X138837Y-111111D01*
X139220Y-112373D01*
X139841Y-113536D01*
X140678Y-114555D01*
X141697Y-115391D01*
X142859Y-116013D01*
X144121Y-116395D01*
X145039Y-116486D01*
Y-110193D01*
D02*
G37*
%LPD*%
D10*
X-7874Y-15748D02*
D03*
Y-17717D02*
D03*
Y-19685D02*
D03*
Y-21654D02*
D03*
Y-23622D02*
D03*
Y-25591D02*
D03*
Y-27559D02*
D03*
Y-29528D02*
D03*
Y-31496D02*
D03*
Y-33465D02*
D03*
Y-35433D02*
D03*
Y-37402D02*
D03*
Y-39370D02*
D03*
Y-41339D02*
D03*
Y-43307D02*
D03*
Y-45276D02*
D03*
Y-47244D02*
D03*
Y-49213D02*
D03*
Y-51181D02*
D03*
Y-53150D02*
D03*
Y-55118D02*
D03*
Y-57087D02*
D03*
Y-59055D02*
D03*
Y-61024D02*
D03*
Y-62992D02*
D03*
Y-64961D02*
D03*
Y-66929D02*
D03*
Y-68898D02*
D03*
Y-86614D02*
D03*
Y-84646D02*
D03*
Y-82677D02*
D03*
Y-80709D02*
D03*
Y-78740D02*
D03*
D11*
Y-17717D02*
X83465D01*
X88583Y-12598D01*
X-7874Y-15748D02*
X65748D01*
X68898Y-12598D01*
X13484Y-62992D02*
X22638Y-53839D01*
X2461Y-62992D02*
X13484D01*
X39567Y-70768D02*
X44291D01*
X22638Y-53839D02*
X39567Y-70768D01*
X25886Y-25689D02*
X26181D01*
D12*
X-7874Y-61024D02*
X3543D01*
X-7874Y-59055D02*
X3543D01*
X-7874Y-78740D02*
X3543D01*
X-7874Y-80709D02*
X3543D01*
X-7874Y-82677D02*
X3543D01*
X-7874Y-86614D02*
X3543D01*
X-7874Y-84646D02*
X3543D01*
X106890Y-58071D02*
X109252Y-60433D01*
X31004Y-58071D02*
X106890D01*
X25689Y-52756D02*
X31004Y-58071D01*
X492Y-64961D02*
X2461Y-62992D01*
X492Y-64961D02*
X492Y-64961D01*
X-7874Y-64961D02*
X492D01*
X-7874Y-62992D02*
X2461D01*
X14272Y-66929D02*
X34449Y-87106D01*
X-7874Y-66929D02*
X14272D01*
X11240Y-68898D02*
X34449Y-92106D01*
X-7874Y-68898D02*
X11240D01*
D13*
X119095Y-32382D02*
X119193D01*
X112402Y-25689D02*
X119095Y-32382D01*
X19094Y-50295D02*
X22638Y-53839D01*
X19094Y-50295D02*
Y-32480D01*
X25886Y-25689D01*
X30315Y-21260D01*
X51476D01*
X56988D01*
X61417Y-25689D01*
X112402D01*
D14*
X125433Y-89799D02*
D03*
X145433D02*
D03*
D15*
Y-109799D02*
D03*
X125433D02*
D03*
X135433Y-99799D02*
D03*
D16*
X169291Y-47244D02*
D03*
D17*
X161151Y-39891D02*
D03*
X177432D02*
D03*
Y-54598D02*
D03*
X161151D02*
D03*
X156299Y-47244D02*
D03*
X182283D02*
D03*
X169291Y-57087D02*
D03*
Y-37402D02*
D03*
D18*
X110335Y-40453D02*
D03*
X88583Y-12598D02*
D03*
X68898D02*
D03*
X85138Y-10335D02*
D03*
X74311Y-10335D02*
D03*
X63484Y-10335D02*
D03*
X63484Y-21161D02*
D03*
X117126Y-65157D02*
D03*
X23622Y-33957D02*
D03*
X29724Y-70866D02*
D03*
X18209Y-7579D02*
D03*
X9351Y-10335D02*
D03*
X9351Y-21161D02*
D03*
X17717D02*
D03*
X33465Y-3937D02*
D03*
X45276Y-53740D02*
D03*
X46752Y-60433D02*
D03*
X57579D02*
D03*
X41339Y-65157D02*
D03*
X52165D02*
D03*
X52658Y-10335D02*
D03*
X139272Y-42815D02*
D03*
X150098Y-42815D02*
D03*
X150098Y-31988D02*
D03*
X139272Y-31988D02*
D03*
X128445D02*
D03*
X139272Y-21161D02*
D03*
X128445Y-21161D02*
D03*
X128445Y-10335D02*
D03*
X117618Y-21161D02*
D03*
X106791D02*
D03*
X106791Y-10335D02*
D03*
X117618D02*
D03*
X95964Y-21161D02*
D03*
X95964Y-10335D02*
D03*
X112205Y-31988D02*
D03*
X106791D02*
D03*
X101378D02*
D03*
X95964D02*
D03*
X90551D02*
D03*
X85138D02*
D03*
X79724D02*
D03*
X74311D02*
D03*
X68898D02*
D03*
X63484D02*
D03*
X58071D02*
D03*
X8858Y-86811D02*
D03*
X8858Y-75984D02*
D03*
X106299Y-65157D02*
D03*
X95473D02*
D03*
X84646D02*
D03*
X73819D02*
D03*
X62992D02*
D03*
X100886Y-60433D02*
D03*
X90059D02*
D03*
X79232D02*
D03*
X68406D02*
D03*
X106299Y-55709D02*
D03*
X95473D02*
D03*
X84646D02*
D03*
X73819D02*
D03*
X119193Y-32382D02*
D03*
X22638Y-53839D02*
D03*
X8858Y-50689D02*
D03*
X44291Y-70768D02*
D03*
X34449Y-92106D02*
D03*
X34449Y-87106D02*
D03*
X31496Y-43307D02*
D03*
X35433Y-43307D02*
D03*
X35433Y-47244D02*
D03*
X31496Y-47244D02*
D03*
X109252Y-60433D02*
D03*
X25689Y-52756D02*
D03*
X138287Y-46752D02*
D03*
X134941Y-43209D02*
D03*
X146358Y-78248D02*
D03*
X124508Y-78248D02*
D03*
Y-72835D02*
D03*
X146358Y-72835D02*
D03*
Y-51181D02*
D03*
Y-67421D02*
D03*
Y-56595D02*
D03*
Y-62008D02*
D03*
X124508Y-67421D02*
D03*
Y-62008D02*
D03*
Y-56595D02*
D03*
X73819Y-50984D02*
D03*
X79232D02*
D03*
X84646D02*
D03*
X90059D02*
D03*
X95473D02*
D03*
X100886D02*
D03*
X106299D02*
D03*
X84646Y-38386D02*
D03*
X90059D02*
D03*
X95473D02*
D03*
X100886D02*
D03*
X73819Y-46260D02*
D03*
X79232D02*
D03*
X84646D02*
D03*
X90059D02*
D03*
X95473D02*
D03*
X100886D02*
D03*
X106299D02*
D03*
X124311Y-40945D02*
D03*
X124508Y-51181D02*
D03*
X129724Y-40945D02*
D03*
X140945Y-62008D02*
D03*
Y-56595D02*
D03*
X129921Y-67421D02*
D03*
Y-62008D02*
D03*
Y-56595D02*
D03*
Y-51181D02*
D03*
X42815Y-34843D02*
D03*
X51476Y-21260D02*
D03*
M02*
