M48
;Layer_Color=9474304
;FILE_FORMAT=4:4
METRIC,LZ
;TYPE=PLATED
T1F00S00C0.3000
T3F00S00C0.7000
T4F00S00C1.1000
T5F00S00C3.4000
%
T01
X0430975Y0190525
X04269Y01937
X04236Y01949
X04159Y01957
X04185Y01899
X0436725Y0187475
X04406Y0191775
X04415Y0191775
X04431Y0189425
X0443925Y01838
X0445275Y0183775
X044075Y0182625
X044625Y0196325
X0446475Y0197675
X0450075Y0194475
X04522Y0195425
X04541Y0194
X04576Y019365
X0456625Y0197925
X0459125Y0189475
X0458125Y020095
X0459375Y0202075
X046305Y020195
X04639Y020115
X04652Y020215
X0467225Y020355
X0467475Y02069
X0464Y020695
X04659Y02098
X04642Y0213525
X0462275Y021235
X0461275Y0212425
X04597125Y02121302
X04582Y02104
X04565Y021255
X045815Y0214275
X04561Y0218
X045445Y0216425
X04513Y02164
X04505Y02156
Y02172
X04505Y02187
X045005Y02213
Y02226
X04467Y0223
Y02203
X0446475Y021905
X04453Y02158
X044165Y021575
X044Y02159
X0439975Y02181
Y02197
Y02213
Y02229
Y02245
X0441625Y02253
X04411Y0226125
X0441325Y02269
X0440425Y0227175
X0439275
X0438125
X04387Y0227875
X043985
X0441625Y02237
Y02221
Y02205
Y02189
X0441575Y02132
X04427Y0213425
X0441075Y0211575
X04451Y021025
X0446025Y020965
X0446775Y0213375
X0451975Y02146
X0455725Y0209
X0454575Y0206675
X04541Y0200325
X04392Y02035
X04376
X04384Y02027
X04368
X04487Y02252
X04505Y02269
X04504Y02284
X04505Y02321
X04513Y02329
X04505Y02345
X0453775Y023555
X04547Y023485
X0458675Y0236125
X0461975Y023795
X04633Y0238025
X04635Y0236475
Y0235325
Y0224475
Y0223325
X046235
Y0224475
X04635Y0222075
Y0220925
X0462275Y0216325
X046665Y02163
X046935Y02191
X047115Y0212575
X047235Y021095
X047115Y0207525
X044685Y022925
X04467Y02305
X0442425Y0231675
X0442325Y023325
X04416Y02341
X04405Y023485
X04394Y02349
X0441875Y02373
X04352
X04348Y02365
X04354Y02357
X04363Y02349
X0436Y02325
Y02309
X04351Y02317
Y02301
Y02285
X0435Y02275
X04357Y02253
Y02221
Y02205
Y02189
X04355Y02159
X043365Y0215925
X0432625Y0216
X04318
X0430975
X043015
X04293Y02164
X0428175Y0216325
X0426825
X04262Y02189
Y02205
Y02221
Y02237
Y02253
X04266Y02291
X04276
X04267Y02301
X04261Y02307
X04275Y02334
Y02353
X043045Y02368
X04312Y02329
X04293Y02317
X04321Y02302
X04328Y02261
X0432Y02245
Y02229
Y02213
Y02197
Y02181
X04299Y0212425
X04268903
X04269Y020935
X04297736Y02093764
X04361Y0209225
X04357Y02035
X04349Y02027
X04341Y02035
X04333Y02027
X04322Y02035
X04314Y02027
X04306Y02035
X04298Y02027
X04287Y02035
X04279Y02027
X04271Y02035
X04263Y02027
X04252Y02035
X04244Y02027
X04236Y02035
X04228Y02027
X0422225Y0198575
X04176Y0199225
X04178Y02012
X0415
X041379Y0199225
X04141Y02039
X04087Y02009
X04089Y02088
X041175Y0210075
X04092Y0213275
X0408275Y0214125
X0408075Y0212475
X04067Y02164
X04068Y02181
X04091Y0221
X0411675Y022385
X04111Y0224825
X041135Y02263
X04093Y02264
X0409475Y0227625
X04069Y0227525
X04066Y02332
X0406675Y0234975
X04035231Y02348718
X0402675Y02349
X0401Y02341
Y02325
X04002Y02333
Y02317
X0401Y02306
Y0229
X04002Y02298
Y02282
X04041Y02226
X0417825Y0222075
X04183Y02213
X04179Y0220525
X04183Y02197
X041775Y021865
X04183Y02181
X041825Y0216725
X04177Y0215975
X0417675Y0213025
X04169Y0213175
X041565Y0213025
X041325Y0215725
X04132Y02166
X0415875Y021905
X04183Y02229
Y02245
X04175Y02253
X04182018Y02275268
X04163Y02277
X04169Y02285
X04169067Y02297112
X04169Y02317
X04159
X04162Y023255
X04171Y02331
X04176Y0234
X04169Y02347
X04165Y02365
X042235Y02357
X0423075Y02349
X04231Y0234
X042235Y02333
X0423075Y02325
X042Y0233
Y02317
Y02305974
X0421Y02284
X04225Y02261
Y02245
Y02229
Y02213
Y02197
Y02181
X0422475Y0216475
X0422925Y02133
X04231Y02115
X042125Y021065
X0420625Y0210125
X0419875Y02104
X04181Y02093
X04293Y02273
X04351Y02333
X0423075Y02373
X0409375Y02363
X0409575Y023175
X040945Y02384
X041185Y02406
X04163Y02397
X04204Y02426
X0421875Y024215
X04234Y0242
X04226Y0241
X04205Y02457
Y02468
X04206Y02505
X04241Y02504
X042455Y02469
X0425175Y024605
X042795Y02458
X04283Y02479
X043
X04291Y02493
X0427425Y025135
X0426825Y02532
X0425Y02545
X04234
X04226Y02553
X04195Y02545
X04187Y02553
X04179Y02545
X04171Y02553
X04154Y02586
X04158Y026065
Y026175
Y026285
Y026395
Y026505
Y026615
Y026725
Y026835
Y026945
X0422Y02681
X04217Y02637
X04238Y02652
X04205Y02582
X04151Y02493
Y02479
X043435Y0245475
X0435375Y02421
X043165Y024255
X04282Y02391
X04361Y02553
X0433025Y0262075
X04379Y02643
X04377Y02553
X04369Y02545
X04385
X04396Y02553
X04412
X04404Y02545
X0442
X04403Y02501
X0443125Y024885
X04404Y02461
X043765Y0245775
X04376Y0247075
X043765Y0242525
X0438375Y0240875
X04395Y024085
X044065Y024265
X0442725Y024155
Y024055
X0442125Y0238425
X0441025Y02385
X04478Y02393
X04496Y0239
X04511Y02415
X04501Y02441
X04545Y02473
X0455725Y02495
X04571Y02496
X0457825Y0251325
X04577Y02527
X04615Y025365
X046125Y0250325
X046215Y0250175
X04638Y0251325
X0464875Y0252675
X04662Y0257325
X04674
X04687Y02595
X04707Y02589
X04705Y02636
X0469825Y0267775
X0467425Y0266525
X046552
X046615Y02646
X0461275Y0263875
X04621Y02605
X04575Y02623
X04629Y0270425
X0466925Y0272
X04663Y02473
X0467375Y024555
X046425Y0244575
X04685Y02425
X04665Y02398
X04626Y0239725
X04613
X046
X045715Y0240825
X04582Y02463
X04581Y02479
X04719Y02483
X0471Y02502
Y0245
X04452Y02662
T03
X04095Y01924
Y01944
Y01964
T04
X042482Y018393
Y018647
X042228
Y018393
X041974
X04172
X041466
X041212
Y018647
X041466
X04172
X041974
X040958
Y018393
X0445385Y026873
X0447925
X0450465
Y027127
X0447925
X0445385
X046057Y0274075
X046311
X046565
X046819
T05
X04022Y01822
X04762
X04022Y02762
X04762
M30
