G04*
G04 #@! TF.GenerationSoftware,Altium Limited,Altium Designer,22.4.2 (48)*
G04*
G04 Layer_Color=8388736*
%FSLAX44Y44*%
%MOMM*%
G71*
G04*
G04 #@! TF.SameCoordinates,CD49FAE8-A699-4325-8C5D-96517E71F74C*
G04*
G04*
G04 #@! TF.FilePolarity,Negative*
G04*
G01*
G75*
%ADD19R,1.0532X1.1532*%
%ADD20R,1.4032X0.9032*%
%ADD21R,1.4032X1.2032*%
%ADD22R,1.0032X1.2032*%
%ADD23R,3.0032X1.2032*%
%ADD24R,2.1032X1.5032*%
%ADD25R,1.4032X1.2032*%
G04:AMPARAMS|DCode=26|XSize=4.14mm|YSize=2.14mm|CornerRadius=0.57mm|HoleSize=0mm|Usage=FLASHONLY|Rotation=270.000|XOffset=0mm|YOffset=0mm|HoleType=Round|Shape=RoundedRectangle|*
%AMROUNDEDRECTD26*
21,1,4.1400,1.0000,0,0,270.0*
21,1,3.0000,2.1400,0,0,270.0*
1,1,1.1400,-0.5000,-1.5000*
1,1,1.1400,-0.5000,1.5000*
1,1,1.1400,0.5000,1.5000*
1,1,1.1400,0.5000,-1.5000*
%
%ADD26ROUNDEDRECTD26*%
%ADD27R,1.7400X0.5400*%
%ADD28R,1.5400X1.7400*%
%ADD29R,1.4400X1.5900*%
%ADD30R,2.0400X2.0400*%
%ADD31R,3.7592X2.7432*%
%ADD32R,0.7080X0.2548*%
%ADD33R,0.2548X0.7080*%
G04:AMPARAMS|DCode=34|XSize=0.2548mm|YSize=0.708mm|CornerRadius=0.1019mm|HoleSize=0mm|Usage=FLASHONLY|Rotation=0.000|XOffset=0mm|YOffset=0mm|HoleType=Round|Shape=RoundedRectangle|*
%AMROUNDEDRECTD34*
21,1,0.2548,0.5042,0,0,0.0*
21,1,0.0510,0.7080,0,0,0.0*
1,1,0.2038,0.0255,-0.2521*
1,1,0.2038,-0.0255,-0.2521*
1,1,0.2038,-0.0255,0.2521*
1,1,0.2038,0.0255,0.2521*
%
%ADD34ROUNDEDRECTD34*%
G04:AMPARAMS|DCode=35|XSize=0.4532mm|YSize=1.1032mm|CornerRadius=0.2016mm|HoleSize=0mm|Usage=FLASHONLY|Rotation=90.000|XOffset=0mm|YOffset=0mm|HoleType=Round|Shape=RoundedRectangle|*
%AMROUNDEDRECTD35*
21,1,0.4532,0.7000,0,0,90.0*
21,1,0.0500,1.1032,0,0,90.0*
1,1,0.4032,0.3500,0.0250*
1,1,0.4032,0.3500,-0.0250*
1,1,0.4032,-0.3500,-0.0250*
1,1,0.4032,-0.3500,0.0250*
%
%ADD35ROUNDEDRECTD35*%
%ADD36R,1.1032X0.4532*%
%ADD37R,1.6932X2.5832*%
%ADD38R,1.2032X1.8032*%
%ADD39R,0.9032X0.4532*%
G04:AMPARAMS|DCode=40|XSize=1.14mm|YSize=1.64mm|CornerRadius=0.32mm|HoleSize=0mm|Usage=FLASHONLY|Rotation=0.000|XOffset=0mm|YOffset=0mm|HoleType=Round|Shape=RoundedRectangle|*
%AMROUNDEDRECTD40*
21,1,1.1400,1.0000,0,0,0.0*
21,1,0.5000,1.6400,0,0,0.0*
1,1,0.6400,0.2500,-0.5000*
1,1,0.6400,-0.2500,-0.5000*
1,1,0.6400,-0.2500,0.5000*
1,1,0.6400,0.2500,0.5000*
%
%ADD40ROUNDEDRECTD40*%
%ADD41R,1.3032X2.1032*%
%ADD42R,1.2032X0.6532*%
%ADD43R,0.6532X1.2032*%
%ADD44R,1.1532X1.0532*%
%ADD45R,1.1132X1.4032*%
%ADD46O,0.5032X1.6532*%
%ADD47O,1.6532X0.5032*%
%ADD48R,1.4532X1.8032*%
%ADD49R,0.8032X1.7532*%
%ADD50R,1.3532X1.9532*%
%ADD51R,1.4032X1.1132*%
%ADD52R,1.7532X0.8032*%
%ADD53R,2.3532X3.4532*%
%ADD54R,2.3532X1.2032*%
G04:AMPARAMS|DCode=55|XSize=4.14mm|YSize=2.14mm|CornerRadius=0.57mm|HoleSize=0mm|Usage=FLASHONLY|Rotation=0.000|XOffset=0mm|YOffset=0mm|HoleType=Round|Shape=RoundedRectangle|*
%AMROUNDEDRECTD55*
21,1,4.1400,1.0000,0,0,0.0*
21,1,3.0000,2.1400,0,0,0.0*
1,1,1.1400,1.5000,-0.5000*
1,1,1.1400,-1.5000,-0.5000*
1,1,1.1400,-1.5000,0.5000*
1,1,1.1400,1.5000,0.5000*
%
%ADD55ROUNDEDRECTD55*%
%ADD56R,0.3548X1.9700*%
G04:AMPARAMS|DCode=57|XSize=1.97mm|YSize=0.3548mm|CornerRadius=0.1419mm|HoleSize=0mm|Usage=FLASHONLY|Rotation=270.000|XOffset=0mm|YOffset=0mm|HoleType=Round|Shape=RoundedRectangle|*
%AMROUNDEDRECTD57*
21,1,1.9700,0.0710,0,0,270.0*
21,1,1.6862,0.3548,0,0,270.0*
1,1,0.2838,-0.0355,-0.8431*
1,1,0.2838,-0.0355,0.8431*
1,1,0.2838,0.0355,0.8431*
1,1,0.2838,0.0355,-0.8431*
%
%ADD57ROUNDEDRECTD57*%
%ADD58C,1.9032*%
%ADD59O,2.2032X1.4032*%
%ADD60C,1.4032*%
%ADD61C,3.6032*%
D19*
X4439250Y1849250D02*
D03*
X4452750D02*
D03*
X4490750Y2402000D02*
D03*
X4477250D02*
D03*
X4490750Y2415000D02*
D03*
X4477250D02*
D03*
Y2428000D02*
D03*
X4490750D02*
D03*
X4477250Y2441000D02*
D03*
X4490750D02*
D03*
X4691250Y2650000D02*
D03*
X4704750D02*
D03*
X4691250Y2665000D02*
D03*
X4704750D02*
D03*
X4698750Y2444000D02*
D03*
X4685250D02*
D03*
X4698750Y2457000D02*
D03*
X4685250D02*
D03*
Y2470000D02*
D03*
X4698750D02*
D03*
X4685250Y2483000D02*
D03*
X4698750D02*
D03*
Y2496000D02*
D03*
X4685250D02*
D03*
X4698750Y2509000D02*
D03*
X4685250D02*
D03*
X4191250Y2696500D02*
D03*
X4204750D02*
D03*
X4191250Y2681500D02*
D03*
X4204750D02*
D03*
Y2666500D02*
D03*
X4191250D02*
D03*
Y2651500D02*
D03*
X4204750D02*
D03*
X4191250Y2637500D02*
D03*
X4204750D02*
D03*
X4191250Y2623500D02*
D03*
X4204750D02*
D03*
X4191250Y2608500D02*
D03*
X4204750D02*
D03*
X4191250Y2593500D02*
D03*
X4204750D02*
D03*
X4105250Y2397000D02*
D03*
X4118750D02*
D03*
X4105250Y2384000D02*
D03*
X4118750D02*
D03*
X4105250Y2361000D02*
D03*
X4118750D02*
D03*
X4105250Y2348000D02*
D03*
X4118750D02*
D03*
X4105250Y2316000D02*
D03*
X4118750D02*
D03*
Y2229000D02*
D03*
X4105250D02*
D03*
X4118750Y2216000D02*
D03*
X4105250D02*
D03*
Y2203000D02*
D03*
X4118750D02*
D03*
X4105250Y2190000D02*
D03*
X4118750D02*
D03*
Y2177000D02*
D03*
X4105250D02*
D03*
X4105250Y2164000D02*
D03*
X4118750D02*
D03*
X4698750Y2069000D02*
D03*
X4685250D02*
D03*
X4698750Y2082000D02*
D03*
X4685250D02*
D03*
Y2095000D02*
D03*
X4698750D02*
D03*
X4685250Y2108000D02*
D03*
X4698750D02*
D03*
Y2121000D02*
D03*
X4685250D02*
D03*
X4698750Y2134000D02*
D03*
X4685250D02*
D03*
X4557250Y2114000D02*
D03*
X4570750D02*
D03*
X4557250Y2101000D02*
D03*
X4570750D02*
D03*
Y2075000D02*
D03*
X4557250D02*
D03*
X4554750Y1897000D02*
D03*
X4541250D02*
D03*
X4554750Y1910000D02*
D03*
X4541250D02*
D03*
X4554750Y1923000D02*
D03*
X4541250D02*
D03*
X4403250Y1884000D02*
D03*
X4416750D02*
D03*
X4163750Y2002000D02*
D03*
X4150250D02*
D03*
X4557250Y2460000D02*
D03*
X4570750D02*
D03*
X4490750Y2133750D02*
D03*
X4477250D02*
D03*
X4466500Y2662000D02*
D03*
X4480000D02*
D03*
X4570750Y2486000D02*
D03*
X4557250D02*
D03*
X4570750Y2473000D02*
D03*
X4557250D02*
D03*
X4480000Y2648000D02*
D03*
X4466500D02*
D03*
X4075750Y2203000D02*
D03*
X4062250D02*
D03*
X4490750Y2226000D02*
D03*
X4477250D02*
D03*
X4490750Y2213000D02*
D03*
X4477250D02*
D03*
X4599210Y2648080D02*
D03*
X4612710D02*
D03*
X4599250Y2663000D02*
D03*
X4612750D02*
D03*
X4490750Y2200000D02*
D03*
X4477250D02*
D03*
X4490750Y2269234D02*
D03*
X4477250D02*
D03*
X4490750Y2239000D02*
D03*
X4477250D02*
D03*
X4490750Y2306000D02*
D03*
X4477250D02*
D03*
X4105250Y2277000D02*
D03*
X4118750D02*
D03*
X4477250Y2187000D02*
D03*
X4490750D02*
D03*
D20*
X4170500Y2694500D02*
D03*
Y2683500D02*
D03*
Y2672500D02*
D03*
Y2661500D02*
D03*
Y2650500D02*
D03*
Y2639500D02*
D03*
Y2628500D02*
D03*
Y2617500D02*
D03*
Y2606500D02*
D03*
D21*
X4127500Y2702500D02*
D03*
D22*
X4065500D02*
D03*
D23*
X4024000D02*
D03*
D24*
X4019500Y2567500D02*
D03*
D25*
X4170500Y2590000D02*
D03*
D26*
X4129000Y2528000D02*
D03*
X4079000Y2528000D02*
D03*
X4104000D02*
D03*
D27*
X4750500Y2646000D02*
D03*
Y2652500D02*
D03*
Y2659000D02*
D03*
Y2665500D02*
D03*
Y2672000D02*
D03*
D28*
X4753500Y2627000D02*
D03*
Y2691000D02*
D03*
D29*
X4778000Y2693250D02*
D03*
Y2624750D02*
D03*
D30*
Y2647000D02*
D03*
Y2671000D02*
D03*
D31*
X4617000Y2471161D02*
D03*
X4617000Y2095000D02*
D03*
D32*
X4592759Y2461161D02*
D03*
Y2466161D02*
D03*
Y2471161D02*
D03*
Y2476161D02*
D03*
Y2481161D02*
D03*
X4641241D02*
D03*
Y2476161D02*
D03*
Y2471161D02*
D03*
Y2466161D02*
D03*
Y2461161D02*
D03*
X4641241Y2085000D02*
D03*
Y2090000D02*
D03*
Y2095000D02*
D03*
Y2100000D02*
D03*
Y2105000D02*
D03*
X4592759D02*
D03*
Y2100000D02*
D03*
Y2095000D02*
D03*
Y2090000D02*
D03*
Y2085000D02*
D03*
D33*
X4602000Y2490322D02*
D03*
X4607000D02*
D03*
X4612000D02*
D03*
X4617000D02*
D03*
X4622000D02*
D03*
X4627000D02*
D03*
X4632000D02*
D03*
Y2452000D02*
D03*
X4627000D02*
D03*
X4622000D02*
D03*
X4617000D02*
D03*
X4612000D02*
D03*
X4607000D02*
D03*
X4607000Y2075839D02*
D03*
X4612000D02*
D03*
X4617000D02*
D03*
X4622000D02*
D03*
X4627000D02*
D03*
X4632000D02*
D03*
Y2114161D02*
D03*
X4627000D02*
D03*
X4622000D02*
D03*
X4617000D02*
D03*
X4612000D02*
D03*
X4607000D02*
D03*
X4602000D02*
D03*
D34*
X4602000Y2452000D02*
D03*
X4602000Y2075839D02*
D03*
D35*
X4494050Y1981000D02*
D03*
D36*
Y1976000D02*
D03*
Y1971000D02*
D03*
Y1966000D02*
D03*
Y1961000D02*
D03*
X4521950Y1981000D02*
D03*
Y1976000D02*
D03*
Y1971000D02*
D03*
Y1966000D02*
D03*
Y1961000D02*
D03*
D37*
X4508000Y1971000D02*
D03*
D38*
X4408000Y1861000D02*
D03*
D39*
X4397100Y1868500D02*
D03*
Y1863500D02*
D03*
Y1858500D02*
D03*
Y1853500D02*
D03*
X4418900Y1868500D02*
D03*
Y1863500D02*
D03*
Y1858500D02*
D03*
Y1853500D02*
D03*
D40*
X4117500Y2009000D02*
D03*
Y2088000D02*
D03*
X4072500D02*
D03*
Y2009000D02*
D03*
D41*
X4080500Y2264500D02*
D03*
Y2227500D02*
D03*
X4057500Y2227500D02*
D03*
Y2264500D02*
D03*
D42*
X4492500Y2321000D02*
D03*
Y2329000D02*
D03*
Y2337000D02*
D03*
Y2345000D02*
D03*
X4475500Y2321000D02*
D03*
Y2329000D02*
D03*
Y2337000D02*
D03*
Y2345000D02*
D03*
X4103500Y2148750D02*
D03*
Y2140750D02*
D03*
Y2132750D02*
D03*
Y2124750D02*
D03*
X4120500Y2148750D02*
D03*
Y2140750D02*
D03*
Y2132750D02*
D03*
Y2124750D02*
D03*
X4039500Y2282000D02*
D03*
Y2290000D02*
D03*
Y2298000D02*
D03*
Y2306000D02*
D03*
X4022500Y2282000D02*
D03*
Y2290000D02*
D03*
Y2298000D02*
D03*
Y2306000D02*
D03*
X4039500Y2317000D02*
D03*
Y2325000D02*
D03*
Y2333000D02*
D03*
Y2341000D02*
D03*
X4022500Y2317000D02*
D03*
Y2325000D02*
D03*
Y2333000D02*
D03*
Y2341000D02*
D03*
X4492500Y2148000D02*
D03*
Y2156000D02*
D03*
Y2164000D02*
D03*
Y2172000D02*
D03*
X4475500Y2148000D02*
D03*
Y2156000D02*
D03*
Y2164000D02*
D03*
Y2172000D02*
D03*
D43*
X4195000Y2532500D02*
D03*
X4187000D02*
D03*
X4179000D02*
D03*
X4171000D02*
D03*
X4195000Y2515500D02*
D03*
X4187000D02*
D03*
X4179000D02*
D03*
X4171000D02*
D03*
X4396000D02*
D03*
X4404000D02*
D03*
X4412000D02*
D03*
X4420000D02*
D03*
X4396000Y2532500D02*
D03*
X4404000D02*
D03*
X4412000D02*
D03*
X4420000D02*
D03*
X4322000Y2064500D02*
D03*
X4314000D02*
D03*
X4306000D02*
D03*
X4298000D02*
D03*
X4322000Y2047500D02*
D03*
X4314000D02*
D03*
X4306000D02*
D03*
X4298000D02*
D03*
X4252000Y2064500D02*
D03*
X4244000D02*
D03*
X4236000D02*
D03*
X4228000D02*
D03*
X4252000Y2047500D02*
D03*
X4244000D02*
D03*
X4236000D02*
D03*
X4228000D02*
D03*
X4368000D02*
D03*
X4376000D02*
D03*
X4384000D02*
D03*
X4392000D02*
D03*
X4368000Y2064500D02*
D03*
X4376000D02*
D03*
X4384000D02*
D03*
X4392000D02*
D03*
X4357000D02*
D03*
X4349000D02*
D03*
X4341000D02*
D03*
X4333000D02*
D03*
X4357000Y2047500D02*
D03*
X4349000D02*
D03*
X4341000D02*
D03*
X4333000D02*
D03*
X4287000Y2064500D02*
D03*
X4279000D02*
D03*
X4271000D02*
D03*
X4263000D02*
D03*
X4287000Y2047500D02*
D03*
X4279000D02*
D03*
X4271000D02*
D03*
X4263000D02*
D03*
X4250000Y2532500D02*
D03*
X4242000D02*
D03*
X4234000D02*
D03*
X4226000D02*
D03*
X4250000Y2515500D02*
D03*
X4242000D02*
D03*
X4234000D02*
D03*
X4226000D02*
D03*
X4385000Y2532500D02*
D03*
X4377000D02*
D03*
X4369000D02*
D03*
X4361000D02*
D03*
X4385000Y2515500D02*
D03*
X4377000D02*
D03*
X4369000D02*
D03*
X4361000D02*
D03*
D44*
X4587000Y2421750D02*
D03*
Y2408250D02*
D03*
X4600000Y2421750D02*
D03*
Y2408250D02*
D03*
X4613000Y2421750D02*
D03*
Y2408250D02*
D03*
X4626000Y2421750D02*
D03*
Y2408250D02*
D03*
X4639000Y2421750D02*
D03*
Y2408250D02*
D03*
X4632000Y2148750D02*
D03*
Y2135250D02*
D03*
X4619000Y2148750D02*
D03*
Y2135250D02*
D03*
X4606000D02*
D03*
Y2148750D02*
D03*
X4593000Y2135250D02*
D03*
Y2148750D02*
D03*
X4718000Y2677750D02*
D03*
Y2664250D02*
D03*
Y2637250D02*
D03*
Y2650750D02*
D03*
X4706000Y2605250D02*
D03*
Y2618750D02*
D03*
X4721000Y2605250D02*
D03*
Y2618750D02*
D03*
X4600000Y2680250D02*
D03*
Y2693750D02*
D03*
Y2630750D02*
D03*
Y2617250D02*
D03*
X4649000Y2591250D02*
D03*
Y2604750D02*
D03*
X4635000Y2591250D02*
D03*
Y2604750D02*
D03*
X4663000Y2455750D02*
D03*
Y2442250D02*
D03*
X4652000Y2421750D02*
D03*
Y2408250D02*
D03*
X4628000Y2526750D02*
D03*
Y2513250D02*
D03*
X4615000Y2526750D02*
D03*
Y2513250D02*
D03*
X4602000D02*
D03*
Y2526750D02*
D03*
X4589000Y2513250D02*
D03*
Y2526750D02*
D03*
X4404123Y2479250D02*
D03*
Y2492750D02*
D03*
X4311000D02*
D03*
Y2479250D02*
D03*
X4273732Y2492750D02*
D03*
Y2479250D02*
D03*
X4236000D02*
D03*
Y2492750D02*
D03*
X4212000D02*
D03*
Y2479250D02*
D03*
X4199000Y2492750D02*
D03*
Y2479250D02*
D03*
X4164367Y2492750D02*
D03*
Y2479250D02*
D03*
X4330250Y2629750D02*
D03*
Y2643250D02*
D03*
X4343250Y2629750D02*
D03*
Y2643250D02*
D03*
X4368250D02*
D03*
Y2629750D02*
D03*
X4221000Y2665250D02*
D03*
Y2651750D02*
D03*
X4038000Y2250250D02*
D03*
Y2263750D02*
D03*
X4402000Y2102250D02*
D03*
Y2115750D02*
D03*
X4361000D02*
D03*
Y2102250D02*
D03*
X4348000Y2115750D02*
D03*
Y2102250D02*
D03*
X4269000Y2115750D02*
D03*
Y2102250D02*
D03*
X4299097D02*
D03*
Y2115750D02*
D03*
X4181000Y2102250D02*
D03*
Y2115750D02*
D03*
X4168000Y2102250D02*
D03*
Y2115750D02*
D03*
X4212000Y2062750D02*
D03*
Y2049250D02*
D03*
X4141000Y2062750D02*
D03*
Y2049250D02*
D03*
X4222290Y1977290D02*
D03*
Y1963790D02*
D03*
X4222000Y1948750D02*
D03*
Y1935250D02*
D03*
X4659000Y2082750D02*
D03*
Y2069250D02*
D03*
X4652000Y2048750D02*
D03*
Y2035250D02*
D03*
X4639000Y2048750D02*
D03*
Y2035250D02*
D03*
X4626000Y2048750D02*
D03*
Y2035250D02*
D03*
X4613000Y2048750D02*
D03*
Y2035250D02*
D03*
X4600000Y2048750D02*
D03*
Y2035250D02*
D03*
X4587000Y2048750D02*
D03*
Y2035250D02*
D03*
X4555000Y1992750D02*
D03*
Y1979250D02*
D03*
X4541000Y1992750D02*
D03*
Y1979250D02*
D03*
X4555000Y1963750D02*
D03*
Y1950250D02*
D03*
X4541000D02*
D03*
Y1963750D02*
D03*
X4476000Y1963250D02*
D03*
Y1976750D02*
D03*
X4394000Y1942750D02*
D03*
Y1929250D02*
D03*
X4379000Y1942750D02*
D03*
Y1929250D02*
D03*
X4444000Y1904250D02*
D03*
Y1917750D02*
D03*
X4431000Y1904250D02*
D03*
Y1917750D02*
D03*
X4452000Y1863500D02*
D03*
Y1877000D02*
D03*
X4438000Y1863500D02*
D03*
Y1877000D02*
D03*
X4466000Y1849750D02*
D03*
Y1863250D02*
D03*
X4379000Y1874750D02*
D03*
Y1861250D02*
D03*
X4396000Y1826250D02*
D03*
Y1839750D02*
D03*
X4382000Y1826250D02*
D03*
Y1839750D02*
D03*
X4269000Y1919750D02*
D03*
Y1906250D02*
D03*
D45*
X4684500Y2411800D02*
D03*
X4699500D02*
D03*
X4104500Y2332000D02*
D03*
X4119500D02*
D03*
X4684500Y2035600D02*
D03*
X4699500D02*
D03*
X4428000Y1963250D02*
D03*
X4443000D02*
D03*
X4699500Y2162600D02*
D03*
X4684500D02*
D03*
X4699500Y2538800D02*
D03*
X4684500D02*
D03*
D46*
X4166500Y2440250D02*
D03*
X4171500D02*
D03*
X4176500D02*
D03*
X4181500D02*
D03*
X4186500D02*
D03*
X4191500D02*
D03*
X4196500D02*
D03*
X4201500D02*
D03*
X4206500D02*
D03*
X4211500D02*
D03*
X4216500D02*
D03*
X4221500D02*
D03*
X4226500D02*
D03*
X4231500D02*
D03*
X4236500D02*
D03*
X4241500D02*
D03*
X4246500D02*
D03*
X4251500D02*
D03*
X4256500D02*
D03*
X4261500D02*
D03*
X4266500D02*
D03*
X4271500D02*
D03*
X4276500D02*
D03*
X4281500D02*
D03*
X4286500D02*
D03*
X4291500D02*
D03*
X4296500D02*
D03*
X4301500D02*
D03*
X4306500D02*
D03*
X4311500D02*
D03*
X4316500D02*
D03*
X4321500D02*
D03*
X4326500D02*
D03*
X4331500D02*
D03*
X4336500D02*
D03*
X4341500D02*
D03*
X4346500D02*
D03*
X4351500D02*
D03*
X4356500D02*
D03*
X4361500D02*
D03*
X4366500D02*
D03*
X4371500D02*
D03*
X4376500D02*
D03*
X4381500D02*
D03*
X4386500D02*
D03*
X4391500D02*
D03*
X4396500D02*
D03*
X4401500D02*
D03*
X4406500D02*
D03*
X4411500D02*
D03*
X4416500D02*
D03*
X4421500D02*
D03*
Y2145750D02*
D03*
X4416500D02*
D03*
X4411500D02*
D03*
X4406500D02*
D03*
X4401500D02*
D03*
X4396500D02*
D03*
X4391500D02*
D03*
X4386500D02*
D03*
X4381500D02*
D03*
X4376500D02*
D03*
X4371500D02*
D03*
X4366500D02*
D03*
X4361500D02*
D03*
X4356500D02*
D03*
X4351500D02*
D03*
X4346500D02*
D03*
X4341500D02*
D03*
X4336500D02*
D03*
X4331500D02*
D03*
X4326500D02*
D03*
X4321500D02*
D03*
X4316500D02*
D03*
X4311500D02*
D03*
X4306500D02*
D03*
X4301500D02*
D03*
X4296500D02*
D03*
X4291500D02*
D03*
X4286500D02*
D03*
X4281500D02*
D03*
X4276500D02*
D03*
X4271500D02*
D03*
X4266500D02*
D03*
X4261500D02*
D03*
X4256500D02*
D03*
X4251500D02*
D03*
X4246500D02*
D03*
X4241500D02*
D03*
X4236500D02*
D03*
X4231500D02*
D03*
X4226500D02*
D03*
X4221500D02*
D03*
X4216500D02*
D03*
X4211500D02*
D03*
X4206500D02*
D03*
X4201500D02*
D03*
X4196500D02*
D03*
X4191500D02*
D03*
X4186500D02*
D03*
X4181500D02*
D03*
X4176500D02*
D03*
X4171500D02*
D03*
X4166500D02*
D03*
D47*
X4441250Y2420500D02*
D03*
Y2415500D02*
D03*
Y2410500D02*
D03*
Y2405500D02*
D03*
Y2400500D02*
D03*
Y2395500D02*
D03*
Y2390500D02*
D03*
Y2385500D02*
D03*
Y2380500D02*
D03*
Y2375500D02*
D03*
Y2370500D02*
D03*
Y2365500D02*
D03*
Y2360500D02*
D03*
Y2355500D02*
D03*
Y2350500D02*
D03*
Y2345500D02*
D03*
Y2340500D02*
D03*
Y2335500D02*
D03*
Y2330500D02*
D03*
Y2325500D02*
D03*
Y2320500D02*
D03*
Y2315500D02*
D03*
Y2310500D02*
D03*
Y2305500D02*
D03*
Y2300500D02*
D03*
Y2295500D02*
D03*
Y2290500D02*
D03*
Y2285500D02*
D03*
Y2280500D02*
D03*
Y2275500D02*
D03*
Y2270500D02*
D03*
Y2265500D02*
D03*
Y2260500D02*
D03*
Y2255500D02*
D03*
Y2250500D02*
D03*
Y2245500D02*
D03*
Y2240500D02*
D03*
Y2235500D02*
D03*
Y2230500D02*
D03*
Y2225500D02*
D03*
Y2220500D02*
D03*
Y2215500D02*
D03*
Y2210500D02*
D03*
Y2205500D02*
D03*
Y2200500D02*
D03*
Y2195500D02*
D03*
Y2190500D02*
D03*
Y2185500D02*
D03*
Y2180500D02*
D03*
Y2175500D02*
D03*
Y2170500D02*
D03*
Y2165500D02*
D03*
X4146750D02*
D03*
Y2170500D02*
D03*
Y2175500D02*
D03*
Y2180500D02*
D03*
Y2185500D02*
D03*
Y2190500D02*
D03*
Y2195500D02*
D03*
Y2200500D02*
D03*
Y2205500D02*
D03*
Y2210500D02*
D03*
Y2215500D02*
D03*
Y2220500D02*
D03*
Y2225500D02*
D03*
Y2230500D02*
D03*
Y2235500D02*
D03*
Y2240500D02*
D03*
Y2245500D02*
D03*
Y2250500D02*
D03*
Y2255500D02*
D03*
Y2260500D02*
D03*
Y2265500D02*
D03*
Y2270500D02*
D03*
Y2275500D02*
D03*
Y2280500D02*
D03*
Y2285500D02*
D03*
Y2290500D02*
D03*
Y2295500D02*
D03*
Y2300500D02*
D03*
Y2305500D02*
D03*
Y2310500D02*
D03*
Y2315500D02*
D03*
Y2320500D02*
D03*
Y2325500D02*
D03*
Y2330500D02*
D03*
Y2335500D02*
D03*
Y2340500D02*
D03*
Y2345500D02*
D03*
Y2350500D02*
D03*
Y2355500D02*
D03*
Y2360500D02*
D03*
Y2365500D02*
D03*
Y2370500D02*
D03*
Y2375500D02*
D03*
Y2380500D02*
D03*
Y2385500D02*
D03*
Y2390500D02*
D03*
Y2395500D02*
D03*
Y2400500D02*
D03*
Y2405500D02*
D03*
Y2410500D02*
D03*
Y2415500D02*
D03*
Y2420500D02*
D03*
D48*
X4080000Y2331750D02*
D03*
Y2360250D02*
D03*
X4576000Y1923250D02*
D03*
Y1894750D02*
D03*
D49*
X4176050Y1979000D02*
D03*
X4163350D02*
D03*
X4150650D02*
D03*
X4137950D02*
D03*
X4176050Y1925000D02*
D03*
X4163350D02*
D03*
X4150650D02*
D03*
X4137950D02*
D03*
X4367330Y2727000D02*
D03*
X4354630D02*
D03*
X4341930D02*
D03*
X4329230D02*
D03*
X4367330Y2673000D02*
D03*
X4354630D02*
D03*
X4341930D02*
D03*
X4329230D02*
D03*
D50*
X4171750Y1898000D02*
D03*
X4142250D02*
D03*
D51*
X4557250Y2153000D02*
D03*
Y2138000D02*
D03*
D52*
X4518000Y1897950D02*
D03*
Y1910650D02*
D03*
Y1923350D02*
D03*
Y1936050D02*
D03*
X4464000Y1897950D02*
D03*
Y1910650D02*
D03*
Y1923350D02*
D03*
Y1936050D02*
D03*
D53*
X4350890Y1928340D02*
D03*
D54*
X4292390Y1905340D02*
D03*
Y1928340D02*
D03*
Y1951340D02*
D03*
D55*
X4665000Y2263000D02*
D03*
Y2359000D02*
D03*
Y2311000D02*
D03*
Y2335000D02*
D03*
Y2287000D02*
D03*
Y2239000D02*
D03*
Y2215000D02*
D03*
Y2191000D02*
D03*
Y2383000D02*
D03*
X4755000Y2035600D02*
D03*
Y2411800D02*
D03*
Y2162600D02*
D03*
Y2538800D02*
D03*
Y2061000D02*
D03*
Y2437200D02*
D03*
Y2086400D02*
D03*
Y2462600D02*
D03*
Y2111800D02*
D03*
Y2488000D02*
D03*
Y2137200D02*
D03*
Y2513400D02*
D03*
D56*
X4674225Y2631362D02*
D03*
X4667875D02*
D03*
X4661525D02*
D03*
X4655175D02*
D03*
X4648825D02*
D03*
X4642475D02*
D03*
X4636125D02*
D03*
X4629775D02*
D03*
Y2680638D02*
D03*
X4636125D02*
D03*
X4642475D02*
D03*
X4648825D02*
D03*
X4655175D02*
D03*
X4661525D02*
D03*
X4667875D02*
D03*
D57*
X4674225D02*
D03*
D58*
X4605700Y2740750D02*
D03*
X4631100D02*
D03*
X4656500D02*
D03*
X4681900D02*
D03*
X4121200Y1864700D02*
D03*
Y1839300D02*
D03*
X4146600Y1864700D02*
D03*
Y1839300D02*
D03*
X4172000Y1864700D02*
D03*
Y1839300D02*
D03*
X4248200D02*
D03*
Y1864700D02*
D03*
X4222800Y1839300D02*
D03*
Y1864700D02*
D03*
X4197400Y1839300D02*
D03*
Y1864700D02*
D03*
X4095800D02*
D03*
Y1839300D02*
D03*
X4504650Y2687300D02*
D03*
Y2712700D02*
D03*
X4479250Y2687300D02*
D03*
Y2712700D02*
D03*
X4453850Y2687300D02*
D03*
Y2712700D02*
D03*
D59*
X4095000Y1902500D02*
D03*
Y1985500D02*
D03*
D60*
Y1964000D02*
D03*
Y1924000D02*
D03*
Y1944000D02*
D03*
D61*
X4762000Y2762000D02*
D03*
X4022000D02*
D03*
X4022000Y1822000D02*
D03*
X4762000D02*
D03*
M02*
