G04*
G04 #@! TF.GenerationSoftware,Altium Limited,Altium Designer,22.4.2 (48)*
G04*
G04 Layer_Physical_Order=3*
G04 Layer_Color=9339205*
%FSLAX44Y44*%
%MOMM*%
G71*
G04*
G04 #@! TF.SameCoordinates,CD49FAE8-A699-4325-8C5D-96517E71F74C*
G04*
G04*
G04 #@! TF.FilePolarity,Positive*
G04*
G01*
G75*
%ADD11C,0.2000*%
%ADD12C,0.4000*%
%ADD97C,1.7000*%
%ADD98O,2.0000X1.2000*%
%ADD99C,1.2000*%
%ADD100C,3.4000*%
%ADD101C,0.6000*%
G36*
X4586961Y2788941D02*
Y2636500D01*
X4587116Y2635720D01*
X4587558Y2635058D01*
X4588220Y2634616D01*
X4589000Y2634461D01*
Y2567039D01*
X4588220Y2566884D01*
X4587558Y2566442D01*
X4587116Y2565780D01*
X4586961Y2565000D01*
Y2562039D01*
X4587000Y2561843D01*
X4587000Y2561643D01*
X4587077Y2561457D01*
X4587116Y2561259D01*
X4587220Y2561104D01*
X4538558Y2512442D01*
X4538116Y2511780D01*
X4537961Y2511000D01*
Y2396000D01*
X4538116Y2395220D01*
X4538558Y2394558D01*
X4538558Y2394558D01*
X4550134Y2382982D01*
X4549648Y2381809D01*
X4483517D01*
X4478600Y2386726D01*
X4479017Y2388104D01*
X4479951Y2388290D01*
X4481605Y2389395D01*
X4482710Y2391049D01*
X4483098Y2393000D01*
X4482710Y2394951D01*
X4481605Y2396605D01*
X4479951Y2397710D01*
X4478000Y2398098D01*
X4476049Y2397710D01*
X4474395Y2396605D01*
X4473290Y2394951D01*
X4473104Y2394017D01*
X4472454Y2393687D01*
X4471715Y2393545D01*
X4470920Y2394076D01*
X4469750Y2394309D01*
X4469750Y2394309D01*
X4353750D01*
X4352580Y2394076D01*
X4351587Y2393413D01*
X4351587Y2393413D01*
X4330837Y2372663D01*
X4330174Y2371671D01*
X4329941Y2370500D01*
X4329941Y2370500D01*
Y2331017D01*
X4323482Y2324558D01*
X4322309Y2325044D01*
Y2375233D01*
X4370558Y2423482D01*
X4371943Y2423071D01*
X4372895Y2421645D01*
X4374549Y2420540D01*
X4376500Y2420152D01*
X4378451Y2420540D01*
X4380105Y2421645D01*
X4381210Y2423299D01*
X4381598Y2425250D01*
X4381210Y2427201D01*
X4380105Y2428855D01*
X4378679Y2429807D01*
X4378268Y2431192D01*
X4386142Y2439066D01*
X4405125D01*
X4405125Y2439066D01*
X4406295Y2439299D01*
X4407288Y2439962D01*
X4433413Y2466087D01*
X4434076Y2467079D01*
X4434309Y2468250D01*
Y2484530D01*
X4434855Y2484895D01*
X4435960Y2486549D01*
X4436348Y2488500D01*
X4435960Y2490451D01*
X4434855Y2492105D01*
X4433201Y2493210D01*
X4431250Y2493598D01*
X4429299Y2493210D01*
X4427645Y2492105D01*
X4426540Y2490451D01*
X4426152Y2488500D01*
X4426540Y2486549D01*
X4427645Y2484895D01*
X4428191Y2484530D01*
Y2469517D01*
X4403858Y2445184D01*
X4384875D01*
X4383705Y2444951D01*
X4382712Y2444288D01*
X4382712Y2444288D01*
X4360023Y2421599D01*
X4358646Y2422017D01*
X4358460Y2422951D01*
X4357355Y2424605D01*
X4355701Y2425710D01*
X4353750Y2426098D01*
X4351799Y2425710D01*
X4350145Y2424605D01*
X4349040Y2422951D01*
X4348652Y2421000D01*
X4349040Y2419049D01*
X4350145Y2417395D01*
X4351799Y2416290D01*
X4352733Y2416104D01*
X4353151Y2414726D01*
X4317087Y2378663D01*
X4316424Y2377671D01*
X4316191Y2376500D01*
X4316191Y2376500D01*
Y2333740D01*
X4314921Y2333062D01*
X4313951Y2333710D01*
X4312000Y2334098D01*
X4310049Y2333710D01*
X4308395Y2332605D01*
X4307290Y2330951D01*
X4306902Y2329000D01*
X4307290Y2327049D01*
X4308395Y2325395D01*
X4310049Y2324290D01*
X4312000Y2323902D01*
X4313951Y2324290D01*
X4314921Y2324939D01*
X4316191Y2324260D01*
Y2322267D01*
X4280755Y2286831D01*
X4279769Y2287641D01*
X4280114Y2288158D01*
X4280710Y2289049D01*
X4281098Y2291000D01*
X4280710Y2292951D01*
X4279605Y2294605D01*
X4277951Y2295710D01*
X4276000Y2296098D01*
X4274049Y2295710D01*
X4272395Y2294605D01*
X4271764Y2293660D01*
X4270236D01*
X4269605Y2294605D01*
X4269005Y2295006D01*
X4268982Y2295540D01*
X4269160Y2296430D01*
X4270605Y2297395D01*
X4271710Y2299049D01*
X4272098Y2301000D01*
X4271710Y2302951D01*
X4270605Y2304605D01*
X4270059Y2304970D01*
Y2330109D01*
X4271329Y2330495D01*
X4271395Y2330395D01*
X4273049Y2329290D01*
X4275000Y2328902D01*
X4276951Y2329290D01*
X4278605Y2330395D01*
X4279710Y2332049D01*
X4280098Y2334000D01*
X4279710Y2335951D01*
X4278605Y2337605D01*
X4276951Y2338710D01*
X4275000Y2339098D01*
X4273049Y2338710D01*
X4271395Y2337605D01*
X4271329Y2337505D01*
X4270059Y2337891D01*
Y2349109D01*
X4271329Y2349495D01*
X4271395Y2349395D01*
X4273049Y2348290D01*
X4275000Y2347902D01*
X4276951Y2348290D01*
X4278605Y2349395D01*
X4279710Y2351049D01*
X4280098Y2353000D01*
X4279710Y2354951D01*
X4278605Y2356605D01*
X4276951Y2357710D01*
X4275000Y2358098D01*
X4273049Y2357710D01*
X4271395Y2356605D01*
X4271329Y2356505D01*
X4270059Y2356891D01*
Y2407283D01*
X4321717Y2458941D01*
X4338759D01*
X4339438Y2457671D01*
X4338790Y2456701D01*
X4338402Y2454750D01*
X4338790Y2452799D01*
X4339895Y2451145D01*
X4341549Y2450040D01*
X4343500Y2449652D01*
X4345451Y2450040D01*
X4347105Y2451145D01*
X4348210Y2452799D01*
X4348598Y2454750D01*
X4348210Y2456701D01*
X4347562Y2457671D01*
X4348240Y2458941D01*
X4354000D01*
X4354000Y2458941D01*
X4355171Y2459174D01*
X4356163Y2459837D01*
X4371245Y2474919D01*
X4372231Y2474109D01*
X4371885Y2473592D01*
X4371290Y2472701D01*
X4370902Y2470750D01*
X4371290Y2468799D01*
X4372395Y2467145D01*
X4374049Y2466040D01*
X4376000Y2465652D01*
X4377951Y2466040D01*
X4379605Y2467145D01*
X4380710Y2468799D01*
X4381098Y2470750D01*
X4380710Y2472701D01*
X4379605Y2474355D01*
X4377951Y2475460D01*
X4376000Y2475848D01*
X4374049Y2475460D01*
X4373158Y2474865D01*
X4372640Y2474519D01*
X4371831Y2475505D01*
X4422163Y2525837D01*
X4422163Y2525837D01*
X4422826Y2526829D01*
X4423059Y2528000D01*
Y2540595D01*
X4423078Y2540688D01*
X4423105Y2540780D01*
X4423141Y2540872D01*
X4423188Y2540966D01*
X4423247Y2541065D01*
X4423322Y2541170D01*
X4423390Y2541252D01*
X4423605Y2541395D01*
X4424710Y2543049D01*
X4425098Y2545000D01*
X4424710Y2546951D01*
X4423605Y2548605D01*
X4421951Y2549710D01*
X4420000Y2550098D01*
X4418049Y2549710D01*
X4416772Y2548857D01*
X4415857Y2549773D01*
X4416710Y2551049D01*
X4417098Y2553000D01*
X4416710Y2554951D01*
X4415605Y2556605D01*
X4413951Y2557710D01*
X4412000Y2558098D01*
X4410049Y2557710D01*
X4408395Y2556605D01*
X4407290Y2554951D01*
X4406902Y2553000D01*
X4407290Y2551049D01*
X4408143Y2549773D01*
X4407227Y2548857D01*
X4405951Y2549710D01*
X4404000Y2550098D01*
X4402049Y2549710D01*
X4400772Y2548857D01*
X4399857Y2549773D01*
X4400710Y2551049D01*
X4401098Y2553000D01*
X4400710Y2554951D01*
X4399605Y2556605D01*
X4397951Y2557710D01*
X4396000Y2558098D01*
X4394049Y2557710D01*
X4392395Y2556605D01*
X4391290Y2554951D01*
X4390902Y2553000D01*
X4391290Y2551049D01*
X4392395Y2549395D01*
X4392610Y2549252D01*
X4392678Y2549170D01*
X4392753Y2549065D01*
X4392812Y2548966D01*
X4392858Y2548871D01*
X4392894Y2548780D01*
X4392922Y2548688D01*
X4392941Y2548595D01*
Y2521267D01*
X4389232Y2517558D01*
X4388059Y2518044D01*
Y2540595D01*
X4388078Y2540688D01*
X4388105Y2540780D01*
X4388141Y2540872D01*
X4388188Y2540966D01*
X4388247Y2541065D01*
X4388322Y2541170D01*
X4388390Y2541252D01*
X4388605Y2541395D01*
X4389710Y2543049D01*
X4390098Y2545000D01*
X4389710Y2546951D01*
X4388605Y2548605D01*
X4386951Y2549710D01*
X4385000Y2550098D01*
X4383049Y2549710D01*
X4381772Y2548857D01*
X4380857Y2549773D01*
X4381710Y2551049D01*
X4382098Y2553000D01*
X4381710Y2554951D01*
X4380605Y2556605D01*
X4378951Y2557710D01*
X4377000Y2558098D01*
X4375049Y2557710D01*
X4373395Y2556605D01*
X4372290Y2554951D01*
X4371902Y2553000D01*
X4372290Y2551049D01*
X4373143Y2549773D01*
X4372227Y2548857D01*
X4370951Y2549710D01*
X4369000Y2550098D01*
X4367049Y2549710D01*
X4366070Y2549056D01*
X4365772Y2548857D01*
X4364857Y2549773D01*
X4365056Y2550070D01*
X4365710Y2551049D01*
X4366098Y2553000D01*
X4365710Y2554951D01*
X4364605Y2556605D01*
X4362951Y2557710D01*
X4361000Y2558098D01*
X4359049Y2557710D01*
X4357395Y2556605D01*
X4356290Y2554951D01*
X4355902Y2553000D01*
X4356290Y2551049D01*
X4357395Y2549395D01*
X4359049Y2548290D01*
X4361000Y2547902D01*
X4362951Y2548290D01*
X4363930Y2548944D01*
X4364227Y2549143D01*
X4365143Y2548228D01*
X4364944Y2547930D01*
X4364290Y2546951D01*
X4363902Y2545000D01*
X4364290Y2543049D01*
X4365395Y2541395D01*
X4367049Y2540290D01*
X4369000Y2539902D01*
X4370951Y2540290D01*
X4372605Y2541395D01*
X4372671Y2541495D01*
X4373941Y2541109D01*
Y2512166D01*
X4344833Y2483059D01*
X4310000D01*
X4310000Y2483059D01*
X4308830Y2482826D01*
X4307837Y2482163D01*
X4305980Y2480306D01*
X4304765Y2480675D01*
X4304710Y2480951D01*
X4303605Y2482605D01*
X4301951Y2483710D01*
X4300000Y2484098D01*
X4298049Y2483710D01*
X4296395Y2482605D01*
X4295290Y2480951D01*
X4294902Y2479000D01*
X4295290Y2477049D01*
X4296395Y2475395D01*
X4298049Y2474290D01*
X4298326Y2474235D01*
X4298694Y2473020D01*
X4174860Y2349185D01*
X4173357Y2349479D01*
X4172605Y2350605D01*
X4170951Y2351710D01*
X4169000Y2352098D01*
X4167049Y2351710D01*
X4165395Y2350605D01*
X4164290Y2348951D01*
X4163902Y2347000D01*
X4164290Y2345049D01*
X4165395Y2343395D01*
X4167049Y2342290D01*
X4169000Y2341902D01*
X4170026Y2342106D01*
X4171106Y2341026D01*
X4170902Y2340000D01*
X4171290Y2338049D01*
X4172395Y2336395D01*
X4174049Y2335290D01*
X4176000Y2334902D01*
X4177951Y2335290D01*
X4179605Y2336395D01*
X4180710Y2338049D01*
X4181098Y2340000D01*
X4180710Y2341951D01*
X4179605Y2343605D01*
X4179527Y2343657D01*
X4179420Y2345094D01*
X4199171Y2364845D01*
X4200441Y2364319D01*
Y2352767D01*
X4169644Y2321970D01*
X4169000Y2322098D01*
X4167049Y2321710D01*
X4166976Y2321661D01*
X4166060Y2322576D01*
X4166710Y2323549D01*
X4167098Y2325500D01*
X4166710Y2327451D01*
X4165605Y2329105D01*
X4163951Y2330210D01*
X4162000Y2330598D01*
X4160049Y2330210D01*
X4158395Y2329105D01*
X4157290Y2327451D01*
X4156902Y2325500D01*
X4157290Y2323549D01*
X4157711Y2322918D01*
X4157226Y2321745D01*
X4157049Y2321710D01*
X4155395Y2320605D01*
X4154290Y2318951D01*
X4153902Y2317000D01*
X4154235Y2315329D01*
X4153541Y2314059D01*
X4025267D01*
X4014970Y2324356D01*
X4015098Y2325000D01*
X4014710Y2326951D01*
X4013605Y2328605D01*
X4011951Y2329710D01*
X4010000Y2330098D01*
X4008049Y2329710D01*
X4007070Y2329056D01*
X4006772Y2328857D01*
X4005857Y2329773D01*
X4006056Y2330070D01*
X4006710Y2331049D01*
X4007098Y2333000D01*
X4006710Y2334951D01*
X4006056Y2335930D01*
X4005857Y2336227D01*
X4006772Y2337143D01*
X4007070Y2336944D01*
X4008049Y2336290D01*
X4010000Y2335902D01*
X4011951Y2336290D01*
X4013605Y2337395D01*
X4014710Y2339049D01*
X4015098Y2341000D01*
X4014710Y2342951D01*
X4013605Y2344605D01*
X4011951Y2345710D01*
X4010000Y2346098D01*
X4008049Y2345710D01*
X4006395Y2344605D01*
X4005290Y2342951D01*
X4004902Y2341000D01*
X4005290Y2339049D01*
X4005944Y2338070D01*
X4006143Y2337773D01*
X4005227Y2336857D01*
X4004930Y2337056D01*
X4003951Y2337710D01*
X4002000Y2338098D01*
X4000049Y2337710D01*
X3998395Y2336605D01*
X3997290Y2334951D01*
X3996902Y2333000D01*
X3997290Y2331049D01*
X3998395Y2329395D01*
X4000049Y2328290D01*
X4002000Y2327902D01*
X4003951Y2328290D01*
X4004930Y2328944D01*
X4005227Y2329143D01*
X4006143Y2328227D01*
X4005944Y2327930D01*
X4005290Y2326951D01*
X4004902Y2325000D01*
X4005290Y2323049D01*
X4005944Y2322070D01*
X4006143Y2321772D01*
X4005227Y2320857D01*
X4004930Y2321056D01*
X4003951Y2321710D01*
X4002000Y2322098D01*
X4000049Y2321710D01*
X3998395Y2320605D01*
X3997290Y2318951D01*
X3996902Y2317000D01*
X3997290Y2315049D01*
X3998395Y2313395D01*
X4000049Y2312290D01*
X4002000Y2311902D01*
X4003951Y2312290D01*
X4005605Y2313395D01*
X4006710Y2315049D01*
X4007098Y2317000D01*
X4006710Y2318951D01*
X4006056Y2319930D01*
X4005857Y2320227D01*
X4006772Y2321143D01*
X4007070Y2320944D01*
X4008049Y2320290D01*
X4010000Y2319902D01*
X4010644Y2320030D01*
X4020442Y2310232D01*
X4019956Y2309059D01*
X4014406D01*
X4014312Y2309078D01*
X4014220Y2309106D01*
X4014128Y2309142D01*
X4014034Y2309188D01*
X4013935Y2309247D01*
X4013830Y2309322D01*
X4013748Y2309390D01*
X4013605Y2309605D01*
X4011951Y2310710D01*
X4010000Y2311098D01*
X4008049Y2310710D01*
X4006395Y2309605D01*
X4005290Y2307951D01*
X4004902Y2306000D01*
X4005290Y2304049D01*
X4005944Y2303070D01*
X4006143Y2302773D01*
X4005227Y2301857D01*
X4004930Y2302056D01*
X4003951Y2302710D01*
X4002000Y2303098D01*
X4000049Y2302710D01*
X3998395Y2301605D01*
X3997290Y2299951D01*
X3996902Y2298000D01*
X3997290Y2296049D01*
X3998395Y2294395D01*
X4000049Y2293290D01*
X4002000Y2292902D01*
X4003951Y2293290D01*
X4004930Y2293944D01*
X4005227Y2294143D01*
X4006143Y2293227D01*
X4005944Y2292930D01*
X4005290Y2291951D01*
X4004902Y2290000D01*
X4005290Y2288049D01*
X4005944Y2287070D01*
X4006143Y2286772D01*
X4005227Y2285857D01*
X4004930Y2286056D01*
X4003951Y2286710D01*
X4002000Y2287098D01*
X4000049Y2286710D01*
X3998395Y2285605D01*
X3997290Y2283951D01*
X3996902Y2282000D01*
X3997290Y2280049D01*
X3998395Y2278395D01*
X4000049Y2277290D01*
X4002000Y2276902D01*
X4003951Y2277290D01*
X4005605Y2278395D01*
X4006710Y2280049D01*
X4007098Y2282000D01*
X4006710Y2283951D01*
X4006056Y2284930D01*
X4005857Y2285227D01*
X4006772Y2286143D01*
X4007070Y2285944D01*
X4008049Y2285290D01*
X4010000Y2284902D01*
X4011951Y2285290D01*
X4013605Y2286395D01*
X4014710Y2288049D01*
X4015098Y2290000D01*
X4014710Y2291951D01*
X4013605Y2293605D01*
X4011951Y2294710D01*
X4010000Y2295098D01*
X4008049Y2294710D01*
X4007070Y2294056D01*
X4006772Y2293857D01*
X4005857Y2294773D01*
X4006056Y2295070D01*
X4006710Y2296049D01*
X4007098Y2298000D01*
X4006710Y2299951D01*
X4006056Y2300930D01*
X4005857Y2301227D01*
X4006772Y2302143D01*
X4007070Y2301944D01*
X4008049Y2301290D01*
X4010000Y2300902D01*
X4011951Y2301290D01*
X4013605Y2302395D01*
X4013748Y2302610D01*
X4013830Y2302678D01*
X4013935Y2302753D01*
X4014034Y2302812D01*
X4014128Y2302858D01*
X4014220Y2302894D01*
X4014312Y2302922D01*
X4014406Y2302941D01*
X4166679D01*
X4166750Y2302757D01*
X4166890Y2301671D01*
X4165462Y2300717D01*
X4164357Y2299063D01*
X4163969Y2297112D01*
X4164357Y2295161D01*
X4165462Y2293508D01*
X4167116Y2292402D01*
X4169067Y2292014D01*
X4171018Y2292402D01*
X4172672Y2293508D01*
X4173036Y2294054D01*
X4198018D01*
X4198504Y2292880D01*
X4193683Y2288059D01*
X4172970D01*
X4172605Y2288605D01*
X4170951Y2289710D01*
X4169000Y2290098D01*
X4167049Y2289710D01*
X4165395Y2288605D01*
X4164290Y2286951D01*
X4163902Y2285000D01*
X4164290Y2283049D01*
X4165395Y2281395D01*
X4167049Y2280290D01*
X4169000Y2279902D01*
X4170951Y2280290D01*
X4172605Y2281395D01*
X4172970Y2281941D01*
X4194950D01*
X4194950Y2281941D01*
X4196120Y2282174D01*
X4197113Y2282837D01*
X4212663Y2298387D01*
X4212663Y2298387D01*
X4213326Y2299380D01*
X4213559Y2300550D01*
X4213559Y2300550D01*
Y2361283D01*
X4224510Y2372234D01*
X4225887Y2371816D01*
X4226040Y2371049D01*
X4227145Y2369395D01*
X4228799Y2368290D01*
X4230750Y2367902D01*
X4232701Y2368290D01*
X4234355Y2369395D01*
X4235460Y2371049D01*
X4235848Y2373000D01*
X4235460Y2374951D01*
X4234355Y2376605D01*
X4232701Y2377710D01*
X4231934Y2377862D01*
X4231516Y2379241D01*
X4249768Y2397492D01*
X4250941Y2397006D01*
Y2303000D01*
X4250941Y2303000D01*
X4251174Y2301830D01*
X4251837Y2300837D01*
X4261030Y2291644D01*
X4260902Y2291000D01*
X4261290Y2289049D01*
X4262395Y2287395D01*
X4264049Y2286290D01*
X4266000Y2285902D01*
X4267951Y2286290D01*
X4269605Y2287395D01*
X4270236Y2288340D01*
X4271764D01*
X4272395Y2287395D01*
X4274049Y2286290D01*
X4276000Y2285902D01*
X4277951Y2286290D01*
X4278842Y2286886D01*
X4279359Y2287231D01*
X4280169Y2286245D01*
X4272251Y2278327D01*
X4185988D01*
X4185623Y2278873D01*
X4183969Y2279978D01*
X4182018Y2280366D01*
X4180067Y2279978D01*
X4178413Y2278873D01*
X4177308Y2277219D01*
X4176920Y2275268D01*
X4177308Y2273317D01*
X4177568Y2272929D01*
X4176969Y2271809D01*
X4131500D01*
X4131500Y2271809D01*
X4130330Y2271576D01*
X4129337Y2270913D01*
X4119513Y2261088D01*
X4118342Y2261714D01*
X4118598Y2263000D01*
X4118210Y2264951D01*
X4117105Y2266605D01*
X4115451Y2267710D01*
X4113500Y2268098D01*
X4111549Y2267710D01*
X4109895Y2266605D01*
X4108790Y2264951D01*
X4108402Y2263000D01*
X4108790Y2261049D01*
X4109895Y2259395D01*
X4111549Y2258290D01*
X4113500Y2257902D01*
X4114786Y2258158D01*
X4115412Y2256987D01*
X4111644Y2253220D01*
X4111000Y2253348D01*
X4109049Y2252960D01*
X4107395Y2251855D01*
X4106290Y2250201D01*
X4105902Y2248250D01*
X4106290Y2246299D01*
X4107395Y2244645D01*
X4109049Y2243540D01*
X4111000Y2243152D01*
X4112951Y2243540D01*
X4114605Y2244645D01*
X4115710Y2246299D01*
X4116098Y2248250D01*
X4115970Y2248894D01*
X4132767Y2265691D01*
X4219698D01*
X4220333Y2264421D01*
X4220062Y2264059D01*
X4172500D01*
X4172500Y2264059D01*
X4171330Y2263826D01*
X4170337Y2263163D01*
X4170337Y2263163D01*
X4072943Y2165768D01*
X4071557Y2166179D01*
X4070605Y2167605D01*
X4068951Y2168710D01*
X4067000Y2169098D01*
X4065049Y2168710D01*
X4063395Y2167605D01*
X4062290Y2165951D01*
X4061902Y2164000D01*
X4062290Y2162049D01*
X4063395Y2160395D01*
X4065049Y2159290D01*
X4067000Y2158902D01*
X4068951Y2159290D01*
X4069321Y2159538D01*
X4070441Y2158939D01*
Y2132000D01*
X4070441Y2132000D01*
X4070674Y2130829D01*
X4071337Y2129837D01*
X4075472Y2125702D01*
X4075524Y2125623D01*
X4075570Y2125538D01*
X4075609Y2125448D01*
X4075643Y2125348D01*
X4075671Y2125237D01*
X4075693Y2125109D01*
X4075703Y2125003D01*
X4075652Y2124750D01*
X4076040Y2122799D01*
X4077145Y2121145D01*
X4078799Y2120040D01*
X4079763Y2119848D01*
X4079638Y2118578D01*
X4077939D01*
X4055829Y2140689D01*
Y2221061D01*
X4093836Y2259068D01*
X4094951Y2259290D01*
X4096605Y2260395D01*
X4097710Y2262049D01*
X4098098Y2264000D01*
X4097710Y2265951D01*
X4096605Y2267605D01*
X4094951Y2268710D01*
X4093000Y2269098D01*
X4091049Y2268710D01*
X4089395Y2267605D01*
X4088290Y2265951D01*
X4088068Y2264836D01*
X4048866Y2225634D01*
X4047982Y2224311D01*
X4047672Y2222750D01*
X4047672Y2222750D01*
Y2139000D01*
X4047672Y2139000D01*
X4047982Y2137439D01*
X4048866Y2136116D01*
X4073366Y2111616D01*
X4073366Y2111616D01*
X4074689Y2110732D01*
X4076250Y2110422D01*
X4076250Y2110422D01*
X4151750D01*
X4151750Y2110422D01*
X4153311Y2110732D01*
X4154634Y2111616D01*
X4169836Y2126818D01*
X4170951Y2127040D01*
X4172605Y2128145D01*
X4173710Y2129799D01*
X4174098Y2131750D01*
X4173710Y2133701D01*
X4172605Y2135355D01*
X4170951Y2136460D01*
X4169000Y2136848D01*
X4167049Y2136460D01*
X4165395Y2135355D01*
X4164290Y2133701D01*
X4164068Y2132586D01*
X4162700Y2131218D01*
X4161322Y2131636D01*
X4161210Y2132201D01*
X4160105Y2133855D01*
X4158451Y2134960D01*
X4156500Y2135348D01*
X4154549Y2134960D01*
X4152895Y2133855D01*
X4151790Y2132201D01*
X4151402Y2130250D01*
X4151790Y2128299D01*
X4152895Y2126645D01*
X4154549Y2125540D01*
X4155114Y2125428D01*
X4155532Y2124050D01*
X4150061Y2118578D01*
X4081862D01*
X4081737Y2119848D01*
X4082701Y2120040D01*
X4084355Y2121145D01*
X4085460Y2122799D01*
X4085848Y2124750D01*
X4085460Y2126701D01*
X4084355Y2128355D01*
X4082701Y2129460D01*
X4080750Y2129848D01*
X4080497Y2129798D01*
X4080391Y2129807D01*
X4080263Y2129829D01*
X4080152Y2129857D01*
X4080052Y2129891D01*
X4079962Y2129930D01*
X4079877Y2129976D01*
X4079798Y2130028D01*
X4076559Y2133267D01*
Y2140236D01*
X4077829Y2140361D01*
X4078040Y2139299D01*
X4079145Y2137645D01*
X4080799Y2136540D01*
X4082750Y2136152D01*
X4084701Y2136540D01*
X4086355Y2137645D01*
X4087460Y2139299D01*
X4087671Y2140361D01*
X4088941Y2140236D01*
Y2136720D01*
X4088395Y2136355D01*
X4087290Y2134701D01*
X4086902Y2132750D01*
X4087290Y2130799D01*
X4088395Y2129145D01*
X4090049Y2128040D01*
X4092000Y2127652D01*
X4093951Y2128040D01*
X4095605Y2129145D01*
X4096710Y2130799D01*
X4097098Y2132750D01*
X4096710Y2134701D01*
X4095605Y2136355D01*
X4095059Y2136720D01*
Y2151733D01*
X4175767Y2232441D01*
X4177939D01*
X4178538Y2231321D01*
X4178290Y2230951D01*
X4177902Y2229000D01*
X4178290Y2227049D01*
X4178300Y2227034D01*
X4177646Y2225728D01*
X4176299Y2225460D01*
X4174645Y2224355D01*
X4173540Y2222701D01*
X4173152Y2220750D01*
X4173540Y2218799D01*
X4174645Y2217145D01*
X4176299Y2216040D01*
X4177351Y2215831D01*
X4178220Y2215017D01*
X4178194Y2214467D01*
X4177902Y2213000D01*
X4178203Y2211484D01*
X4177541Y2210058D01*
X4177049Y2209960D01*
X4175395Y2208855D01*
X4174290Y2207201D01*
X4173902Y2205250D01*
X4174290Y2203299D01*
X4175395Y2201645D01*
X4177049Y2200540D01*
X4177733Y2200404D01*
X4178318Y2198993D01*
X4178290Y2198951D01*
X4177902Y2197000D01*
X4178290Y2195049D01*
X4179395Y2193395D01*
X4181049Y2192290D01*
X4183000Y2191902D01*
X4183644Y2192030D01*
X4188837Y2186837D01*
X4188837Y2186837D01*
X4189829Y2186174D01*
X4191000Y2185941D01*
X4191000Y2185941D01*
X4221109D01*
X4221495Y2184671D01*
X4221395Y2184605D01*
X4220290Y2182951D01*
X4219902Y2181000D01*
X4220290Y2179049D01*
X4221395Y2177395D01*
X4221495Y2177329D01*
X4221110Y2176059D01*
X4192267D01*
X4187970Y2180356D01*
X4188098Y2181000D01*
X4187710Y2182951D01*
X4186605Y2184605D01*
X4184951Y2185710D01*
X4183000Y2186098D01*
X4182442Y2187282D01*
X4182210Y2188451D01*
X4181105Y2190105D01*
X4179451Y2191210D01*
X4177500Y2191598D01*
X4175549Y2191210D01*
X4173895Y2190105D01*
X4172790Y2188451D01*
X4172402Y2186500D01*
X4172790Y2184549D01*
X4173895Y2182895D01*
X4175549Y2181790D01*
X4176718Y2181558D01*
X4177902Y2181000D01*
X4178290Y2179049D01*
X4179395Y2177395D01*
X4181049Y2176290D01*
X4183000Y2175902D01*
X4183644Y2176030D01*
X4188837Y2170837D01*
X4188837Y2170837D01*
X4189829Y2170174D01*
X4191000Y2169941D01*
X4191000Y2169941D01*
X4221234D01*
X4221619Y2168671D01*
X4221145Y2168355D01*
X4220040Y2166701D01*
X4219652Y2164750D01*
X4220040Y2162799D01*
X4221145Y2161145D01*
X4222799Y2160040D01*
X4224750Y2159652D01*
X4226701Y2160040D01*
X4228355Y2161145D01*
X4228719Y2161691D01*
X4239250D01*
X4239250Y2161691D01*
X4240421Y2161924D01*
X4241413Y2162587D01*
X4249517Y2170691D01*
X4426483D01*
X4462780Y2134394D01*
X4462652Y2133750D01*
X4463040Y2131799D01*
X4464145Y2130145D01*
X4465799Y2129040D01*
X4467750Y2128652D01*
X4469701Y2129040D01*
X4471355Y2130145D01*
X4472460Y2131799D01*
X4472848Y2133750D01*
X4472460Y2135701D01*
X4471355Y2137355D01*
X4469701Y2138460D01*
X4467750Y2138848D01*
X4467106Y2138720D01*
X4429913Y2175913D01*
X4428921Y2176576D01*
X4427750Y2176809D01*
X4427750Y2176809D01*
X4404490D01*
X4403812Y2178079D01*
X4404460Y2179049D01*
X4404848Y2181000D01*
X4404460Y2182951D01*
X4403355Y2184605D01*
X4403255Y2184671D01*
X4403641Y2185941D01*
X4412280D01*
X4412645Y2185395D01*
X4414299Y2184290D01*
X4416250Y2183902D01*
X4418201Y2184290D01*
X4419855Y2185395D01*
X4420960Y2187049D01*
X4421348Y2189000D01*
X4420960Y2190951D01*
X4419855Y2192605D01*
X4418201Y2193710D01*
X4416250Y2194098D01*
X4414299Y2193710D01*
X4412645Y2192605D01*
X4412280Y2192059D01*
X4403641D01*
X4403255Y2193329D01*
X4403355Y2193395D01*
X4404460Y2195049D01*
X4404848Y2197000D01*
X4404460Y2198951D01*
X4403355Y2200605D01*
X4403255Y2200671D01*
X4403641Y2201941D01*
X4412280D01*
X4412645Y2201395D01*
X4414299Y2200290D01*
X4416250Y2199902D01*
X4418201Y2200290D01*
X4419855Y2201395D01*
X4420960Y2203049D01*
X4421348Y2205000D01*
X4420960Y2206951D01*
X4419855Y2208605D01*
X4418201Y2209710D01*
X4416250Y2210098D01*
X4414299Y2209710D01*
X4412645Y2208605D01*
X4412280Y2208059D01*
X4403641D01*
X4403255Y2209329D01*
X4403355Y2209395D01*
X4404460Y2211049D01*
X4404848Y2213000D01*
X4404460Y2214951D01*
X4403355Y2216605D01*
X4403255Y2216671D01*
X4403641Y2217941D01*
X4412280D01*
X4412645Y2217395D01*
X4414299Y2216290D01*
X4416250Y2215902D01*
X4418201Y2216290D01*
X4419855Y2217395D01*
X4420960Y2219049D01*
X4421348Y2221000D01*
X4420960Y2222951D01*
X4419855Y2224605D01*
X4418201Y2225710D01*
X4416250Y2226098D01*
X4414299Y2225710D01*
X4412645Y2224605D01*
X4412280Y2224059D01*
X4403641D01*
X4403255Y2225329D01*
X4403355Y2225395D01*
X4404460Y2227049D01*
X4404848Y2229000D01*
X4404460Y2230951D01*
X4403355Y2232605D01*
X4403255Y2232671D01*
X4403641Y2233941D01*
X4412280D01*
X4412645Y2233395D01*
X4414299Y2232290D01*
X4416250Y2231902D01*
X4418201Y2232290D01*
X4419855Y2233395D01*
X4420960Y2235049D01*
X4421348Y2237000D01*
X4420960Y2238951D01*
X4419855Y2240605D01*
X4418201Y2241710D01*
X4416250Y2242098D01*
X4414299Y2241710D01*
X4412645Y2240605D01*
X4412280Y2240059D01*
X4403641D01*
X4403255Y2241329D01*
X4403355Y2241395D01*
X4404460Y2243049D01*
X4404848Y2245000D01*
X4404460Y2246951D01*
X4403355Y2248605D01*
X4403255Y2248671D01*
X4403641Y2249941D01*
X4412280D01*
X4412645Y2249395D01*
X4414299Y2248290D01*
X4416250Y2247902D01*
X4418201Y2248290D01*
X4419855Y2249395D01*
X4420960Y2251049D01*
X4421348Y2253000D01*
X4420960Y2254951D01*
X4419855Y2256605D01*
X4418201Y2257710D01*
X4416413Y2258065D01*
X4415623Y2259170D01*
X4415710Y2259299D01*
X4416098Y2261250D01*
X4415710Y2263201D01*
X4415117Y2264088D01*
X4415201Y2264290D01*
X4416855Y2265395D01*
X4417960Y2267049D01*
X4418348Y2269000D01*
X4417960Y2270951D01*
X4416855Y2272605D01*
X4415201Y2273710D01*
X4413250Y2274098D01*
X4411299Y2273710D01*
X4410376Y2273093D01*
X4408965Y2273677D01*
X4408960Y2273701D01*
X4407855Y2275355D01*
X4406201Y2276460D01*
X4404250Y2276848D01*
X4403445Y2277983D01*
X4403598Y2278750D01*
X4403210Y2280701D01*
X4402105Y2282355D01*
X4400451Y2283460D01*
X4398500Y2283848D01*
X4396549Y2283460D01*
X4394895Y2282355D01*
X4393790Y2280701D01*
X4393402Y2278750D01*
X4392750Y2278150D01*
X4392098Y2278750D01*
X4391710Y2280701D01*
X4390605Y2282355D01*
X4388951Y2283460D01*
X4387000Y2283848D01*
X4385049Y2283460D01*
X4383395Y2282355D01*
X4382290Y2280701D01*
X4381902Y2278750D01*
X4382055Y2277983D01*
X4381250Y2276848D01*
X4379299Y2276460D01*
X4377645Y2275355D01*
X4376540Y2273701D01*
X4376152Y2271750D01*
X4376540Y2269799D01*
X4377645Y2268145D01*
X4379299Y2267040D01*
X4381250Y2266652D01*
X4383201Y2267040D01*
X4384855Y2268145D01*
X4385960Y2269799D01*
X4386348Y2271750D01*
X4387000Y2272350D01*
X4387652Y2271750D01*
X4388040Y2269799D01*
X4389145Y2268145D01*
X4390799Y2267040D01*
X4392750Y2266652D01*
X4394701Y2267040D01*
X4396355Y2268145D01*
X4397460Y2269799D01*
X4397848Y2271750D01*
X4398500Y2272350D01*
X4399152Y2271750D01*
X4399540Y2269799D01*
X4400645Y2268145D01*
X4402299Y2267040D01*
X4404250Y2266652D01*
X4406201Y2267040D01*
X4407124Y2267657D01*
X4408535Y2267073D01*
X4408540Y2267049D01*
X4409133Y2266162D01*
X4409049Y2265960D01*
X4407395Y2264855D01*
X4406290Y2263201D01*
X4405902Y2261250D01*
X4406290Y2259299D01*
X4407395Y2257645D01*
X4407869Y2257329D01*
X4407484Y2256059D01*
X4388500D01*
X4388500Y2256059D01*
X4387329Y2255826D01*
X4386337Y2255163D01*
X4379483Y2248309D01*
X4361091D01*
X4360728Y2249579D01*
X4361710Y2251049D01*
X4362098Y2253000D01*
X4361710Y2254951D01*
X4360605Y2256605D01*
X4358951Y2257710D01*
X4357000Y2258098D01*
X4355049Y2257710D01*
X4353395Y2256605D01*
X4352290Y2254951D01*
X4351902Y2253000D01*
X4352290Y2251049D01*
X4353272Y2249579D01*
X4352909Y2248309D01*
X4342517D01*
X4335663Y2255163D01*
X4334670Y2255826D01*
X4333500Y2256059D01*
X4333500Y2256059D01*
X4331891D01*
X4331505Y2257329D01*
X4331605Y2257395D01*
X4332710Y2259049D01*
X4333098Y2261000D01*
X4332710Y2262951D01*
X4331605Y2264605D01*
X4329951Y2265710D01*
X4328000Y2266098D01*
X4326049Y2265710D01*
X4324395Y2264605D01*
X4323290Y2262951D01*
X4322902Y2261000D01*
X4323290Y2259049D01*
X4324395Y2257395D01*
X4324495Y2257329D01*
X4324109Y2256059D01*
X4265970D01*
X4265605Y2256605D01*
X4263951Y2257710D01*
X4262000Y2258098D01*
X4260049Y2257710D01*
X4258395Y2256605D01*
X4257290Y2254951D01*
X4256902Y2253000D01*
X4257290Y2251049D01*
X4258395Y2249395D01*
X4258495Y2249329D01*
X4258109Y2248059D01*
X4246250D01*
X4246250Y2248059D01*
X4245080Y2247826D01*
X4244087Y2247163D01*
X4239233Y2242309D01*
X4230627D01*
X4229815Y2243579D01*
X4230098Y2245000D01*
X4229710Y2246951D01*
X4228605Y2248605D01*
X4226951Y2249710D01*
X4225000Y2250098D01*
X4223049Y2249710D01*
X4221395Y2248605D01*
X4220290Y2246951D01*
X4219902Y2245000D01*
X4220185Y2243579D01*
X4219374Y2242309D01*
X4190017D01*
X4187970Y2244356D01*
X4188098Y2245000D01*
X4187710Y2246951D01*
X4186605Y2248605D01*
X4184951Y2249710D01*
X4183000Y2250098D01*
X4181049Y2249710D01*
X4179773Y2248857D01*
X4178857Y2249773D01*
X4179710Y2251049D01*
X4180098Y2253000D01*
X4179710Y2254951D01*
X4178605Y2256605D01*
X4178505Y2256671D01*
X4178891Y2257941D01*
X4221030D01*
X4221395Y2257395D01*
X4223049Y2256290D01*
X4225000Y2255902D01*
X4226951Y2256290D01*
X4228605Y2257395D01*
X4229710Y2259049D01*
X4230098Y2261000D01*
X4229710Y2262951D01*
X4228727Y2264421D01*
X4229091Y2265691D01*
X4272000D01*
X4272000Y2265691D01*
X4273170Y2265924D01*
X4274163Y2266587D01*
X4335163Y2327587D01*
X4335163Y2327587D01*
X4335826Y2328579D01*
X4336059Y2329750D01*
X4336059Y2329750D01*
Y2369233D01*
X4355017Y2388191D01*
X4404846D01*
X4405575Y2387150D01*
X4405534Y2386921D01*
X4405152Y2385000D01*
X4405280Y2384356D01*
X4391837Y2370913D01*
X4391174Y2369921D01*
X4390941Y2368750D01*
X4390941Y2368750D01*
Y2352970D01*
X4390395Y2352605D01*
X4389290Y2350951D01*
X4388902Y2349000D01*
X4389290Y2347049D01*
X4390395Y2345395D01*
X4392049Y2344290D01*
X4394000Y2343902D01*
X4395951Y2344290D01*
X4397605Y2345395D01*
X4398710Y2347049D01*
X4398803Y2347516D01*
X4400098D01*
X4400290Y2346549D01*
X4401395Y2344895D01*
X4403049Y2343790D01*
X4405000Y2343402D01*
X4406951Y2343790D01*
X4408605Y2344895D01*
X4409710Y2346549D01*
X4410098Y2348500D01*
X4409710Y2350451D01*
X4408605Y2352105D01*
X4408059Y2352470D01*
Y2366733D01*
X4412811Y2371485D01*
X4413876Y2371163D01*
X4414092Y2370971D01*
X4415145Y2369395D01*
X4416799Y2368290D01*
X4418750Y2367902D01*
X4420701Y2368290D01*
X4422355Y2369395D01*
X4423460Y2371049D01*
X4423848Y2373000D01*
X4423460Y2374951D01*
X4422355Y2376605D01*
X4421154Y2377407D01*
X4421107Y2378788D01*
X4421511Y2379204D01*
X4423201Y2379540D01*
X4424855Y2380645D01*
X4425960Y2382299D01*
X4426348Y2384250D01*
X4425960Y2386201D01*
X4425479Y2386921D01*
X4426158Y2388191D01*
X4468483D01*
X4480087Y2376587D01*
X4480087Y2376587D01*
X4481079Y2375924D01*
X4482250Y2375691D01*
X4558449D01*
X4559171Y2374975D01*
X4559443Y2374518D01*
X4559598Y2373738D01*
X4560040Y2373076D01*
X4560040Y2373076D01*
X4561558Y2371558D01*
X4562220Y2371116D01*
X4563000Y2370961D01*
X4605226D01*
X4605712Y2369787D01*
X4576483Y2340559D01*
X4509465D01*
X4508894Y2341829D01*
X4509710Y2343049D01*
X4510098Y2345000D01*
X4509710Y2346951D01*
X4508605Y2348605D01*
X4506951Y2349710D01*
X4505000Y2350098D01*
X4503049Y2349710D01*
X4501395Y2348605D01*
X4500290Y2346951D01*
X4499902Y2345000D01*
X4500290Y2343049D01*
X4501106Y2341829D01*
X4500535Y2340559D01*
X4428250D01*
X4428250Y2340559D01*
X4427079Y2340326D01*
X4426087Y2339663D01*
X4423894Y2337470D01*
X4423250Y2337598D01*
X4421299Y2337210D01*
X4419645Y2336105D01*
X4418540Y2334451D01*
X4418152Y2332500D01*
X4418540Y2330549D01*
X4419645Y2328895D01*
X4421299Y2327790D01*
X4423250Y2327402D01*
X4425201Y2327790D01*
X4426855Y2328895D01*
X4427960Y2330549D01*
X4428348Y2332500D01*
X4428220Y2333144D01*
X4429517Y2334441D01*
X4509857D01*
X4510243Y2333171D01*
X4509395Y2332605D01*
X4508290Y2330951D01*
X4507902Y2329000D01*
X4508290Y2327049D01*
X4509143Y2325773D01*
X4508228Y2324857D01*
X4506951Y2325710D01*
X4505000Y2326098D01*
X4503049Y2325710D01*
X4501395Y2324605D01*
X4500290Y2322951D01*
X4499902Y2321000D01*
X4500290Y2319049D01*
X4501395Y2317395D01*
X4503049Y2316290D01*
X4504112Y2316079D01*
X4503987Y2314809D01*
X4430517D01*
X4429220Y2316106D01*
X4429348Y2316750D01*
X4428960Y2318701D01*
X4427855Y2320355D01*
X4426201Y2321460D01*
X4424250Y2321848D01*
X4422299Y2321460D01*
X4420645Y2320355D01*
X4419540Y2318701D01*
X4419152Y2316750D01*
X4419540Y2314799D01*
X4420645Y2313145D01*
X4422299Y2312040D01*
X4424250Y2311652D01*
X4424894Y2311780D01*
X4427087Y2309587D01*
X4428080Y2308924D01*
X4429250Y2308691D01*
X4429250Y2308691D01*
X4461925D01*
X4462604Y2307421D01*
X4462290Y2306951D01*
X4461902Y2305000D01*
X4462290Y2303049D01*
X4463395Y2301395D01*
X4465049Y2300290D01*
X4467000Y2299902D01*
X4468951Y2300290D01*
X4470605Y2301395D01*
X4471710Y2303049D01*
X4472098Y2305000D01*
X4471710Y2306951D01*
X4471396Y2307421D01*
X4472075Y2308691D01*
X4564500D01*
X4564500Y2308691D01*
X4565670Y2308924D01*
X4566663Y2309587D01*
X4630076Y2373000D01*
X4638422D01*
Y2249824D01*
X4637302Y2249225D01*
X4636951Y2249460D01*
X4635000Y2249848D01*
X4633049Y2249460D01*
X4631395Y2248355D01*
X4630290Y2246701D01*
X4629902Y2244750D01*
X4630290Y2242799D01*
X4631395Y2241145D01*
X4633049Y2240040D01*
X4635000Y2239652D01*
X4636951Y2240040D01*
X4637302Y2240274D01*
X4638422Y2239676D01*
Y2238324D01*
X4637302Y2237726D01*
X4636951Y2237960D01*
X4635000Y2238348D01*
X4633049Y2237960D01*
X4631395Y2236855D01*
X4630290Y2235201D01*
X4629902Y2233250D01*
X4630290Y2231299D01*
X4631395Y2229645D01*
X4633049Y2228540D01*
X4635000Y2228152D01*
X4636951Y2228540D01*
X4637302Y2228774D01*
X4638422Y2228176D01*
Y2225824D01*
X4637302Y2225226D01*
X4636951Y2225460D01*
X4635000Y2225848D01*
X4633049Y2225460D01*
X4631395Y2224355D01*
X4630290Y2222701D01*
X4629902Y2220750D01*
X4630290Y2218799D01*
X4631395Y2217145D01*
X4633049Y2216040D01*
X4635000Y2215652D01*
X4636951Y2216040D01*
X4637302Y2216274D01*
X4638422Y2215676D01*
Y2214324D01*
X4637302Y2213725D01*
X4636951Y2213960D01*
X4635000Y2214348D01*
X4633049Y2213960D01*
X4631395Y2212855D01*
X4630290Y2211201D01*
X4629902Y2209250D01*
X4630290Y2207299D01*
X4631395Y2205645D01*
X4633049Y2204540D01*
X4635000Y2204152D01*
X4636951Y2204540D01*
X4637302Y2204774D01*
X4638422Y2204176D01*
Y2194039D01*
X4619000D01*
X4618220Y2193884D01*
X4617558Y2193442D01*
X4565040Y2140924D01*
X4564598Y2140262D01*
X4564443Y2139482D01*
X4564004Y2138794D01*
X4563449Y2138309D01*
X4496267D01*
X4467809Y2166767D01*
Y2186530D01*
X4468355Y2186895D01*
X4469460Y2188549D01*
X4469848Y2190500D01*
X4469460Y2192451D01*
X4468355Y2194105D01*
X4466701Y2195210D01*
X4464750Y2195598D01*
X4462799Y2195210D01*
X4461145Y2194105D01*
X4460040Y2192451D01*
X4459652Y2190500D01*
X4460040Y2188549D01*
X4461145Y2186895D01*
X4461691Y2186530D01*
Y2165500D01*
X4461691Y2165500D01*
X4461924Y2164330D01*
X4462587Y2163337D01*
X4492837Y2133087D01*
X4492837Y2133087D01*
X4493830Y2132424D01*
X4495000Y2132191D01*
X4495000Y2132191D01*
X4554648D01*
X4555134Y2131018D01*
X4533442Y2109326D01*
X4532544Y2110224D01*
X4520134Y2122634D01*
X4518811Y2123518D01*
X4517250Y2123828D01*
X4517250Y2123828D01*
X4443189D01*
X4431932Y2135086D01*
X4431710Y2136201D01*
X4430605Y2137855D01*
X4428951Y2138960D01*
X4427000Y2139348D01*
X4425049Y2138960D01*
X4423395Y2137855D01*
X4422290Y2136201D01*
X4421951Y2134496D01*
X4421190Y2133901D01*
X4420722Y2133672D01*
X4420494Y2133780D01*
X4420460Y2133951D01*
X4419355Y2135605D01*
X4417701Y2136710D01*
X4415750Y2137098D01*
X4413799Y2136710D01*
X4412145Y2135605D01*
X4411040Y2133951D01*
X4410652Y2132000D01*
X4411040Y2130049D01*
X4412145Y2128395D01*
X4413799Y2127290D01*
X4414914Y2127068D01*
X4430866Y2111116D01*
X4430866Y2111116D01*
X4432189Y2110232D01*
X4433750Y2109922D01*
X4511561D01*
X4529685Y2091797D01*
X4529558Y2090265D01*
X4529116Y2089603D01*
X4528961Y2088823D01*
Y2069845D01*
X4435558Y1976442D01*
X4435116Y1975780D01*
X4434961Y1975000D01*
Y1950845D01*
X4430155Y1946039D01*
X4417000D01*
X4416219Y1945884D01*
X4415558Y1945442D01*
X4340558Y1870442D01*
X4340116Y1869780D01*
X4339961Y1869000D01*
Y1795059D01*
X4037790Y1795059D01*
X4037461Y1796285D01*
X4038703Y1797002D01*
X4041823Y1799396D01*
X4044604Y1802177D01*
X4046998Y1805297D01*
X4048964Y1808703D01*
X4050469Y1812336D01*
X4051487Y1816135D01*
X4052000Y1820034D01*
Y1823966D01*
X4051487Y1827865D01*
X4050469Y1831664D01*
X4048964Y1835297D01*
X4046998Y1838703D01*
X4044604Y1841823D01*
X4041823Y1844603D01*
X4038703Y1846998D01*
X4035297Y1848964D01*
X4031664Y1850469D01*
X4027865Y1851487D01*
X4023966Y1852000D01*
X4020034D01*
X4016135Y1851487D01*
X4012336Y1850469D01*
X4008703Y1848964D01*
X4005297Y1846998D01*
X4002177Y1844603D01*
X3999396Y1841823D01*
X3997002Y1838703D01*
X3996285Y1837461D01*
X3995059Y1837790D01*
X3995059Y2746210D01*
X3996285Y2746539D01*
X3997002Y2745297D01*
X3999396Y2742177D01*
X4002177Y2739396D01*
X4005297Y2737002D01*
X4008703Y2735036D01*
X4012336Y2733531D01*
X4016135Y2732513D01*
X4020034Y2732000D01*
X4023966D01*
X4027865Y2732513D01*
X4031664Y2733531D01*
X4035297Y2735036D01*
X4038703Y2737002D01*
X4041823Y2739396D01*
X4044604Y2742177D01*
X4046998Y2745297D01*
X4048964Y2748703D01*
X4050469Y2752336D01*
X4051487Y2756135D01*
X4052000Y2760034D01*
Y2763966D01*
X4051487Y2767865D01*
X4050469Y2771664D01*
X4048964Y2775297D01*
X4046998Y2778703D01*
X4044604Y2781823D01*
X4041823Y2784604D01*
X4038703Y2786998D01*
X4037461Y2787715D01*
X4037790Y2788941D01*
X4586961Y2788941D01*
D02*
G37*
G36*
X4746210Y2788941D02*
X4746539Y2787715D01*
X4745297Y2786998D01*
X4742177Y2784604D01*
X4739396Y2781823D01*
X4737002Y2778703D01*
X4735036Y2775297D01*
X4733531Y2771664D01*
X4732513Y2767865D01*
X4732000Y2763966D01*
Y2760034D01*
X4732513Y2756135D01*
X4733531Y2752336D01*
X4735036Y2748703D01*
X4737002Y2745297D01*
X4739396Y2742177D01*
X4742177Y2739396D01*
X4745297Y2737002D01*
X4748703Y2735036D01*
X4752336Y2733531D01*
X4756135Y2732513D01*
X4760034Y2732000D01*
X4763966D01*
X4767865Y2732513D01*
X4771664Y2733531D01*
X4775297Y2735036D01*
X4778703Y2737002D01*
X4781823Y2739396D01*
X4784604Y2742177D01*
X4786998Y2745297D01*
X4787715Y2746539D01*
X4788941Y2746210D01*
X4788941Y2563309D01*
X4788941Y2562039D01*
X4589000D01*
X4589000Y2562039D01*
Y2565000D01*
X4700750D01*
Y2636500D01*
X4618671D01*
X4617653Y2637770D01*
X4617848Y2638750D01*
X4617460Y2640701D01*
X4616355Y2642355D01*
X4614701Y2643460D01*
X4612750Y2643848D01*
X4610799Y2643460D01*
X4609145Y2642355D01*
X4608040Y2640701D01*
X4607652Y2638750D01*
X4607847Y2637770D01*
X4606829Y2636500D01*
X4589000D01*
Y2788941D01*
X4746210Y2788941D01*
D02*
G37*
G36*
X4413891Y2550639D02*
X4413704Y2550413D01*
X4413539Y2550181D01*
X4413396Y2549942D01*
X4413275Y2549697D01*
X4413176Y2549445D01*
X4413099Y2549187D01*
X4413044Y2548922D01*
X4413011Y2548650D01*
X4413000Y2548372D01*
X4411000D01*
X4410989Y2548650D01*
X4410956Y2548922D01*
X4410901Y2549187D01*
X4410824Y2549445D01*
X4410725Y2549697D01*
X4410604Y2549942D01*
X4410461Y2550181D01*
X4410296Y2550413D01*
X4410109Y2550639D01*
X4409900Y2550858D01*
X4414100D01*
X4413891Y2550639D01*
D02*
G37*
G36*
X4397891D02*
X4397704Y2550413D01*
X4397539Y2550181D01*
X4397396Y2549942D01*
X4397275Y2549697D01*
X4397176Y2549445D01*
X4397099Y2549187D01*
X4397044Y2548922D01*
X4397011Y2548650D01*
X4397000Y2548372D01*
X4395000D01*
X4394989Y2548650D01*
X4394956Y2548922D01*
X4394901Y2549187D01*
X4394824Y2549445D01*
X4394725Y2549697D01*
X4394604Y2549942D01*
X4394461Y2550181D01*
X4394296Y2550413D01*
X4394109Y2550639D01*
X4393900Y2550858D01*
X4398100D01*
X4397891Y2550639D01*
D02*
G37*
G36*
X4378891D02*
X4378704Y2550413D01*
X4378539Y2550181D01*
X4378396Y2549942D01*
X4378275Y2549697D01*
X4378176Y2549445D01*
X4378099Y2549187D01*
X4378044Y2548922D01*
X4378011Y2548650D01*
X4378000Y2548372D01*
X4376000D01*
X4375989Y2548650D01*
X4375956Y2548922D01*
X4375901Y2549187D01*
X4375824Y2549445D01*
X4375725Y2549697D01*
X4375604Y2549942D01*
X4375461Y2550181D01*
X4375296Y2550413D01*
X4375109Y2550639D01*
X4374900Y2550858D01*
X4379100D01*
X4378891Y2550639D01*
D02*
G37*
G36*
X4403970Y2542000D02*
X4403667Y2541993D01*
X4403376Y2541966D01*
X4403095Y2541918D01*
X4402825Y2541851D01*
X4402566Y2541763D01*
X4402318Y2541655D01*
X4402081Y2541526D01*
X4401854Y2541378D01*
X4401639Y2541209D01*
X4401434Y2541020D01*
X4400020Y2542434D01*
X4400209Y2542639D01*
X4400378Y2542854D01*
X4400526Y2543081D01*
X4400655Y2543318D01*
X4400763Y2543566D01*
X4400851Y2543825D01*
X4400918Y2544095D01*
X4400966Y2544376D01*
X4400993Y2544668D01*
X4401000Y2544970D01*
X4403970Y2542000D01*
D02*
G37*
G36*
X4421891Y2542639D02*
X4421704Y2542413D01*
X4421539Y2542181D01*
X4421396Y2541942D01*
X4421275Y2541697D01*
X4421176Y2541445D01*
X4421099Y2541187D01*
X4421044Y2540922D01*
X4421011Y2540650D01*
X4421000Y2540372D01*
X4419000D01*
X4418989Y2540650D01*
X4418956Y2540922D01*
X4418901Y2541187D01*
X4418824Y2541445D01*
X4418725Y2541697D01*
X4418604Y2541942D01*
X4418461Y2542181D01*
X4418296Y2542413D01*
X4418109Y2542639D01*
X4417900Y2542858D01*
X4422100D01*
X4421891Y2542639D01*
D02*
G37*
G36*
X4386891D02*
X4386704Y2542413D01*
X4386539Y2542181D01*
X4386396Y2541942D01*
X4386275Y2541697D01*
X4386176Y2541445D01*
X4386099Y2541187D01*
X4386044Y2540922D01*
X4386011Y2540650D01*
X4386000Y2540372D01*
X4384000D01*
X4383989Y2540650D01*
X4383956Y2540922D01*
X4383901Y2541187D01*
X4383824Y2541445D01*
X4383725Y2541697D01*
X4383604Y2541942D01*
X4383461Y2542181D01*
X4383296Y2542413D01*
X4383109Y2542639D01*
X4382900Y2542858D01*
X4387100D01*
X4386891Y2542639D01*
D02*
G37*
G36*
X4644581Y2443571D02*
X4644564Y2443501D01*
X4644549Y2443396D01*
X4644525Y2443085D01*
X4644501Y2442056D01*
X4644500Y2441714D01*
X4640500D01*
X4640400Y2443608D01*
X4644600D01*
X4644581Y2443571D01*
D02*
G37*
G36*
X4788941Y2402000D02*
X4788950Y2401955D01*
X4788629Y2398692D01*
X4787664Y2395512D01*
X4786097Y2392581D01*
X4783989Y2390011D01*
X4781419Y2387903D01*
X4778488Y2386336D01*
X4775308Y2385371D01*
X4772045Y2385050D01*
X4772000Y2385059D01*
X4737000D01*
X4737000Y2385059D01*
Y2385111D01*
X4732491Y2384667D01*
X4728156Y2383352D01*
X4724160Y2381216D01*
X4720658Y2378342D01*
X4717784Y2374840D01*
X4716800Y2373000D01*
X4646578D01*
Y2442854D01*
X4647210Y2443799D01*
X4647598Y2445750D01*
X4647210Y2447701D01*
X4646105Y2449355D01*
X4644451Y2450460D01*
X4642500Y2450848D01*
X4640549Y2450460D01*
X4638895Y2449355D01*
X4637790Y2447701D01*
X4637402Y2445750D01*
X4637790Y2443799D01*
X4638396Y2442893D01*
X4638422Y2442402D01*
Y2383422D01*
X4637152Y2383036D01*
X4636605Y2383855D01*
X4634951Y2384960D01*
X4633000Y2385348D01*
X4631049Y2384960D01*
X4629395Y2383855D01*
X4628290Y2382201D01*
X4627902Y2380250D01*
X4628030Y2379606D01*
X4625665Y2377241D01*
X4624530Y2377902D01*
X4624848Y2379500D01*
X4624460Y2381451D01*
X4623355Y2383105D01*
X4621701Y2384210D01*
X4619750Y2384598D01*
X4617799Y2384210D01*
X4616145Y2383105D01*
X4615040Y2381451D01*
X4614652Y2379500D01*
X4614780Y2378856D01*
X4608924Y2373000D01*
X4563000D01*
X4561482Y2374518D01*
X4561968Y2375691D01*
X4594500D01*
X4594500Y2375691D01*
X4595670Y2375924D01*
X4596663Y2376587D01*
X4612356Y2392280D01*
X4613000Y2392152D01*
X4614951Y2392540D01*
X4616605Y2393645D01*
X4617710Y2395299D01*
X4618098Y2397250D01*
X4617710Y2399201D01*
X4616605Y2400855D01*
X4614951Y2401960D01*
X4613000Y2402348D01*
X4611049Y2401960D01*
X4609395Y2400855D01*
X4608290Y2399201D01*
X4607902Y2397250D01*
X4608030Y2396606D01*
X4605258Y2393834D01*
X4604272Y2394644D01*
X4604710Y2395299D01*
X4605098Y2397250D01*
X4604710Y2399201D01*
X4603605Y2400855D01*
X4601951Y2401960D01*
X4600000Y2402348D01*
X4598049Y2401960D01*
X4596395Y2400855D01*
X4595290Y2399201D01*
X4594902Y2397250D01*
X4595290Y2395299D01*
X4596395Y2393645D01*
X4598049Y2392540D01*
X4600000Y2392152D01*
X4601951Y2392540D01*
X4602606Y2392978D01*
X4603416Y2391991D01*
X4593233Y2381809D01*
X4554191D01*
X4540000Y2396000D01*
Y2511000D01*
X4589000Y2560000D01*
X4788941D01*
X4788941Y2402000D01*
D02*
G37*
G36*
X4012361Y2307891D02*
X4012587Y2307704D01*
X4012819Y2307539D01*
X4013058Y2307396D01*
X4013303Y2307275D01*
X4013555Y2307176D01*
X4013813Y2307099D01*
X4014078Y2307044D01*
X4014350Y2307011D01*
X4014628Y2307000D01*
Y2305000D01*
X4014350Y2304989D01*
X4014078Y2304956D01*
X4013813Y2304901D01*
X4013555Y2304824D01*
X4013303Y2304725D01*
X4013058Y2304604D01*
X4012819Y2304461D01*
X4012587Y2304296D01*
X4012361Y2304109D01*
X4012142Y2303900D01*
Y2308100D01*
X4012361Y2307891D01*
D02*
G37*
G36*
X4317858Y2242900D02*
X4317639Y2243109D01*
X4317413Y2243296D01*
X4317181Y2243461D01*
X4316942Y2243604D01*
X4316697Y2243725D01*
X4316445Y2243824D01*
X4316187Y2243901D01*
X4315922Y2243956D01*
X4315650Y2243989D01*
X4315372Y2244000D01*
Y2246000D01*
X4315650Y2246011D01*
X4315922Y2246044D01*
X4316187Y2246099D01*
X4316445Y2246176D01*
X4316697Y2246275D01*
X4316942Y2246396D01*
X4317181Y2246539D01*
X4317413Y2246704D01*
X4317639Y2246891D01*
X4317858Y2247100D01*
Y2242900D01*
D02*
G37*
G36*
X4264361Y2238891D02*
X4264587Y2238704D01*
X4264819Y2238539D01*
X4265058Y2238396D01*
X4265303Y2238275D01*
X4265555Y2238176D01*
X4265813Y2238099D01*
X4266078Y2238044D01*
X4266350Y2238011D01*
X4266628Y2238000D01*
Y2236000D01*
X4266350Y2235989D01*
X4266078Y2235956D01*
X4265813Y2235901D01*
X4265555Y2235824D01*
X4265303Y2235725D01*
X4265058Y2235604D01*
X4264819Y2235461D01*
X4264587Y2235296D01*
X4264361Y2235109D01*
X4264142Y2234900D01*
Y2239100D01*
X4264361Y2238891D01*
D02*
G37*
G36*
X4259857Y2234900D02*
X4259639Y2235109D01*
X4259413Y2235296D01*
X4259181Y2235461D01*
X4258942Y2235604D01*
X4258697Y2235725D01*
X4258445Y2235824D01*
X4258187Y2235901D01*
X4257921Y2235956D01*
X4257650Y2235989D01*
X4257372Y2236000D01*
Y2238000D01*
X4257650Y2238011D01*
X4257921Y2238044D01*
X4258187Y2238099D01*
X4258445Y2238176D01*
X4258697Y2238275D01*
X4258942Y2238396D01*
X4259181Y2238539D01*
X4259413Y2238704D01*
X4259639Y2238891D01*
X4259857Y2239100D01*
Y2234900D01*
D02*
G37*
G36*
X4317858Y2226900D02*
X4317639Y2227109D01*
X4317413Y2227296D01*
X4317181Y2227461D01*
X4316942Y2227604D01*
X4316697Y2227725D01*
X4316445Y2227824D01*
X4316187Y2227901D01*
X4315922Y2227956D01*
X4315650Y2227989D01*
X4315372Y2228000D01*
Y2230000D01*
X4315650Y2230011D01*
X4315922Y2230044D01*
X4316187Y2230099D01*
X4316445Y2230176D01*
X4316697Y2230275D01*
X4316942Y2230396D01*
X4317181Y2230539D01*
X4317413Y2230704D01*
X4317639Y2230891D01*
X4317858Y2231100D01*
Y2226900D01*
D02*
G37*
G36*
X4264361Y2222891D02*
X4264587Y2222704D01*
X4264819Y2222539D01*
X4265058Y2222396D01*
X4265303Y2222275D01*
X4265555Y2222176D01*
X4265813Y2222099D01*
X4266078Y2222044D01*
X4266350Y2222011D01*
X4266628Y2222000D01*
Y2220000D01*
X4266350Y2219989D01*
X4266078Y2219956D01*
X4265813Y2219901D01*
X4265555Y2219824D01*
X4265303Y2219725D01*
X4265058Y2219604D01*
X4264819Y2219461D01*
X4264587Y2219296D01*
X4264361Y2219109D01*
X4264142Y2218900D01*
Y2223100D01*
X4264361Y2222891D01*
D02*
G37*
G36*
X4317858Y2210900D02*
X4317639Y2211109D01*
X4317413Y2211296D01*
X4317181Y2211461D01*
X4316942Y2211604D01*
X4316697Y2211725D01*
X4316445Y2211824D01*
X4316187Y2211901D01*
X4315922Y2211956D01*
X4315650Y2211989D01*
X4315372Y2212000D01*
Y2214000D01*
X4315650Y2214011D01*
X4315922Y2214044D01*
X4316187Y2214099D01*
X4316445Y2214176D01*
X4316697Y2214275D01*
X4316942Y2214396D01*
X4317181Y2214539D01*
X4317413Y2214704D01*
X4317639Y2214891D01*
X4317858Y2215100D01*
Y2210900D01*
D02*
G37*
G36*
X4264361Y2206891D02*
X4264587Y2206704D01*
X4264819Y2206539D01*
X4265058Y2206396D01*
X4265303Y2206275D01*
X4265555Y2206176D01*
X4265813Y2206099D01*
X4266078Y2206044D01*
X4266350Y2206011D01*
X4266628Y2206000D01*
Y2204000D01*
X4266350Y2203989D01*
X4266078Y2203956D01*
X4265813Y2203901D01*
X4265555Y2203824D01*
X4265303Y2203725D01*
X4265058Y2203604D01*
X4264819Y2203461D01*
X4264587Y2203296D01*
X4264361Y2203109D01*
X4264142Y2202900D01*
Y2207100D01*
X4264361Y2206891D01*
D02*
G37*
G36*
X4317858Y2194900D02*
X4317639Y2195109D01*
X4317413Y2195296D01*
X4317181Y2195461D01*
X4316942Y2195604D01*
X4316697Y2195725D01*
X4316445Y2195824D01*
X4316187Y2195901D01*
X4315922Y2195956D01*
X4315650Y2195989D01*
X4315372Y2196000D01*
Y2198000D01*
X4315650Y2198011D01*
X4315922Y2198044D01*
X4316187Y2198099D01*
X4316445Y2198176D01*
X4316697Y2198275D01*
X4316942Y2198396D01*
X4317181Y2198539D01*
X4317413Y2198704D01*
X4317639Y2198891D01*
X4317858Y2199100D01*
Y2194900D01*
D02*
G37*
G36*
X4264361Y2190891D02*
X4264587Y2190704D01*
X4264819Y2190539D01*
X4265058Y2190396D01*
X4265303Y2190275D01*
X4265555Y2190176D01*
X4265813Y2190099D01*
X4266078Y2190044D01*
X4266350Y2190011D01*
X4266628Y2190000D01*
Y2188000D01*
X4266350Y2187989D01*
X4266078Y2187956D01*
X4265813Y2187901D01*
X4265555Y2187824D01*
X4265303Y2187725D01*
X4265058Y2187604D01*
X4264819Y2187461D01*
X4264587Y2187296D01*
X4264361Y2187109D01*
X4264142Y2186900D01*
Y2191100D01*
X4264361Y2190891D01*
D02*
G37*
G36*
X4728156Y2190648D02*
X4732491Y2189333D01*
X4737000Y2188889D01*
Y2188941D01*
X4737000Y2188941D01*
X4772000D01*
X4772045Y2188950D01*
X4775308Y2188629D01*
X4778488Y2187664D01*
X4781419Y2186097D01*
X4783989Y2183989D01*
X4786097Y2181420D01*
X4787664Y2178488D01*
X4788629Y2175308D01*
X4788950Y2172045D01*
X4788941Y2172000D01*
X4788941Y1837790D01*
X4787715Y1837461D01*
X4786998Y1838703D01*
X4784604Y1841823D01*
X4781823Y1844603D01*
X4778703Y1846998D01*
X4775297Y1848964D01*
X4771664Y1850469D01*
X4767865Y1851487D01*
X4763966Y1852000D01*
X4760034D01*
X4756135Y1851487D01*
X4752336Y1850469D01*
X4748703Y1848964D01*
X4745297Y1846998D01*
X4742177Y1844603D01*
X4739396Y1841823D01*
X4737002Y1838703D01*
X4735036Y1835297D01*
X4733531Y1831664D01*
X4732513Y1827865D01*
X4732000Y1823966D01*
Y1820034D01*
X4732513Y1816135D01*
X4733531Y1812336D01*
X4735036Y1808703D01*
X4737002Y1805297D01*
X4739396Y1802177D01*
X4742177Y1799396D01*
X4745297Y1797002D01*
X4746539Y1796285D01*
X4746210Y1795059D01*
X4342000Y1795059D01*
Y1869000D01*
X4417000Y1944000D01*
X4431000D01*
X4437000Y1950000D01*
Y1975000D01*
X4531000Y2069000D01*
Y2088823D01*
X4532173Y2089309D01*
X4566866Y2054616D01*
X4566866Y2054616D01*
X4568189Y2053732D01*
X4569750Y2053422D01*
X4590811D01*
X4625568Y2018664D01*
X4625790Y2017549D01*
X4626895Y2015895D01*
X4628549Y2014790D01*
X4630500Y2014402D01*
X4632451Y2014790D01*
X4634105Y2015895D01*
X4635210Y2017549D01*
X4635598Y2019500D01*
X4635210Y2021451D01*
X4634105Y2023105D01*
X4632451Y2024210D01*
X4631336Y2024432D01*
X4596616Y2059152D01*
X4597142Y2060422D01*
X4607310D01*
X4647068Y2020664D01*
X4647290Y2019549D01*
X4648395Y2017895D01*
X4650049Y2016790D01*
X4652000Y2016402D01*
X4653951Y2016790D01*
X4655605Y2017895D01*
X4656710Y2019549D01*
X4657098Y2021500D01*
X4656710Y2023451D01*
X4655605Y2025105D01*
X4653951Y2026210D01*
X4652836Y2026432D01*
X4611884Y2067384D01*
X4610561Y2068268D01*
X4609000Y2068578D01*
X4609000Y2068578D01*
X4574189D01*
X4534884Y2107884D01*
X4559191Y2132191D01*
X4567233D01*
X4569169Y2130255D01*
X4568359Y2129269D01*
X4566951Y2130210D01*
X4565000Y2130598D01*
X4563049Y2130210D01*
X4561395Y2129105D01*
X4560290Y2127451D01*
X4559902Y2125500D01*
X4560290Y2123549D01*
X4561395Y2121895D01*
X4561432Y2121871D01*
X4561448Y2121819D01*
X4561724Y2120804D01*
X4561805Y2120640D01*
X4562065Y2119784D01*
X4563445Y2117202D01*
X4565262Y2114989D01*
X4565298Y2114934D01*
X4577068Y2103164D01*
X4577290Y2102049D01*
X4578395Y2100395D01*
X4580049Y2099290D01*
X4582000Y2098902D01*
X4583951Y2099290D01*
X4584896Y2099922D01*
X4629171D01*
Y2076250D01*
X4629171Y2076250D01*
X4629482Y2074689D01*
X4630366Y2073366D01*
X4635068Y2068664D01*
X4635290Y2067549D01*
X4636395Y2065895D01*
X4638049Y2064790D01*
X4640000Y2064402D01*
X4641951Y2064790D01*
X4643605Y2065895D01*
X4644710Y2067549D01*
X4645098Y2069500D01*
X4644710Y2071451D01*
X4643605Y2073105D01*
X4641951Y2074210D01*
X4640836Y2074432D01*
X4637328Y2077939D01*
Y2131130D01*
X4638598Y2131509D01*
X4640049Y2130540D01*
X4642000Y2130152D01*
X4643951Y2130540D01*
X4645605Y2131645D01*
X4646710Y2133299D01*
X4647098Y2135250D01*
X4646710Y2137201D01*
X4645605Y2138855D01*
X4643951Y2139960D01*
X4642000Y2140348D01*
X4640049Y2139960D01*
X4638598Y2138990D01*
X4637328Y2139370D01*
Y2168311D01*
X4645384Y2176366D01*
X4645384Y2176366D01*
X4646268Y2177689D01*
X4646578Y2179250D01*
X4646578Y2179250D01*
Y2192000D01*
X4687600D01*
X4688406Y2191018D01*
X4688402Y2191000D01*
X4688790Y2189049D01*
X4689895Y2187395D01*
X4691549Y2186290D01*
X4693500Y2185902D01*
X4695451Y2186290D01*
X4697105Y2187395D01*
X4698210Y2189049D01*
X4698598Y2191000D01*
X4698594Y2191018D01*
X4699400Y2192000D01*
X4725626D01*
X4728156Y2190648D01*
D02*
G37*
G36*
X4083761Y2145600D02*
X4083794Y2145329D01*
X4083849Y2145063D01*
X4083926Y2144805D01*
X4084025Y2144553D01*
X4084146Y2144308D01*
X4084289Y2144069D01*
X4084454Y2143837D01*
X4084641Y2143611D01*
X4084850Y2143392D01*
X4080650D01*
X4080859Y2143611D01*
X4081046Y2143837D01*
X4081211Y2144069D01*
X4081354Y2144308D01*
X4081475Y2144553D01*
X4081574Y2144805D01*
X4081651Y2145063D01*
X4081706Y2145329D01*
X4081739Y2145600D01*
X4081750Y2145878D01*
X4083750D01*
X4083761Y2145600D01*
D02*
G37*
G36*
X4430012Y2134181D02*
X4430050Y2134119D01*
X4430114Y2134034D01*
X4430316Y2133798D01*
X4431027Y2133053D01*
X4431268Y2132810D01*
X4428440Y2129982D01*
X4427030Y2131250D01*
X4430000Y2134220D01*
X4430012Y2134181D01*
D02*
G37*
G36*
X4078389Y2128541D02*
X4078604Y2128372D01*
X4078831Y2128224D01*
X4079068Y2128095D01*
X4079316Y2127987D01*
X4079575Y2127899D01*
X4079845Y2127832D01*
X4080126Y2127784D01*
X4080417Y2127757D01*
X4080720Y2127750D01*
X4077750Y2124780D01*
X4077743Y2125083D01*
X4077716Y2125374D01*
X4077668Y2125655D01*
X4077601Y2125925D01*
X4077513Y2126184D01*
X4077405Y2126432D01*
X4077276Y2126669D01*
X4077128Y2126896D01*
X4076959Y2127111D01*
X4076770Y2127316D01*
X4078184Y2128730D01*
X4078389Y2128541D01*
D02*
G37*
G36*
X4567332Y2123587D02*
X4567308Y2123482D01*
X4567303Y2123354D01*
X4567317Y2123202D01*
X4567351Y2123026D01*
X4567404Y2122827D01*
X4567477Y2122604D01*
X4567681Y2122087D01*
X4567812Y2121793D01*
X4563691Y2121339D01*
X4563216Y2123088D01*
X4567376Y2123668D01*
X4567332Y2123587D01*
D02*
G37*
G36*
X4638422Y2180939D02*
X4630366Y2172884D01*
X4629482Y2171561D01*
X4629171Y2170000D01*
X4629171Y2170000D01*
Y2108078D01*
X4584896D01*
X4583951Y2108710D01*
X4582836Y2108932D01*
X4571066Y2120702D01*
X4571041Y2120718D01*
X4569979Y2122103D01*
X4569506Y2123244D01*
X4569710Y2123549D01*
X4570098Y2125500D01*
X4569710Y2127451D01*
X4568769Y2128860D01*
X4569755Y2129669D01*
X4580285Y2119139D01*
X4580285Y2119139D01*
X4581277Y2118476D01*
X4582448Y2118243D01*
X4582448Y2118243D01*
X4593156D01*
X4593520Y2117697D01*
X4595174Y2116592D01*
X4597125Y2116204D01*
X4599076Y2116592D01*
X4600730Y2117697D01*
X4601835Y2119351D01*
X4602223Y2121302D01*
X4601835Y2123253D01*
X4600730Y2124907D01*
X4599076Y2126012D01*
X4597125Y2126400D01*
X4595174Y2126012D01*
X4593520Y2124907D01*
X4593156Y2124361D01*
X4583715D01*
X4570663Y2137413D01*
X4569670Y2138076D01*
X4568500Y2138309D01*
X4568500Y2138309D01*
X4566968D01*
X4566482Y2139482D01*
X4619000Y2192000D01*
X4638422D01*
Y2180939D01*
D02*
G37*
%LPC*%
G36*
X4454850Y2723704D02*
Y2713700D01*
X4464854D01*
X4464606Y2715582D01*
X4463493Y2718268D01*
X4461724Y2720574D01*
X4459418Y2722343D01*
X4456732Y2723456D01*
X4454850Y2723704D01*
D02*
G37*
G36*
X4452850Y2723704D02*
X4450968Y2723456D01*
X4448282Y2722343D01*
X4445976Y2720574D01*
X4444207Y2718268D01*
X4443094Y2715582D01*
X4442846Y2713700D01*
X4452850D01*
Y2723704D01*
D02*
G37*
G36*
X4504650Y2723291D02*
X4501909Y2722930D01*
X4499355Y2721872D01*
X4497161Y2720189D01*
X4495478Y2717995D01*
X4494420Y2715441D01*
X4494059Y2712700D01*
X4494420Y2709959D01*
X4495478Y2707405D01*
X4497161Y2705211D01*
X4499355Y2703528D01*
X4501909Y2702470D01*
X4504650Y2702109D01*
X4507391Y2702470D01*
X4509945Y2703528D01*
X4512139Y2705211D01*
X4513822Y2707405D01*
X4514880Y2709959D01*
X4515240Y2712700D01*
X4514880Y2715441D01*
X4513822Y2717995D01*
X4512139Y2720189D01*
X4509945Y2721872D01*
X4507391Y2722930D01*
X4504650Y2723291D01*
D02*
G37*
G36*
X4479250D02*
X4476509Y2722930D01*
X4473955Y2721872D01*
X4471761Y2720189D01*
X4470078Y2717995D01*
X4469020Y2715441D01*
X4468659Y2712700D01*
X4469020Y2709959D01*
X4470078Y2707405D01*
X4471761Y2705211D01*
X4473955Y2703528D01*
X4476509Y2702470D01*
X4479250Y2702109D01*
X4481991Y2702470D01*
X4484545Y2703528D01*
X4486739Y2705211D01*
X4488422Y2707405D01*
X4489480Y2709959D01*
X4489841Y2712700D01*
X4489480Y2715441D01*
X4488422Y2717995D01*
X4486739Y2720189D01*
X4484545Y2721872D01*
X4481991Y2722930D01*
X4479250Y2723291D01*
D02*
G37*
G36*
X4464854Y2711700D02*
X4454850D01*
Y2701696D01*
X4456732Y2701944D01*
X4459418Y2703057D01*
X4461724Y2704826D01*
X4463493Y2707132D01*
X4464606Y2709818D01*
X4464854Y2711700D01*
D02*
G37*
G36*
X4452850D02*
X4442846D01*
X4443094Y2709818D01*
X4444207Y2707132D01*
X4445976Y2704826D01*
X4448282Y2703057D01*
X4450968Y2701944D01*
X4452850Y2701696D01*
Y2711700D01*
D02*
G37*
G36*
X4504650Y2697891D02*
X4501909Y2697530D01*
X4499355Y2696472D01*
X4497161Y2694789D01*
X4495478Y2692595D01*
X4494420Y2690041D01*
X4494059Y2687300D01*
X4494420Y2684559D01*
X4495478Y2682005D01*
X4497161Y2679811D01*
X4499355Y2678128D01*
X4501909Y2677070D01*
X4504650Y2676709D01*
X4507391Y2677070D01*
X4509945Y2678128D01*
X4512139Y2679811D01*
X4513822Y2682005D01*
X4514880Y2684559D01*
X4515240Y2687300D01*
X4514880Y2690041D01*
X4513822Y2692595D01*
X4512139Y2694789D01*
X4509945Y2696472D01*
X4507391Y2697530D01*
X4504650Y2697891D01*
D02*
G37*
G36*
X4479250D02*
X4476509Y2697530D01*
X4473955Y2696472D01*
X4471761Y2694789D01*
X4470078Y2692595D01*
X4469020Y2690041D01*
X4468659Y2687300D01*
X4469020Y2684559D01*
X4470078Y2682005D01*
X4471761Y2679811D01*
X4473955Y2678128D01*
X4476509Y2677070D01*
X4479250Y2676709D01*
X4481991Y2677070D01*
X4484545Y2678128D01*
X4486739Y2679811D01*
X4488422Y2682005D01*
X4489480Y2684559D01*
X4489841Y2687300D01*
X4489480Y2690041D01*
X4488422Y2692595D01*
X4486739Y2694789D01*
X4484545Y2696472D01*
X4481991Y2697530D01*
X4479250Y2697891D01*
D02*
G37*
G36*
X4453850D02*
X4451109Y2697530D01*
X4448555Y2696472D01*
X4446361Y2694789D01*
X4444678Y2692595D01*
X4443620Y2690041D01*
X4443259Y2687300D01*
X4443620Y2684559D01*
X4444678Y2682005D01*
X4446361Y2679811D01*
X4448555Y2678128D01*
X4451109Y2677070D01*
X4453850Y2676709D01*
X4456591Y2677070D01*
X4459145Y2678128D01*
X4461339Y2679811D01*
X4463022Y2682005D01*
X4464080Y2684559D01*
X4464441Y2687300D01*
X4464080Y2690041D01*
X4463022Y2692595D01*
X4461339Y2694789D01*
X4459145Y2696472D01*
X4456591Y2697530D01*
X4453850Y2697891D01*
D02*
G37*
G36*
X4220000Y2686098D02*
X4218049Y2685710D01*
X4216395Y2684605D01*
X4215290Y2682951D01*
X4214902Y2681000D01*
X4215290Y2679049D01*
X4216395Y2677395D01*
X4218049Y2676290D01*
X4220000Y2675902D01*
X4221951Y2676290D01*
X4223605Y2677395D01*
X4224710Y2679049D01*
X4225098Y2681000D01*
X4224710Y2682951D01*
X4223605Y2684605D01*
X4221951Y2685710D01*
X4220000Y2686098D01*
D02*
G37*
G36*
X4158000Y2699598D02*
X4156049Y2699210D01*
X4154395Y2698105D01*
X4153290Y2696451D01*
X4152902Y2694500D01*
X4153290Y2692549D01*
X4154395Y2690895D01*
X4156049Y2689790D01*
X4156766Y2689648D01*
Y2688353D01*
X4156049Y2688210D01*
X4154395Y2687105D01*
X4153290Y2685451D01*
X4152902Y2683500D01*
X4153290Y2681549D01*
X4154395Y2679895D01*
X4156049Y2678790D01*
X4156766Y2678647D01*
Y2677353D01*
X4156049Y2677210D01*
X4154395Y2676105D01*
X4153290Y2674451D01*
X4152902Y2672500D01*
X4153290Y2670549D01*
X4154395Y2668895D01*
X4156049Y2667790D01*
X4158000Y2667402D01*
X4159951Y2667790D01*
X4161605Y2668895D01*
X4162710Y2670549D01*
X4163098Y2672500D01*
X4162710Y2674451D01*
X4161605Y2676105D01*
X4159951Y2677210D01*
X4159234Y2677353D01*
Y2678647D01*
X4159951Y2678790D01*
X4161605Y2679895D01*
X4162710Y2681549D01*
X4163098Y2683500D01*
X4162710Y2685451D01*
X4161605Y2687105D01*
X4159951Y2688210D01*
X4159234Y2688353D01*
Y2689648D01*
X4159951Y2689790D01*
X4161605Y2690895D01*
X4162710Y2692549D01*
X4163098Y2694500D01*
X4162710Y2696451D01*
X4161605Y2698105D01*
X4159951Y2699210D01*
X4158000Y2699598D01*
D02*
G37*
G36*
X4452000Y2667098D02*
X4450049Y2666710D01*
X4448395Y2665605D01*
X4447290Y2663951D01*
X4446902Y2662000D01*
X4447290Y2660049D01*
X4448395Y2658395D01*
X4450049Y2657290D01*
X4452000Y2656902D01*
X4453951Y2657290D01*
X4455605Y2658395D01*
X4456710Y2660049D01*
X4457098Y2662000D01*
X4456710Y2663951D01*
X4455605Y2665605D01*
X4453951Y2666710D01*
X4452000Y2667098D01*
D02*
G37*
G36*
X4238000Y2657098D02*
X4236049Y2656710D01*
X4234395Y2655605D01*
X4233290Y2653951D01*
X4232902Y2652000D01*
X4233290Y2650049D01*
X4234395Y2648395D01*
X4236049Y2647290D01*
X4238000Y2646902D01*
X4239951Y2647290D01*
X4241605Y2648395D01*
X4242710Y2650049D01*
X4243098Y2652000D01*
X4242710Y2653951D01*
X4241605Y2655605D01*
X4239951Y2656710D01*
X4238000Y2657098D01*
D02*
G37*
G36*
X4379000Y2648098D02*
X4377049Y2647710D01*
X4375395Y2646605D01*
X4374290Y2644951D01*
X4373902Y2643000D01*
X4374290Y2641049D01*
X4375395Y2639395D01*
X4377049Y2638290D01*
X4379000Y2637902D01*
X4380951Y2638290D01*
X4382605Y2639395D01*
X4383710Y2641049D01*
X4384098Y2643000D01*
X4383710Y2644951D01*
X4382605Y2646605D01*
X4380951Y2647710D01*
X4379000Y2648098D01*
D02*
G37*
G36*
X4330250Y2625848D02*
X4328299Y2625460D01*
X4326645Y2624355D01*
X4325540Y2622701D01*
X4325152Y2620750D01*
X4325540Y2618799D01*
X4326645Y2617145D01*
X4328299Y2616040D01*
X4330250Y2615652D01*
X4332201Y2616040D01*
X4333855Y2617145D01*
X4334960Y2618799D01*
X4335348Y2620750D01*
X4334960Y2622701D01*
X4333855Y2624355D01*
X4332201Y2625460D01*
X4330250Y2625848D01*
D02*
G37*
G36*
X4158000Y2655598D02*
X4156049Y2655210D01*
X4154395Y2654105D01*
X4153290Y2652451D01*
X4152902Y2650500D01*
X4153290Y2648549D01*
X4154395Y2646895D01*
X4156049Y2645790D01*
X4156766Y2645647D01*
Y2644353D01*
X4156049Y2644210D01*
X4154395Y2643105D01*
X4153290Y2641451D01*
X4152902Y2639500D01*
X4153290Y2637549D01*
X4154395Y2635895D01*
X4156049Y2634790D01*
X4156766Y2634648D01*
Y2633353D01*
X4156049Y2633210D01*
X4154395Y2632105D01*
X4153290Y2630451D01*
X4152902Y2628500D01*
X4153290Y2626549D01*
X4154395Y2624895D01*
X4156049Y2623790D01*
X4156766Y2623647D01*
Y2622353D01*
X4156049Y2622210D01*
X4154395Y2621105D01*
X4153290Y2619451D01*
X4152902Y2617500D01*
X4153290Y2615549D01*
X4154395Y2613895D01*
X4156049Y2612790D01*
X4156766Y2612647D01*
Y2611353D01*
X4156049Y2611210D01*
X4154395Y2610105D01*
X4153290Y2608451D01*
X4152902Y2606500D01*
X4153290Y2604549D01*
X4154395Y2602895D01*
X4156049Y2601790D01*
X4158000Y2601402D01*
X4159951Y2601790D01*
X4161605Y2602895D01*
X4162710Y2604549D01*
X4163098Y2606500D01*
X4162710Y2608451D01*
X4161605Y2610105D01*
X4159951Y2611210D01*
X4159234Y2611353D01*
Y2612647D01*
X4159951Y2612790D01*
X4161605Y2613895D01*
X4162710Y2615549D01*
X4163098Y2617500D01*
X4162710Y2619451D01*
X4161605Y2621105D01*
X4159951Y2622210D01*
X4159234Y2622353D01*
Y2623647D01*
X4159951Y2623790D01*
X4161605Y2624895D01*
X4162710Y2626549D01*
X4163098Y2628500D01*
X4162710Y2630451D01*
X4161605Y2632105D01*
X4159951Y2633210D01*
X4159234Y2633353D01*
Y2634648D01*
X4159951Y2634790D01*
X4161605Y2635895D01*
X4162710Y2637549D01*
X4163098Y2639500D01*
X4162710Y2641451D01*
X4161605Y2643105D01*
X4159951Y2644210D01*
X4159234Y2644353D01*
Y2645647D01*
X4159951Y2645790D01*
X4161605Y2646895D01*
X4162710Y2648549D01*
X4163098Y2650500D01*
X4162710Y2652451D01*
X4161605Y2654105D01*
X4159951Y2655210D01*
X4158000Y2655598D01*
D02*
G37*
G36*
X4205000Y2587098D02*
X4203049Y2586710D01*
X4201395Y2585605D01*
X4200290Y2583951D01*
X4199902Y2582000D01*
X4200290Y2580049D01*
X4201395Y2578395D01*
X4203049Y2577290D01*
X4205000Y2576902D01*
X4206951Y2577290D01*
X4208605Y2578395D01*
X4209710Y2580049D01*
X4210098Y2582000D01*
X4209710Y2583951D01*
X4208605Y2585605D01*
X4206951Y2586710D01*
X4205000Y2587098D01*
D02*
G37*
G36*
X4187000Y2558098D02*
X4185049Y2557710D01*
X4183395Y2556605D01*
X4182290Y2554951D01*
X4181902Y2553000D01*
X4182290Y2551049D01*
X4182944Y2550070D01*
X4183143Y2549773D01*
X4182227Y2548857D01*
X4181930Y2549056D01*
X4180951Y2549710D01*
X4179000Y2550098D01*
X4177049Y2549710D01*
X4176070Y2549056D01*
X4175772Y2548857D01*
X4174857Y2549773D01*
X4175056Y2550070D01*
X4175710Y2551049D01*
X4176098Y2553000D01*
X4175710Y2554951D01*
X4174605Y2556605D01*
X4172951Y2557710D01*
X4171000Y2558098D01*
X4169049Y2557710D01*
X4167395Y2556605D01*
X4166290Y2554951D01*
X4165902Y2553000D01*
X4166290Y2551049D01*
X4167395Y2549395D01*
X4169049Y2548290D01*
X4171000Y2547902D01*
X4172951Y2548290D01*
X4173930Y2548944D01*
X4174227Y2549143D01*
X4175143Y2548228D01*
X4174944Y2547930D01*
X4174290Y2546951D01*
X4173902Y2545000D01*
X4174290Y2543049D01*
X4175395Y2541395D01*
X4177049Y2540290D01*
X4179000Y2539902D01*
X4180951Y2540290D01*
X4182605Y2541395D01*
X4183710Y2543049D01*
X4184098Y2545000D01*
X4183710Y2546951D01*
X4183056Y2547930D01*
X4182857Y2548228D01*
X4183773Y2549143D01*
X4184070Y2548944D01*
X4185049Y2548290D01*
X4187000Y2547902D01*
X4188951Y2548290D01*
X4189930Y2548944D01*
X4190227Y2549143D01*
X4191143Y2548228D01*
X4190944Y2547930D01*
X4190290Y2546951D01*
X4189902Y2545000D01*
X4190290Y2543049D01*
X4191395Y2541395D01*
X4193049Y2540290D01*
X4195000Y2539902D01*
X4196951Y2540290D01*
X4198605Y2541395D01*
X4199710Y2543049D01*
X4200098Y2545000D01*
X4199710Y2546951D01*
X4198605Y2548605D01*
X4196951Y2549710D01*
X4195000Y2550098D01*
X4193049Y2549710D01*
X4192070Y2549056D01*
X4191772Y2548857D01*
X4190857Y2549773D01*
X4191056Y2550070D01*
X4191710Y2551049D01*
X4192098Y2553000D01*
X4191710Y2554951D01*
X4190605Y2556605D01*
X4188951Y2557710D01*
X4187000Y2558098D01*
D02*
G37*
G36*
X4250000Y2550098D02*
X4248049Y2549710D01*
X4246395Y2548605D01*
X4245290Y2546951D01*
X4244902Y2545000D01*
X4245290Y2543049D01*
X4246395Y2541395D01*
X4248049Y2540290D01*
X4250000Y2539902D01*
X4251951Y2540290D01*
X4253605Y2541395D01*
X4254710Y2543049D01*
X4255098Y2545000D01*
X4254710Y2546951D01*
X4253605Y2548605D01*
X4251951Y2549710D01*
X4250000Y2550098D01*
D02*
G37*
G36*
X4226000Y2558098D02*
X4224049Y2557710D01*
X4222395Y2556605D01*
X4221290Y2554951D01*
X4220902Y2553000D01*
X4221290Y2551049D01*
X4222395Y2549395D01*
X4224049Y2548290D01*
X4226000Y2547902D01*
X4227951Y2548290D01*
X4228930Y2548944D01*
X4229227Y2549143D01*
X4230143Y2548228D01*
X4229944Y2547930D01*
X4229290Y2546951D01*
X4228902Y2545000D01*
X4229290Y2543049D01*
X4230395Y2541395D01*
X4232049Y2540290D01*
X4234000Y2539902D01*
X4235951Y2540290D01*
X4237605Y2541395D01*
X4238710Y2543049D01*
X4239098Y2545000D01*
X4238710Y2546951D01*
X4237605Y2548605D01*
X4235951Y2549710D01*
X4234000Y2550098D01*
X4232049Y2549710D01*
X4231070Y2549056D01*
X4230772Y2548857D01*
X4229857Y2549773D01*
X4230056Y2550070D01*
X4230710Y2551049D01*
X4231098Y2553000D01*
X4230710Y2554951D01*
X4229605Y2556605D01*
X4227951Y2557710D01*
X4226000Y2558098D01*
D02*
G37*
G36*
X4268250Y2537098D02*
X4266299Y2536710D01*
X4264645Y2535605D01*
X4263540Y2533951D01*
X4263152Y2532000D01*
X4263540Y2530049D01*
X4264645Y2528395D01*
X4266299Y2527290D01*
X4268250Y2526902D01*
X4270201Y2527290D01*
X4271855Y2528395D01*
X4272960Y2530049D01*
X4273348Y2532000D01*
X4272960Y2533951D01*
X4271855Y2535605D01*
X4270201Y2536710D01*
X4268250Y2537098D01*
D02*
G37*
G36*
X4274250Y2518598D02*
X4272299Y2518210D01*
X4270645Y2517105D01*
X4269540Y2515451D01*
X4269152Y2513500D01*
X4269540Y2511549D01*
X4270645Y2509895D01*
X4272299Y2508790D01*
X4274250Y2508402D01*
X4276201Y2508790D01*
X4277855Y2509895D01*
X4278960Y2511549D01*
X4279348Y2513500D01*
X4278960Y2515451D01*
X4277855Y2517105D01*
X4276201Y2518210D01*
X4274250Y2518598D01*
D02*
G37*
G36*
X4283000Y2484098D02*
X4281049Y2483710D01*
X4279395Y2482605D01*
X4278290Y2480951D01*
X4277902Y2479000D01*
X4278290Y2477049D01*
X4279395Y2475395D01*
X4281049Y2474290D01*
X4283000Y2473902D01*
X4284951Y2474290D01*
X4286605Y2475395D01*
X4287710Y2477049D01*
X4288098Y2479000D01*
X4287710Y2480951D01*
X4286605Y2482605D01*
X4284951Y2483710D01*
X4283000Y2484098D01*
D02*
G37*
G36*
X4151000D02*
X4149049Y2483710D01*
X4147395Y2482605D01*
X4146290Y2480951D01*
X4145902Y2479000D01*
X4146290Y2477049D01*
X4147395Y2475395D01*
X4149049Y2474290D01*
X4151000Y2473902D01*
X4152951Y2474290D01*
X4154605Y2475395D01*
X4155710Y2477049D01*
X4156098Y2479000D01*
X4155710Y2480951D01*
X4154605Y2482605D01*
X4152951Y2483710D01*
X4151000Y2484098D01*
D02*
G37*
G36*
X4205000Y2473098D02*
X4203049Y2472710D01*
X4201395Y2471605D01*
X4200290Y2469951D01*
X4199902Y2468000D01*
X4200290Y2466049D01*
X4201395Y2464395D01*
X4203049Y2463290D01*
X4205000Y2462902D01*
X4206951Y2463290D01*
X4208605Y2464395D01*
X4209710Y2466049D01*
X4210098Y2468000D01*
X4209710Y2469951D01*
X4208605Y2471605D01*
X4206951Y2472710D01*
X4205000Y2473098D01*
D02*
G37*
G36*
X4404000Y2466098D02*
X4402049Y2465710D01*
X4400395Y2464605D01*
X4399290Y2462951D01*
X4398902Y2461000D01*
X4399290Y2459049D01*
X4400395Y2457395D01*
X4402049Y2456290D01*
X4404000Y2455902D01*
X4405951Y2456290D01*
X4407605Y2457395D01*
X4408710Y2459049D01*
X4409098Y2461000D01*
X4408710Y2462951D01*
X4407605Y2464605D01*
X4405951Y2465710D01*
X4404000Y2466098D01*
D02*
G37*
G36*
X4245500Y2474098D02*
X4243549Y2473710D01*
X4241895Y2472605D01*
X4240790Y2470951D01*
X4240402Y2469000D01*
X4240790Y2467049D01*
X4241895Y2465395D01*
X4243549Y2464290D01*
X4245500Y2463902D01*
X4246633Y2464127D01*
X4247397Y2462984D01*
X4247040Y2462451D01*
X4246652Y2460500D01*
X4247040Y2458549D01*
X4248145Y2456895D01*
X4249799Y2455790D01*
X4251750Y2455402D01*
X4253701Y2455790D01*
X4255355Y2456895D01*
X4256460Y2458549D01*
X4256848Y2460500D01*
X4256460Y2462451D01*
X4255355Y2464105D01*
X4253701Y2465210D01*
X4251750Y2465598D01*
X4250617Y2465373D01*
X4249854Y2466516D01*
X4250210Y2467049D01*
X4250598Y2469000D01*
X4250210Y2470951D01*
X4249105Y2472605D01*
X4247451Y2473710D01*
X4245500Y2474098D01*
D02*
G37*
G36*
X4376500Y2462848D02*
X4374549Y2462460D01*
X4372895Y2461355D01*
X4371790Y2459701D01*
X4371402Y2457750D01*
X4371790Y2455799D01*
X4372895Y2454145D01*
X4374549Y2453040D01*
X4376500Y2452652D01*
X4378451Y2453040D01*
X4380105Y2454145D01*
X4381210Y2455799D01*
X4381598Y2457750D01*
X4381210Y2459701D01*
X4380105Y2461355D01*
X4378451Y2462460D01*
X4376500Y2462848D01*
D02*
G37*
G36*
X4501000Y2446098D02*
X4499049Y2445710D01*
X4497395Y2444605D01*
X4496290Y2442951D01*
X4495902Y2441000D01*
X4496290Y2439049D01*
X4497395Y2437395D01*
X4499049Y2436290D01*
X4501000Y2435902D01*
X4502951Y2436290D01*
X4504605Y2437395D01*
X4505710Y2439049D01*
X4506098Y2441000D01*
X4505710Y2442951D01*
X4504605Y2444605D01*
X4502951Y2445710D01*
X4501000Y2446098D01*
D02*
G37*
G36*
X4204000Y2431098D02*
X4202049Y2430710D01*
X4200395Y2429605D01*
X4199290Y2427951D01*
X4198902Y2426000D01*
X4199290Y2424049D01*
X4200395Y2422395D01*
X4202049Y2421290D01*
X4204000Y2420902D01*
X4205951Y2421290D01*
X4207605Y2422395D01*
X4208710Y2424049D01*
X4209098Y2426000D01*
X4208710Y2427951D01*
X4207605Y2429605D01*
X4205951Y2430710D01*
X4204000Y2431098D01*
D02*
G37*
G36*
X4218750Y2426598D02*
X4216799Y2426210D01*
X4215145Y2425105D01*
X4214040Y2423451D01*
X4213652Y2421500D01*
X4214040Y2419549D01*
X4215145Y2417895D01*
X4216799Y2416790D01*
X4218750Y2416402D01*
X4220701Y2416790D01*
X4222355Y2417895D01*
X4223460Y2419549D01*
X4223848Y2421500D01*
X4223460Y2423451D01*
X4222355Y2425105D01*
X4220701Y2426210D01*
X4218750Y2426598D01*
D02*
G37*
G36*
X4234000Y2425098D02*
X4232049Y2424710D01*
X4230395Y2423605D01*
X4229290Y2421951D01*
X4228902Y2420000D01*
X4229290Y2418049D01*
X4230395Y2416395D01*
X4232049Y2415290D01*
X4234000Y2414902D01*
X4235951Y2415290D01*
X4237605Y2416395D01*
X4238710Y2418049D01*
X4239098Y2420000D01*
X4238710Y2421951D01*
X4237605Y2423605D01*
X4235951Y2424710D01*
X4234000Y2425098D01*
D02*
G37*
G36*
X4427250Y2420598D02*
X4425299Y2420210D01*
X4423645Y2419105D01*
X4422540Y2417451D01*
X4422152Y2415500D01*
X4422540Y2413549D01*
X4423645Y2411895D01*
X4425299Y2410790D01*
X4427250Y2410402D01*
X4429201Y2410790D01*
X4430855Y2411895D01*
X4431960Y2413549D01*
X4432348Y2415500D01*
X4431960Y2417451D01*
X4430855Y2419105D01*
X4429201Y2420210D01*
X4427250Y2420598D01*
D02*
G37*
G36*
X4226000Y2415098D02*
X4224049Y2414710D01*
X4222395Y2413605D01*
X4221290Y2411951D01*
X4220902Y2410000D01*
X4221290Y2408049D01*
X4222395Y2406395D01*
X4224049Y2405290D01*
X4226000Y2404902D01*
X4227951Y2405290D01*
X4229605Y2406395D01*
X4230710Y2408049D01*
X4231098Y2410000D01*
X4230710Y2411951D01*
X4229605Y2413605D01*
X4227951Y2414710D01*
X4226000Y2415098D01*
D02*
G37*
G36*
X4383750Y2413848D02*
X4381799Y2413460D01*
X4380145Y2412355D01*
X4379040Y2410701D01*
X4378652Y2408750D01*
X4379040Y2406799D01*
X4380145Y2405145D01*
X4381799Y2404040D01*
X4383750Y2403652D01*
X4385701Y2404040D01*
X4387355Y2405145D01*
X4388460Y2406799D01*
X4388696Y2407984D01*
X4388703Y2408020D01*
X4389998D01*
X4390009Y2407960D01*
X4390290Y2406549D01*
X4391395Y2404895D01*
X4393049Y2403790D01*
X4395000Y2403402D01*
X4396951Y2403790D01*
X4398605Y2404895D01*
X4399710Y2406549D01*
X4400098Y2408500D01*
X4399710Y2410451D01*
X4398605Y2412105D01*
X4396951Y2413210D01*
X4395000Y2413598D01*
X4393049Y2413210D01*
X4391395Y2412105D01*
X4390290Y2410451D01*
X4390054Y2409266D01*
X4390047Y2409230D01*
X4388752D01*
X4388741Y2409290D01*
X4388460Y2410701D01*
X4387355Y2412355D01*
X4385701Y2413460D01*
X4383750Y2413848D01*
D02*
G37*
G36*
X4118500Y2411098D02*
X4116549Y2410710D01*
X4114895Y2409605D01*
X4113790Y2407951D01*
X4113402Y2406000D01*
X4113790Y2404049D01*
X4114895Y2402395D01*
X4116549Y2401290D01*
X4118500Y2400902D01*
X4120451Y2401290D01*
X4122105Y2402395D01*
X4123210Y2404049D01*
X4123598Y2406000D01*
X4123210Y2407951D01*
X4122105Y2409605D01*
X4120451Y2410710D01*
X4118500Y2411098D01*
D02*
G37*
G36*
X4304500Y2373098D02*
X4302549Y2372710D01*
X4300895Y2371605D01*
X4299790Y2369951D01*
X4299402Y2368000D01*
X4299790Y2366049D01*
X4300895Y2364395D01*
X4302549Y2363290D01*
X4304500Y2362902D01*
X4306451Y2363290D01*
X4308105Y2364395D01*
X4309210Y2366049D01*
X4309598Y2368000D01*
X4309210Y2369951D01*
X4308105Y2371605D01*
X4306451Y2372710D01*
X4304500Y2373098D01*
D02*
G37*
G36*
X4352000Y2378098D02*
X4350049Y2377710D01*
X4348395Y2376605D01*
X4347290Y2374951D01*
X4346902Y2373000D01*
X4347290Y2371049D01*
X4348395Y2369395D01*
X4350049Y2368290D01*
X4352000Y2367902D01*
X4352644Y2368030D01*
X4359006Y2361668D01*
X4358505Y2360373D01*
X4357783Y2360338D01*
X4357605Y2360605D01*
X4355951Y2361710D01*
X4354000Y2362098D01*
X4352049Y2361710D01*
X4350395Y2360605D01*
X4349290Y2358951D01*
X4348902Y2357000D01*
X4349290Y2355049D01*
X4350395Y2353395D01*
X4352049Y2352290D01*
X4354000Y2351902D01*
X4355951Y2352290D01*
X4357605Y2353395D01*
X4357924Y2353872D01*
X4359144Y2353829D01*
X4359495Y2352671D01*
X4359395Y2352605D01*
X4358290Y2350951D01*
X4357902Y2349000D01*
X4358290Y2347049D01*
X4359395Y2345395D01*
X4361049Y2344290D01*
X4363000Y2343902D01*
X4363644Y2344030D01*
X4481941Y2225733D01*
Y2176000D01*
X4481941Y2176000D01*
X4482174Y2174830D01*
X4482837Y2173837D01*
X4499722Y2156952D01*
X4499774Y2156873D01*
X4499820Y2156788D01*
X4499859Y2156698D01*
X4499893Y2156598D01*
X4499921Y2156487D01*
X4499943Y2156359D01*
X4499952Y2156253D01*
X4499902Y2156000D01*
X4500290Y2154049D01*
X4501395Y2152395D01*
X4503049Y2151290D01*
X4505000Y2150902D01*
X4506951Y2151290D01*
X4508605Y2152395D01*
X4509710Y2154049D01*
X4510098Y2156000D01*
X4509710Y2157951D01*
X4508857Y2159227D01*
X4509773Y2160143D01*
X4511049Y2159290D01*
X4513000Y2158902D01*
X4514951Y2159290D01*
X4516605Y2160395D01*
X4517710Y2162049D01*
X4518098Y2164000D01*
X4517710Y2165951D01*
X4516605Y2167605D01*
X4514951Y2168710D01*
X4513000Y2169098D01*
X4511049Y2168710D01*
X4509773Y2167857D01*
X4508857Y2168773D01*
X4509710Y2170049D01*
X4510098Y2172000D01*
X4509710Y2173951D01*
X4508605Y2175605D01*
X4506951Y2176710D01*
X4505000Y2177098D01*
X4504747Y2177048D01*
X4504641Y2177057D01*
X4504514Y2177079D01*
X4504402Y2177107D01*
X4504302Y2177141D01*
X4504212Y2177180D01*
X4504127Y2177226D01*
X4504048Y2177278D01*
X4495059Y2186267D01*
Y2209858D01*
X4496329Y2210243D01*
X4496895Y2209395D01*
X4498549Y2208290D01*
X4500500Y2207902D01*
X4502451Y2208290D01*
X4504105Y2209395D01*
X4505210Y2211049D01*
X4505598Y2213000D01*
X4505210Y2214951D01*
X4504105Y2216605D01*
X4502451Y2217710D01*
X4500500Y2218098D01*
X4498549Y2217710D01*
X4496895Y2216605D01*
X4496329Y2215757D01*
X4495059Y2216142D01*
Y2222858D01*
X4496329Y2223243D01*
X4496895Y2222395D01*
X4498549Y2221290D01*
X4500500Y2220902D01*
X4502451Y2221290D01*
X4504105Y2222395D01*
X4505210Y2224049D01*
X4505598Y2226000D01*
X4505210Y2227951D01*
X4504105Y2229605D01*
X4502451Y2230710D01*
X4500500Y2231098D01*
X4498549Y2230710D01*
X4496895Y2229605D01*
X4496329Y2228757D01*
X4495059Y2229142D01*
Y2232950D01*
X4494826Y2234120D01*
X4494163Y2235113D01*
X4494163Y2235113D01*
X4393239Y2336037D01*
X4393138Y2336188D01*
X4356970Y2372356D01*
X4357098Y2373000D01*
X4356710Y2374951D01*
X4355605Y2376605D01*
X4353951Y2377710D01*
X4352000Y2378098D01*
D02*
G37*
G36*
X4586750Y2366348D02*
X4584799Y2365960D01*
X4583145Y2364855D01*
X4582040Y2363201D01*
X4581652Y2361250D01*
X4582040Y2359299D01*
X4583145Y2357645D01*
X4584799Y2356540D01*
X4586750Y2356152D01*
X4588701Y2356540D01*
X4590355Y2357645D01*
X4591460Y2359299D01*
X4591848Y2361250D01*
X4591460Y2363201D01*
X4590355Y2364855D01*
X4588701Y2365960D01*
X4586750Y2366348D01*
D02*
G37*
G36*
X4537750Y2360598D02*
X4535799Y2360210D01*
X4534145Y2359105D01*
X4533040Y2357451D01*
X4532652Y2355500D01*
X4533040Y2353549D01*
X4534145Y2351895D01*
X4535799Y2350790D01*
X4537750Y2350402D01*
X4539701Y2350790D01*
X4541355Y2351895D01*
X4542460Y2353549D01*
X4542848Y2355500D01*
X4542460Y2357451D01*
X4541355Y2359105D01*
X4539701Y2360210D01*
X4537750Y2360598D01*
D02*
G37*
G36*
X4223500Y2362098D02*
X4221549Y2361710D01*
X4219895Y2360605D01*
X4218790Y2358951D01*
X4218402Y2357000D01*
X4218790Y2355049D01*
X4219895Y2353395D01*
X4221549Y2352290D01*
X4223500Y2351902D01*
X4225401Y2352280D01*
X4225559Y2352165D01*
X4226288Y2351322D01*
X4226040Y2350951D01*
X4225652Y2349000D01*
X4226040Y2347049D01*
X4227145Y2345395D01*
X4228799Y2344290D01*
X4230750Y2343902D01*
X4232701Y2344290D01*
X4234355Y2345395D01*
X4235460Y2347049D01*
X4235848Y2349000D01*
X4235460Y2350951D01*
X4234355Y2352605D01*
X4232701Y2353710D01*
X4230750Y2354098D01*
X4228849Y2353720D01*
X4228691Y2353835D01*
X4227962Y2354678D01*
X4228210Y2355049D01*
X4228598Y2357000D01*
X4228210Y2358951D01*
X4227105Y2360605D01*
X4225451Y2361710D01*
X4223500Y2362098D01*
D02*
G37*
G36*
X4026750Y2354098D02*
X4024799Y2353710D01*
X4023145Y2352605D01*
X4022040Y2350951D01*
X4021652Y2349000D01*
X4022040Y2347049D01*
X4023145Y2345395D01*
X4024799Y2344290D01*
X4026750Y2343902D01*
X4028701Y2344290D01*
X4030255Y2345329D01*
X4031599Y2345155D01*
X4031627Y2345113D01*
X4033281Y2344008D01*
X4035231Y2343620D01*
X4037182Y2344008D01*
X4038836Y2345113D01*
X4039941Y2346767D01*
X4040329Y2348718D01*
X4039941Y2350669D01*
X4038836Y2352323D01*
X4037182Y2353428D01*
X4035231Y2353816D01*
X4033281Y2353428D01*
X4031726Y2352390D01*
X4030382Y2352563D01*
X4030355Y2352605D01*
X4028701Y2353710D01*
X4026750Y2354098D01*
D02*
G37*
G36*
X4547000Y2353598D02*
X4545049Y2353210D01*
X4543395Y2352105D01*
X4542290Y2350451D01*
X4541902Y2348500D01*
X4542290Y2346549D01*
X4543395Y2344895D01*
X4545049Y2343790D01*
X4547000Y2343402D01*
X4548951Y2343790D01*
X4550605Y2344895D01*
X4551710Y2346549D01*
X4552098Y2348500D01*
X4551710Y2350451D01*
X4550605Y2352105D01*
X4548951Y2353210D01*
X4547000Y2353598D01*
D02*
G37*
G36*
X4351000Y2338098D02*
X4349049Y2337710D01*
X4347395Y2336605D01*
X4346290Y2334951D01*
X4345902Y2333000D01*
X4346290Y2331049D01*
X4347395Y2329395D01*
X4349049Y2328290D01*
X4351000Y2327902D01*
X4352951Y2328290D01*
X4354605Y2329395D01*
X4355710Y2331049D01*
X4356098Y2333000D01*
X4355710Y2334951D01*
X4354605Y2336605D01*
X4352951Y2337710D01*
X4351000Y2338098D01*
D02*
G37*
G36*
X4066000Y2337098D02*
X4064049Y2336710D01*
X4062395Y2335605D01*
X4061290Y2333951D01*
X4060902Y2332000D01*
X4061290Y2330049D01*
X4062395Y2328395D01*
X4064049Y2327290D01*
X4066000Y2326902D01*
X4067951Y2327290D01*
X4069605Y2328395D01*
X4070710Y2330049D01*
X4071098Y2332000D01*
X4070710Y2333951D01*
X4069605Y2335605D01*
X4067951Y2336710D01*
X4066000Y2337098D01*
D02*
G37*
G36*
X4360000Y2330098D02*
X4358049Y2329710D01*
X4356395Y2328605D01*
X4355290Y2326951D01*
X4354902Y2325000D01*
X4355290Y2323049D01*
X4356395Y2321395D01*
X4358049Y2320290D01*
X4360000Y2319902D01*
X4361951Y2320290D01*
X4363605Y2321395D01*
X4364710Y2323049D01*
X4365098Y2325000D01*
X4364710Y2326951D01*
X4363605Y2328605D01*
X4361951Y2329710D01*
X4360000Y2330098D01*
D02*
G37*
G36*
X4223500Y2338098D02*
X4221549Y2337710D01*
X4219895Y2336605D01*
X4218790Y2334951D01*
X4218402Y2333000D01*
X4218790Y2331049D01*
X4219895Y2329395D01*
X4221549Y2328290D01*
X4223500Y2327902D01*
X4225401Y2328280D01*
X4225559Y2328165D01*
X4226288Y2327322D01*
X4226040Y2326951D01*
X4225652Y2325000D01*
X4226040Y2323049D01*
X4227145Y2321395D01*
X4228799Y2320290D01*
X4230750Y2319902D01*
X4232701Y2320290D01*
X4234355Y2321395D01*
X4235460Y2323049D01*
X4235848Y2325000D01*
X4235460Y2326951D01*
X4234355Y2328605D01*
X4232701Y2329710D01*
X4230750Y2330098D01*
X4228849Y2329720D01*
X4228691Y2329835D01*
X4227962Y2330678D01*
X4228210Y2331049D01*
X4228598Y2333000D01*
X4228210Y2334951D01*
X4227105Y2336605D01*
X4225451Y2337710D01*
X4223500Y2338098D01*
D02*
G37*
G36*
X4360000Y2314098D02*
X4358049Y2313710D01*
X4356395Y2312605D01*
X4355290Y2310951D01*
X4354902Y2309000D01*
X4355290Y2307049D01*
X4356395Y2305395D01*
X4358049Y2304290D01*
X4360000Y2303902D01*
X4361951Y2304290D01*
X4363605Y2305395D01*
X4364710Y2307049D01*
X4365098Y2309000D01*
X4364710Y2310951D01*
X4363605Y2312605D01*
X4361951Y2313710D01*
X4360000Y2314098D01*
D02*
G37*
G36*
X4321000Y2307098D02*
X4319049Y2306710D01*
X4317395Y2305605D01*
X4316290Y2303951D01*
X4315902Y2302000D01*
X4316290Y2300049D01*
X4317395Y2298395D01*
X4319049Y2297290D01*
X4321000Y2296902D01*
X4322951Y2297290D01*
X4324605Y2298395D01*
X4325710Y2300049D01*
X4326098Y2302000D01*
X4325710Y2303951D01*
X4324605Y2305605D01*
X4322951Y2306710D01*
X4321000Y2307098D01*
D02*
G37*
G36*
X4351000Y2306098D02*
X4349049Y2305710D01*
X4347395Y2304605D01*
X4346290Y2302951D01*
X4345902Y2301000D01*
X4346290Y2299049D01*
X4347395Y2297395D01*
X4349049Y2296290D01*
X4351000Y2295902D01*
X4352951Y2296290D01*
X4354605Y2297395D01*
X4355710Y2299049D01*
X4356098Y2301000D01*
X4355710Y2302951D01*
X4354605Y2304605D01*
X4352951Y2305710D01*
X4351000Y2306098D01*
D02*
G37*
G36*
Y2290098D02*
X4349049Y2289710D01*
X4347395Y2288605D01*
X4346290Y2286951D01*
X4345902Y2285000D01*
X4346290Y2283049D01*
X4347395Y2281395D01*
X4349049Y2280290D01*
X4351000Y2279902D01*
X4352951Y2280290D01*
X4354605Y2281395D01*
X4355710Y2283049D01*
X4356098Y2285000D01*
X4355710Y2286951D01*
X4354605Y2288605D01*
X4352951Y2289710D01*
X4351000Y2290098D01*
D02*
G37*
G36*
X4504000Y2289098D02*
X4502049Y2288710D01*
X4500395Y2287605D01*
X4499290Y2285951D01*
X4498902Y2284000D01*
X4499290Y2282049D01*
X4500395Y2280395D01*
X4502049Y2279290D01*
X4504000Y2278902D01*
X4505951Y2279290D01*
X4507605Y2280395D01*
X4508710Y2282049D01*
X4509098Y2284000D01*
X4508710Y2285951D01*
X4507605Y2287605D01*
X4505951Y2288710D01*
X4504000Y2289098D01*
D02*
G37*
G36*
X4069000Y2280348D02*
X4067049Y2279960D01*
X4065395Y2278855D01*
X4064290Y2277201D01*
X4063902Y2275250D01*
X4064290Y2273299D01*
X4065395Y2271645D01*
X4067049Y2270540D01*
X4069000Y2270152D01*
X4070951Y2270540D01*
X4072605Y2271645D01*
X4073710Y2273299D01*
X4074098Y2275250D01*
X4073710Y2277201D01*
X4072605Y2278855D01*
X4070951Y2279960D01*
X4069000Y2280348D01*
D02*
G37*
G36*
X4623500Y2249848D02*
X4621549Y2249460D01*
X4619895Y2248355D01*
X4618790Y2246701D01*
X4618402Y2244750D01*
X4618790Y2242799D01*
X4619895Y2241145D01*
X4621549Y2240040D01*
X4623500Y2239652D01*
X4625451Y2240040D01*
X4627105Y2241145D01*
X4628210Y2242799D01*
X4628598Y2244750D01*
X4628210Y2246701D01*
X4627105Y2248355D01*
X4625451Y2249460D01*
X4623500Y2249848D01*
D02*
G37*
G36*
X4116750Y2243598D02*
X4114799Y2243210D01*
X4113145Y2242105D01*
X4112040Y2240451D01*
X4111652Y2238500D01*
X4112040Y2236549D01*
X4113145Y2234895D01*
X4114799Y2233790D01*
X4116750Y2233402D01*
X4118701Y2233790D01*
X4120355Y2234895D01*
X4121460Y2236549D01*
X4121848Y2238500D01*
X4121460Y2240451D01*
X4120355Y2242105D01*
X4118701Y2243210D01*
X4116750Y2243598D01*
D02*
G37*
G36*
X4623500Y2238348D02*
X4621549Y2237960D01*
X4619895Y2236855D01*
X4618790Y2235201D01*
X4618402Y2233250D01*
X4618790Y2231299D01*
X4619895Y2229645D01*
X4621549Y2228540D01*
X4623500Y2228152D01*
X4625451Y2228540D01*
X4627105Y2229645D01*
X4628210Y2231299D01*
X4628598Y2233250D01*
X4628210Y2235201D01*
X4627105Y2236855D01*
X4625451Y2237960D01*
X4623500Y2238348D01*
D02*
G37*
G36*
X4467000Y2235098D02*
X4465049Y2234710D01*
X4463395Y2233605D01*
X4462290Y2231951D01*
X4461902Y2230000D01*
X4462290Y2228049D01*
X4463395Y2226395D01*
X4465049Y2225290D01*
X4467000Y2224902D01*
X4468951Y2225290D01*
X4470605Y2226395D01*
X4471710Y2228049D01*
X4472098Y2230000D01*
X4471710Y2231951D01*
X4470605Y2233605D01*
X4468951Y2234710D01*
X4467000Y2235098D01*
D02*
G37*
G36*
Y2208098D02*
X4465049Y2207710D01*
X4463395Y2206605D01*
X4462290Y2204951D01*
X4461902Y2203000D01*
X4462290Y2201049D01*
X4463395Y2199395D01*
X4465049Y2198290D01*
X4467000Y2197902D01*
X4468951Y2198290D01*
X4470605Y2199395D01*
X4471710Y2201049D01*
X4472098Y2203000D01*
X4471710Y2204951D01*
X4470605Y2206605D01*
X4468951Y2207710D01*
X4467000Y2208098D01*
D02*
G37*
G36*
X4158750Y2195598D02*
X4156799Y2195210D01*
X4155145Y2194105D01*
X4154040Y2192451D01*
X4153652Y2190500D01*
X4154040Y2188549D01*
X4155145Y2186895D01*
X4156799Y2185790D01*
X4158750Y2185402D01*
X4160701Y2185790D01*
X4162355Y2186895D01*
X4163460Y2188549D01*
X4163848Y2190500D01*
X4163460Y2192451D01*
X4162355Y2194105D01*
X4160701Y2195210D01*
X4158750Y2195598D01*
D02*
G37*
G36*
X4068000Y2186098D02*
X4066049Y2185710D01*
X4064395Y2184605D01*
X4063290Y2182951D01*
X4062902Y2181000D01*
X4063290Y2179049D01*
X4064395Y2177395D01*
X4066049Y2176290D01*
X4068000Y2175902D01*
X4069951Y2176290D01*
X4071605Y2177395D01*
X4072710Y2179049D01*
X4073098Y2181000D01*
X4072710Y2182951D01*
X4071605Y2184605D01*
X4069951Y2185710D01*
X4068000Y2186098D01*
D02*
G37*
G36*
X4561000Y2185098D02*
X4559049Y2184710D01*
X4557395Y2183605D01*
X4556290Y2181951D01*
X4555902Y2180000D01*
X4556290Y2178049D01*
X4557395Y2176395D01*
X4559049Y2175290D01*
X4561000Y2174902D01*
X4562951Y2175290D01*
X4564605Y2176395D01*
X4565710Y2178049D01*
X4566098Y2180000D01*
X4565710Y2181951D01*
X4564605Y2183605D01*
X4562951Y2184710D01*
X4561000Y2185098D01*
D02*
G37*
G36*
X4268250Y2168348D02*
X4266299Y2167960D01*
X4264645Y2166855D01*
X4263540Y2165201D01*
X4263152Y2163250D01*
X4263540Y2161299D01*
X4264645Y2159645D01*
X4266299Y2158540D01*
X4268250Y2158152D01*
X4270201Y2158540D01*
X4271855Y2159645D01*
X4272960Y2161299D01*
X4273348Y2163250D01*
X4272960Y2165201D01*
X4271855Y2166855D01*
X4270201Y2167960D01*
X4268250Y2168348D01*
D02*
G37*
G36*
X4182500Y2172348D02*
X4180549Y2171960D01*
X4178895Y2170855D01*
X4177790Y2169201D01*
X4177402Y2167250D01*
X4177648Y2166014D01*
X4177061Y2164958D01*
X4176696Y2164787D01*
X4175049Y2164460D01*
X4173395Y2163355D01*
X4172290Y2161701D01*
X4171902Y2159750D01*
X4172290Y2157799D01*
X4173395Y2156145D01*
X4175049Y2155040D01*
X4177000Y2154652D01*
X4178951Y2155040D01*
X4180605Y2156145D01*
X4181710Y2157799D01*
X4182098Y2159750D01*
X4181852Y2160986D01*
X4182439Y2162042D01*
X4182804Y2162213D01*
X4184451Y2162540D01*
X4186105Y2163645D01*
X4187210Y2165299D01*
X4187598Y2167250D01*
X4187210Y2169201D01*
X4186105Y2170855D01*
X4184451Y2171960D01*
X4182500Y2172348D01*
D02*
G37*
G36*
X4293000Y2169098D02*
X4291049Y2168710D01*
X4289395Y2167605D01*
X4288290Y2165951D01*
X4287902Y2164000D01*
X4288290Y2162049D01*
X4289395Y2160395D01*
X4289941Y2160030D01*
Y2111500D01*
X4289941Y2111500D01*
X4290174Y2110329D01*
X4290837Y2109337D01*
X4353941Y2046233D01*
Y2039406D01*
X4353922Y2039312D01*
X4353894Y2039220D01*
X4353858Y2039129D01*
X4353812Y2039034D01*
X4353753Y2038935D01*
X4353678Y2038830D01*
X4353610Y2038748D01*
X4353395Y2038605D01*
X4352290Y2036951D01*
X4351902Y2035000D01*
X4352290Y2033049D01*
X4352944Y2032070D01*
X4353143Y2031773D01*
X4352227Y2030857D01*
X4351930Y2031056D01*
X4350951Y2031710D01*
X4349000Y2032098D01*
X4347049Y2031710D01*
X4346070Y2031056D01*
X4345773Y2030857D01*
X4344857Y2031773D01*
X4345056Y2032070D01*
X4345710Y2033049D01*
X4346098Y2035000D01*
X4345710Y2036951D01*
X4344605Y2038605D01*
X4342951Y2039710D01*
X4341000Y2040098D01*
X4339049Y2039710D01*
X4337395Y2038605D01*
X4336290Y2036951D01*
X4335902Y2035000D01*
X4336290Y2033049D01*
X4336944Y2032070D01*
X4337143Y2031773D01*
X4336227Y2030857D01*
X4335930Y2031056D01*
X4334951Y2031710D01*
X4333000Y2032098D01*
X4331049Y2031710D01*
X4329395Y2030605D01*
X4328290Y2028951D01*
X4327902Y2027000D01*
X4328290Y2025049D01*
X4329395Y2023395D01*
X4331049Y2022290D01*
X4333000Y2021902D01*
X4334951Y2022290D01*
X4336605Y2023395D01*
X4337710Y2025049D01*
X4338098Y2027000D01*
X4337710Y2028951D01*
X4337056Y2029930D01*
X4336857Y2030227D01*
X4337773Y2031143D01*
X4338070Y2030944D01*
X4339049Y2030290D01*
X4341000Y2029902D01*
X4342951Y2030290D01*
X4343930Y2030944D01*
X4344227Y2031143D01*
X4345143Y2030227D01*
X4344944Y2029930D01*
X4344290Y2028951D01*
X4343902Y2027000D01*
X4344290Y2025049D01*
X4345395Y2023395D01*
X4347049Y2022290D01*
X4349000Y2021902D01*
X4350951Y2022290D01*
X4352605Y2023395D01*
X4353710Y2025049D01*
X4354098Y2027000D01*
X4353710Y2028951D01*
X4353056Y2029930D01*
X4352857Y2030227D01*
X4353773Y2031143D01*
X4354070Y2030944D01*
X4355049Y2030290D01*
X4357000Y2029902D01*
X4358951Y2030290D01*
X4360605Y2031395D01*
X4361710Y2033049D01*
X4362098Y2035000D01*
X4361710Y2036951D01*
X4360605Y2038605D01*
X4360390Y2038748D01*
X4360322Y2038830D01*
X4360247Y2038935D01*
X4360188Y2039034D01*
X4360142Y2039129D01*
X4360106Y2039220D01*
X4360078Y2039312D01*
X4360059Y2039406D01*
Y2047500D01*
X4359826Y2048671D01*
X4359163Y2049663D01*
X4296059Y2112767D01*
Y2118791D01*
X4297329Y2119485D01*
X4299000Y2119152D01*
X4300951Y2119540D01*
X4302605Y2120645D01*
X4302991Y2120683D01*
X4364941Y2058733D01*
Y2031405D01*
X4364922Y2031312D01*
X4364894Y2031220D01*
X4364858Y2031129D01*
X4364812Y2031035D01*
X4364753Y2030935D01*
X4364678Y2030830D01*
X4364610Y2030748D01*
X4364395Y2030605D01*
X4363290Y2028951D01*
X4362902Y2027000D01*
X4363290Y2025049D01*
X4364395Y2023395D01*
X4366049Y2022290D01*
X4368000Y2021902D01*
X4369951Y2022290D01*
X4371605Y2023395D01*
X4372710Y2025049D01*
X4373098Y2027000D01*
X4372710Y2028951D01*
X4371857Y2030227D01*
X4372773Y2031143D01*
X4374049Y2030290D01*
X4376000Y2029902D01*
X4377951Y2030290D01*
X4379227Y2031143D01*
X4380143Y2030227D01*
X4379290Y2028951D01*
X4378902Y2027000D01*
X4379290Y2025049D01*
X4380395Y2023395D01*
X4382049Y2022290D01*
X4384000Y2021902D01*
X4385951Y2022290D01*
X4387605Y2023395D01*
X4388710Y2025049D01*
X4389098Y2027000D01*
X4388710Y2028951D01*
X4387857Y2030227D01*
X4388773Y2031143D01*
X4390049Y2030290D01*
X4392000Y2029902D01*
X4393951Y2030290D01*
X4395605Y2031395D01*
X4396710Y2033049D01*
X4397098Y2035000D01*
X4396710Y2036951D01*
X4395605Y2038605D01*
X4395390Y2038748D01*
X4395322Y2038830D01*
X4395247Y2038935D01*
X4395188Y2039034D01*
X4395142Y2039129D01*
X4395106Y2039220D01*
X4395078Y2039312D01*
X4395059Y2039406D01*
Y2051000D01*
X4395059Y2051000D01*
X4394826Y2052171D01*
X4394163Y2053163D01*
X4394163Y2053163D01*
X4329309Y2118017D01*
Y2156030D01*
X4329855Y2156395D01*
X4330487Y2157341D01*
X4331155Y2157320D01*
X4331888Y2157152D01*
X4332895Y2155645D01*
X4334549Y2154540D01*
X4336500Y2154152D01*
X4338451Y2154540D01*
X4340105Y2155645D01*
X4341210Y2157299D01*
X4341598Y2159250D01*
X4341210Y2161201D01*
X4340105Y2162855D01*
X4338451Y2163960D01*
X4336500Y2164348D01*
X4334549Y2163960D01*
X4332895Y2162855D01*
X4332263Y2161909D01*
X4331595Y2161930D01*
X4330862Y2162098D01*
X4329855Y2163605D01*
X4328201Y2164710D01*
X4326250Y2165098D01*
X4324299Y2164710D01*
X4322982Y2163830D01*
X4322125Y2163690D01*
X4321268Y2163830D01*
X4319951Y2164710D01*
X4318000Y2165098D01*
X4316049Y2164710D01*
X4314732Y2163830D01*
X4313875Y2163690D01*
X4313018Y2163830D01*
X4311701Y2164710D01*
X4309750Y2165098D01*
X4307799Y2164710D01*
X4306482Y2163830D01*
X4305625Y2163690D01*
X4304768Y2163830D01*
X4303451Y2164710D01*
X4301500Y2165098D01*
X4299549Y2164710D01*
X4299286Y2164534D01*
X4297875Y2165119D01*
X4297710Y2165951D01*
X4296605Y2167605D01*
X4294951Y2168710D01*
X4293000Y2169098D01*
D02*
G37*
G36*
X4416500Y2162598D02*
X4414549Y2162210D01*
X4412895Y2161105D01*
X4411790Y2159451D01*
X4411402Y2157500D01*
X4411790Y2155549D01*
X4412895Y2153895D01*
X4414549Y2152790D01*
X4416500Y2152402D01*
X4418451Y2152790D01*
X4420105Y2153895D01*
X4421210Y2155549D01*
X4421598Y2157500D01*
X4421210Y2159451D01*
X4420105Y2161105D01*
X4418451Y2162210D01*
X4416500Y2162598D01*
D02*
G37*
G36*
X4132500Y2162348D02*
X4130549Y2161960D01*
X4128895Y2160855D01*
X4127790Y2159201D01*
X4127402Y2157250D01*
X4127790Y2155299D01*
X4128895Y2153645D01*
X4130549Y2152540D01*
X4132500Y2152152D01*
X4134451Y2152540D01*
X4136105Y2153645D01*
X4137210Y2155299D01*
X4137598Y2157250D01*
X4137210Y2159201D01*
X4136105Y2160855D01*
X4134451Y2161960D01*
X4132500Y2162348D01*
D02*
G37*
G36*
X4519750Y2151098D02*
X4517799Y2150710D01*
X4516145Y2149605D01*
X4515040Y2147951D01*
X4514652Y2146000D01*
X4515040Y2144049D01*
X4516145Y2142395D01*
X4517799Y2141290D01*
X4519750Y2140902D01*
X4521701Y2141290D01*
X4523355Y2142395D01*
X4524460Y2144049D01*
X4524848Y2146000D01*
X4524460Y2147951D01*
X4523355Y2149605D01*
X4521701Y2150710D01*
X4519750Y2151098D01*
D02*
G37*
G36*
X4229250Y2138098D02*
X4227299Y2137710D01*
X4225645Y2136605D01*
X4224540Y2134951D01*
X4224152Y2133000D01*
X4224540Y2131049D01*
X4225645Y2129395D01*
X4227299Y2128290D01*
X4229250Y2127902D01*
X4231201Y2128290D01*
X4232855Y2129395D01*
X4233960Y2131049D01*
X4234348Y2133000D01*
X4233960Y2134951D01*
X4232855Y2136605D01*
X4231201Y2137710D01*
X4229250Y2138098D01*
D02*
G37*
G36*
X4268903Y2129348D02*
X4266952Y2128960D01*
X4265298Y2127855D01*
X4264193Y2126201D01*
X4263805Y2124250D01*
X4264193Y2122299D01*
X4265298Y2120645D01*
X4266952Y2119540D01*
X4268903Y2119152D01*
X4270854Y2119540D01*
X4272508Y2120645D01*
X4273613Y2122299D01*
X4274001Y2124250D01*
X4273613Y2126201D01*
X4272508Y2127855D01*
X4270854Y2128960D01*
X4268903Y2129348D01*
D02*
G37*
G36*
X4410750Y2120848D02*
X4408799Y2120460D01*
X4407145Y2119355D01*
X4406040Y2117701D01*
X4405652Y2115750D01*
X4406040Y2113799D01*
X4407145Y2112145D01*
X4408799Y2111040D01*
X4410750Y2110652D01*
X4412701Y2111040D01*
X4414355Y2112145D01*
X4415460Y2113799D01*
X4415848Y2115750D01*
X4415460Y2117701D01*
X4414355Y2119355D01*
X4412701Y2120460D01*
X4410750Y2120848D01*
D02*
G37*
G36*
X4231000Y2120098D02*
X4229049Y2119710D01*
X4227395Y2118605D01*
X4226290Y2116951D01*
X4225902Y2115000D01*
X4226290Y2113049D01*
X4227395Y2111395D01*
X4229049Y2110290D01*
X4231000Y2109902D01*
X4232951Y2110290D01*
X4234605Y2111395D01*
X4235710Y2113049D01*
X4236098Y2115000D01*
X4235710Y2116951D01*
X4234605Y2118605D01*
X4232951Y2119710D01*
X4231000Y2120098D01*
D02*
G37*
G36*
X4212500Y2111598D02*
X4210549Y2111210D01*
X4208895Y2110105D01*
X4207790Y2108451D01*
X4207577Y2107379D01*
X4206250Y2106348D01*
X4204736Y2106047D01*
X4203460Y2105951D01*
X4202355Y2107605D01*
X4200701Y2108710D01*
X4198750Y2109098D01*
X4196799Y2108710D01*
X4195145Y2107605D01*
X4194040Y2105951D01*
X4193652Y2104000D01*
X4194040Y2102049D01*
X4195145Y2100395D01*
X4196799Y2099290D01*
X4198750Y2098902D01*
X4200264Y2099203D01*
X4201540Y2099299D01*
X4202645Y2097645D01*
X4204299Y2096540D01*
X4206250Y2096152D01*
X4208201Y2096540D01*
X4209855Y2097645D01*
X4210960Y2099299D01*
X4211173Y2100371D01*
X4212500Y2101402D01*
X4214451Y2101790D01*
X4216105Y2102895D01*
X4217210Y2104549D01*
X4217598Y2106500D01*
X4217210Y2108451D01*
X4216105Y2110105D01*
X4214451Y2111210D01*
X4212500Y2111598D01*
D02*
G37*
G36*
X4117500Y2105848D02*
X4115549Y2105460D01*
X4113895Y2104355D01*
X4112790Y2102701D01*
X4112402Y2100750D01*
X4112790Y2098799D01*
X4113895Y2097145D01*
X4115549Y2096040D01*
X4117500Y2095652D01*
X4119451Y2096040D01*
X4121105Y2097145D01*
X4122210Y2098799D01*
X4122598Y2100750D01*
X4122210Y2102701D01*
X4121105Y2104355D01*
X4119451Y2105460D01*
X4117500Y2105848D01*
D02*
G37*
G36*
X4181000Y2098098D02*
X4179049Y2097710D01*
X4177395Y2096605D01*
X4176290Y2094951D01*
X4175902Y2093000D01*
X4176290Y2091049D01*
X4177395Y2089395D01*
X4179049Y2088290D01*
X4181000Y2087902D01*
X4182951Y2088290D01*
X4184605Y2089395D01*
X4185710Y2091049D01*
X4186098Y2093000D01*
X4185710Y2094951D01*
X4184605Y2096605D01*
X4182951Y2097710D01*
X4181000Y2098098D01*
D02*
G37*
G36*
X4141000Y2044098D02*
X4139049Y2043710D01*
X4137395Y2042605D01*
X4136290Y2040951D01*
X4135902Y2039000D01*
X4136290Y2037049D01*
X4137395Y2035395D01*
X4139049Y2034290D01*
X4141000Y2033902D01*
X4142951Y2034290D01*
X4144605Y2035395D01*
X4145710Y2037049D01*
X4146098Y2039000D01*
X4145710Y2040951D01*
X4144605Y2042605D01*
X4142951Y2043710D01*
X4141000Y2044098D01*
D02*
G37*
G36*
X4322000Y2040098D02*
X4320049Y2039710D01*
X4318395Y2038605D01*
X4317290Y2036951D01*
X4316902Y2035000D01*
X4317290Y2033049D01*
X4317944Y2032070D01*
X4318143Y2031773D01*
X4317227Y2030857D01*
X4316930Y2031056D01*
X4315951Y2031710D01*
X4314000Y2032098D01*
X4312049Y2031710D01*
X4311070Y2031056D01*
X4310773Y2030857D01*
X4309857Y2031773D01*
X4310056Y2032070D01*
X4310710Y2033049D01*
X4311098Y2035000D01*
X4310710Y2036951D01*
X4309605Y2038605D01*
X4307951Y2039710D01*
X4306000Y2040098D01*
X4304049Y2039710D01*
X4302395Y2038605D01*
X4301290Y2036951D01*
X4300902Y2035000D01*
X4301290Y2033049D01*
X4301944Y2032070D01*
X4302143Y2031773D01*
X4301227Y2030857D01*
X4300930Y2031056D01*
X4299951Y2031710D01*
X4298000Y2032098D01*
X4296049Y2031710D01*
X4294395Y2030605D01*
X4293290Y2028951D01*
X4292902Y2027000D01*
X4293290Y2025049D01*
X4294395Y2023395D01*
X4296049Y2022290D01*
X4298000Y2021902D01*
X4299951Y2022290D01*
X4301605Y2023395D01*
X4302710Y2025049D01*
X4303098Y2027000D01*
X4302710Y2028951D01*
X4302056Y2029930D01*
X4301857Y2030227D01*
X4302773Y2031143D01*
X4303070Y2030944D01*
X4304049Y2030290D01*
X4306000Y2029902D01*
X4307951Y2030290D01*
X4308930Y2030944D01*
X4309227Y2031143D01*
X4310143Y2030227D01*
X4309944Y2029930D01*
X4309290Y2028951D01*
X4308902Y2027000D01*
X4309290Y2025049D01*
X4310395Y2023395D01*
X4312049Y2022290D01*
X4314000Y2021902D01*
X4315951Y2022290D01*
X4317605Y2023395D01*
X4318710Y2025049D01*
X4319098Y2027000D01*
X4318710Y2028951D01*
X4318056Y2029930D01*
X4317857Y2030227D01*
X4318773Y2031143D01*
X4319070Y2030944D01*
X4320049Y2030290D01*
X4322000Y2029902D01*
X4323951Y2030290D01*
X4325605Y2031395D01*
X4326710Y2033049D01*
X4327098Y2035000D01*
X4326710Y2036951D01*
X4325605Y2038605D01*
X4323951Y2039710D01*
X4322000Y2040098D01*
D02*
G37*
G36*
X4252000D02*
X4250049Y2039710D01*
X4248395Y2038605D01*
X4247290Y2036951D01*
X4246902Y2035000D01*
X4247290Y2033049D01*
X4247944Y2032070D01*
X4248143Y2031773D01*
X4247227Y2030857D01*
X4246930Y2031056D01*
X4245951Y2031710D01*
X4244000Y2032098D01*
X4242049Y2031710D01*
X4241070Y2031056D01*
X4240773Y2030857D01*
X4239857Y2031773D01*
X4240056Y2032070D01*
X4240710Y2033049D01*
X4241098Y2035000D01*
X4240710Y2036951D01*
X4239605Y2038605D01*
X4237951Y2039710D01*
X4236000Y2040098D01*
X4234049Y2039710D01*
X4232395Y2038605D01*
X4231290Y2036951D01*
X4230902Y2035000D01*
X4231290Y2033049D01*
X4231944Y2032070D01*
X4232143Y2031773D01*
X4231227Y2030857D01*
X4230930Y2031056D01*
X4229951Y2031710D01*
X4228000Y2032098D01*
X4226049Y2031710D01*
X4224395Y2030605D01*
X4223290Y2028951D01*
X4222902Y2027000D01*
X4223290Y2025049D01*
X4224395Y2023395D01*
X4226049Y2022290D01*
X4228000Y2021902D01*
X4229951Y2022290D01*
X4231605Y2023395D01*
X4232710Y2025049D01*
X4233098Y2027000D01*
X4232710Y2028951D01*
X4232056Y2029930D01*
X4231857Y2030227D01*
X4232773Y2031143D01*
X4233070Y2030944D01*
X4234049Y2030290D01*
X4236000Y2029902D01*
X4237951Y2030290D01*
X4238930Y2030944D01*
X4239227Y2031143D01*
X4240143Y2030227D01*
X4239944Y2029930D01*
X4239290Y2028951D01*
X4238902Y2027000D01*
X4239290Y2025049D01*
X4240395Y2023395D01*
X4242049Y2022290D01*
X4244000Y2021902D01*
X4245951Y2022290D01*
X4247605Y2023395D01*
X4248710Y2025049D01*
X4249098Y2027000D01*
X4248710Y2028951D01*
X4248056Y2029930D01*
X4247857Y2030227D01*
X4248773Y2031143D01*
X4249070Y2030944D01*
X4250049Y2030290D01*
X4252000Y2029902D01*
X4253951Y2030290D01*
X4255605Y2031395D01*
X4256710Y2033049D01*
X4257098Y2035000D01*
X4256710Y2036951D01*
X4255605Y2038605D01*
X4253951Y2039710D01*
X4252000Y2040098D01*
D02*
G37*
G36*
X4287000Y2040098D02*
X4285049Y2039710D01*
X4283395Y2038605D01*
X4282290Y2036951D01*
X4281902Y2035000D01*
X4282290Y2033049D01*
X4282944Y2032070D01*
X4283143Y2031772D01*
X4282227Y2030857D01*
X4281930Y2031056D01*
X4280951Y2031710D01*
X4279000Y2032098D01*
X4277049Y2031710D01*
X4276070Y2031056D01*
X4275773Y2030857D01*
X4274857Y2031773D01*
X4275056Y2032070D01*
X4275710Y2033049D01*
X4276098Y2035000D01*
X4275710Y2036951D01*
X4274605Y2038605D01*
X4272951Y2039710D01*
X4271000Y2040098D01*
X4269049Y2039710D01*
X4267395Y2038605D01*
X4266290Y2036951D01*
X4265902Y2035000D01*
X4266290Y2033049D01*
X4266944Y2032070D01*
X4267143Y2031772D01*
X4266227Y2030857D01*
X4265930Y2031056D01*
X4264951Y2031710D01*
X4263000Y2032098D01*
X4261049Y2031710D01*
X4259395Y2030605D01*
X4258290Y2028951D01*
X4257902Y2027000D01*
X4258290Y2025049D01*
X4259395Y2023395D01*
X4261049Y2022290D01*
X4263000Y2021902D01*
X4264951Y2022290D01*
X4266605Y2023395D01*
X4267710Y2025049D01*
X4268098Y2027000D01*
X4267710Y2028951D01*
X4267056Y2029930D01*
X4266857Y2030227D01*
X4267773Y2031143D01*
X4268070Y2030944D01*
X4269049Y2030290D01*
X4271000Y2029902D01*
X4272951Y2030290D01*
X4273930Y2030944D01*
X4274227Y2031143D01*
X4275143Y2030227D01*
X4274944Y2029930D01*
X4274290Y2028951D01*
X4273902Y2027000D01*
X4274290Y2025049D01*
X4275395Y2023395D01*
X4277049Y2022290D01*
X4279000Y2021902D01*
X4280951Y2022290D01*
X4282605Y2023395D01*
X4283710Y2025049D01*
X4284098Y2027000D01*
X4283710Y2028951D01*
X4283056Y2029930D01*
X4282857Y2030227D01*
X4283773Y2031143D01*
X4284070Y2030944D01*
X4285049Y2030290D01*
X4287000Y2029902D01*
X4288951Y2030290D01*
X4290605Y2031395D01*
X4291710Y2033049D01*
X4292098Y2035000D01*
X4291710Y2036951D01*
X4290605Y2038605D01*
X4288951Y2039710D01*
X4287000Y2040098D01*
D02*
G37*
G36*
X4150000Y2017098D02*
X4148049Y2016710D01*
X4146395Y2015605D01*
X4145290Y2013951D01*
X4144902Y2012000D01*
X4145290Y2010049D01*
X4146395Y2008395D01*
X4148049Y2007290D01*
X4150000Y2006902D01*
X4151951Y2007290D01*
X4153605Y2008395D01*
X4154710Y2010049D01*
X4155098Y2012000D01*
X4154710Y2013951D01*
X4153605Y2015605D01*
X4151951Y2016710D01*
X4150000Y2017098D01*
D02*
G37*
G36*
X4451000Y2107598D02*
X4449049Y2107210D01*
X4447395Y2106105D01*
X4446290Y2104451D01*
X4445902Y2102500D01*
X4446290Y2100549D01*
X4446896Y2099643D01*
X4446922Y2099152D01*
Y2075189D01*
X4380811Y2009078D01*
X4188750D01*
X4187189Y2008768D01*
X4185866Y2007884D01*
X4185866Y2007884D01*
X4175164Y1997182D01*
X4174049Y1996960D01*
X4172395Y1995855D01*
X4171290Y1994201D01*
X4170902Y1992250D01*
X4171290Y1990299D01*
X4172395Y1988645D01*
X4174049Y1987540D01*
X4176000Y1987152D01*
X4177951Y1987540D01*
X4179605Y1988645D01*
X4180710Y1990299D01*
X4180923Y1991368D01*
X4181251Y1991733D01*
X4190439Y2000922D01*
X4193745D01*
X4194231Y1999748D01*
X4178061Y1983578D01*
X4151798D01*
X4142966Y1992410D01*
X4142610Y1994201D01*
X4141505Y1995855D01*
X4139851Y1996960D01*
X4137900Y1997348D01*
X4135949Y1996960D01*
X4134295Y1995855D01*
X4133190Y1994201D01*
X4132802Y1992250D01*
X4133190Y1990299D01*
X4134295Y1988645D01*
X4135949Y1987540D01*
X4136389Y1987453D01*
X4147225Y1976616D01*
X4147225Y1976616D01*
X4148548Y1975732D01*
X4150109Y1975422D01*
X4179750D01*
X4179750Y1975422D01*
X4181311Y1975732D01*
X4182634Y1976616D01*
X4200439Y1994422D01*
X4385250D01*
X4385250Y1994422D01*
X4386811Y1994732D01*
X4388134Y1995616D01*
X4463134Y2070616D01*
X4464018Y2071939D01*
X4464328Y2073500D01*
X4464328Y2073500D01*
Y2093604D01*
X4464960Y2094549D01*
X4465348Y2096500D01*
X4464960Y2098451D01*
X4463855Y2100105D01*
X4462201Y2101210D01*
X4460250Y2101598D01*
X4458299Y2101210D01*
X4456958Y2100314D01*
X4455820Y2100912D01*
X4455788Y2100943D01*
X4456098Y2102500D01*
X4455710Y2104451D01*
X4454605Y2106105D01*
X4452951Y2107210D01*
X4451000Y2107598D01*
D02*
G37*
G36*
X4099000Y1993569D02*
X4091000D01*
X4088911Y1993294D01*
X4086965Y1992488D01*
X4085294Y1991206D01*
X4084012Y1989535D01*
X4083206Y1987589D01*
X4082931Y1985500D01*
X4083206Y1983412D01*
X4084012Y1981466D01*
X4085294Y1979794D01*
X4086965Y1978512D01*
X4088911Y1977706D01*
X4091000Y1977431D01*
X4099000D01*
X4101088Y1977706D01*
X4103034Y1978512D01*
X4104706Y1979794D01*
X4105988Y1981466D01*
X4106794Y1983412D01*
X4107069Y1985500D01*
X4106794Y1987589D01*
X4105988Y1989535D01*
X4104706Y1991206D01*
X4103034Y1992488D01*
X4101088Y1993294D01*
X4099000Y1993569D01*
D02*
G37*
G36*
X4095000Y1972069D02*
X4092912Y1971794D01*
X4090966Y1970988D01*
X4089294Y1969706D01*
X4088012Y1968035D01*
X4087206Y1966089D01*
X4086931Y1964000D01*
X4087206Y1961912D01*
X4088012Y1959966D01*
X4089294Y1958294D01*
X4090966Y1957012D01*
X4092912Y1956206D01*
X4095000Y1955931D01*
X4097088Y1956206D01*
X4099034Y1957012D01*
X4100706Y1958294D01*
X4101988Y1959966D01*
X4102794Y1961912D01*
X4103069Y1964000D01*
X4102794Y1966089D01*
X4101988Y1968035D01*
X4100706Y1969706D01*
X4099034Y1970988D01*
X4097088Y1971794D01*
X4095000Y1972069D01*
D02*
G37*
G36*
X4159000Y1962098D02*
X4157049Y1961710D01*
X4155395Y1960605D01*
X4154290Y1958951D01*
X4153902Y1957000D01*
X4154290Y1955049D01*
X4155395Y1953395D01*
X4157049Y1952290D01*
X4159000Y1951902D01*
X4160951Y1952290D01*
X4162605Y1953395D01*
X4163710Y1955049D01*
X4164098Y1957000D01*
X4163710Y1958951D01*
X4162605Y1960605D01*
X4160951Y1961710D01*
X4159000Y1962098D01*
D02*
G37*
G36*
X4095000Y1952069D02*
X4092912Y1951794D01*
X4090966Y1950988D01*
X4089294Y1949706D01*
X4088012Y1948035D01*
X4087206Y1946089D01*
X4086931Y1944000D01*
X4087206Y1941912D01*
X4088012Y1939966D01*
X4089294Y1938294D01*
X4090966Y1937012D01*
X4092912Y1936206D01*
X4095000Y1935931D01*
X4097088Y1936206D01*
X4099034Y1937012D01*
X4100706Y1938294D01*
X4101988Y1939966D01*
X4102794Y1941912D01*
X4103069Y1944000D01*
X4102794Y1946089D01*
X4101988Y1948035D01*
X4100706Y1949706D01*
X4099034Y1950988D01*
X4097088Y1951794D01*
X4095000Y1952069D01*
D02*
G37*
G36*
X4096000Y1932482D02*
Y1925000D01*
X4103482D01*
X4103320Y1926229D01*
X4102460Y1928307D01*
X4101091Y1930091D01*
X4099307Y1931460D01*
X4097229Y1932320D01*
X4096000Y1932482D01*
D02*
G37*
G36*
X4094000Y1932482D02*
X4092771Y1932320D01*
X4090693Y1931460D01*
X4088909Y1930091D01*
X4087540Y1928307D01*
X4086680Y1926229D01*
X4086518Y1925000D01*
X4094000D01*
Y1932482D01*
D02*
G37*
G36*
Y1923000D02*
X4086518D01*
X4086680Y1921771D01*
X4087540Y1919693D01*
X4088909Y1917909D01*
X4090693Y1916540D01*
X4092771Y1915680D01*
X4094000Y1915518D01*
Y1923000D01*
D02*
G37*
G36*
X4103482D02*
X4096000D01*
Y1915518D01*
X4097229Y1915680D01*
X4099307Y1916540D01*
X4101091Y1917909D01*
X4102460Y1919693D01*
X4103320Y1921771D01*
X4103482Y1923000D01*
D02*
G37*
G36*
X4309750Y1910348D02*
X4307799Y1909960D01*
X4306145Y1908855D01*
X4305040Y1907201D01*
X4304652Y1905250D01*
X4305040Y1903299D01*
X4306145Y1901645D01*
X4307799Y1900540D01*
X4309750Y1900152D01*
X4311701Y1900540D01*
X4313355Y1901645D01*
X4314460Y1903299D01*
X4314848Y1905250D01*
X4314460Y1907201D01*
X4313355Y1908855D01*
X4311701Y1909960D01*
X4309750Y1910348D01*
D02*
G37*
G36*
X4099000Y1910569D02*
X4091000D01*
X4088911Y1910294D01*
X4086965Y1909488D01*
X4085294Y1908206D01*
X4084012Y1906534D01*
X4083206Y1904588D01*
X4082931Y1902500D01*
X4083206Y1900412D01*
X4084012Y1898466D01*
X4085294Y1896794D01*
X4086965Y1895512D01*
X4088911Y1894706D01*
X4091000Y1894431D01*
X4099000D01*
X4101088Y1894706D01*
X4103034Y1895512D01*
X4104706Y1896794D01*
X4105988Y1898466D01*
X4106794Y1900412D01*
X4107069Y1902500D01*
X4106794Y1904588D01*
X4105988Y1906534D01*
X4104706Y1908206D01*
X4103034Y1909488D01*
X4101088Y1910294D01*
X4099000Y1910569D01*
D02*
G37*
G36*
X4222250Y1990848D02*
X4220299Y1990460D01*
X4218645Y1989355D01*
X4217540Y1987701D01*
X4217327Y1986632D01*
X4216999Y1986266D01*
X4106316Y1875584D01*
X4105432Y1874261D01*
X4105121Y1872700D01*
X4105121Y1872700D01*
Y1871886D01*
X4103852Y1871455D01*
X4103289Y1872189D01*
X4101095Y1873872D01*
X4098541Y1874930D01*
X4095800Y1875291D01*
X4093059Y1874930D01*
X4090505Y1873872D01*
X4088311Y1872189D01*
X4086628Y1869995D01*
X4085570Y1867441D01*
X4085209Y1864700D01*
X4085570Y1861959D01*
X4086628Y1859405D01*
X4088311Y1857211D01*
X4090505Y1855528D01*
X4093059Y1854470D01*
X4095800Y1854109D01*
X4098541Y1854470D01*
X4101095Y1855528D01*
X4103289Y1857211D01*
X4103852Y1857945D01*
X4105121Y1857514D01*
Y1854389D01*
X4102000Y1851268D01*
X4101649Y1851019D01*
X4101188Y1850759D01*
X4100658Y1850524D01*
X4100054Y1850318D01*
X4099375Y1850144D01*
X4098649Y1850012D01*
X4096856Y1849851D01*
X4096165Y1849843D01*
X4095800Y1849891D01*
X4093059Y1849530D01*
X4090505Y1848472D01*
X4088311Y1846789D01*
X4086628Y1844595D01*
X4085570Y1842041D01*
X4085209Y1839300D01*
X4085570Y1836559D01*
X4086628Y1834005D01*
X4088311Y1831811D01*
X4090505Y1830128D01*
X4093059Y1829070D01*
X4095800Y1828709D01*
X4098541Y1829070D01*
X4101095Y1830128D01*
X4103289Y1831811D01*
X4104972Y1834005D01*
X4106030Y1836559D01*
X4106391Y1839300D01*
X4106342Y1839665D01*
X4106352Y1840384D01*
X4106408Y1841289D01*
X4106506Y1842120D01*
X4106644Y1842875D01*
X4106818Y1843554D01*
X4107024Y1844158D01*
X4107259Y1844688D01*
X4107519Y1845149D01*
X4107768Y1845500D01*
X4112084Y1849816D01*
X4112968Y1851139D01*
X4113278Y1852700D01*
Y1855943D01*
X4114548Y1856569D01*
X4115905Y1855528D01*
X4118459Y1854470D01*
X4121200Y1854109D01*
X4123941Y1854470D01*
X4126495Y1855528D01*
X4128689Y1857211D01*
X4130372Y1859405D01*
X4131430Y1861959D01*
X4131790Y1864700D01*
X4131430Y1867441D01*
X4130372Y1869995D01*
X4128689Y1872189D01*
X4126495Y1873872D01*
X4123941Y1874930D01*
X4121200Y1875291D01*
X4119074Y1875011D01*
X4118481Y1876214D01*
X4223086Y1980818D01*
X4224201Y1981040D01*
X4225855Y1982145D01*
X4226960Y1983799D01*
X4227348Y1985750D01*
X4226960Y1987701D01*
X4225855Y1989355D01*
X4224201Y1990460D01*
X4222250Y1990848D01*
D02*
G37*
G36*
X4147600Y1875704D02*
Y1865700D01*
X4157603D01*
X4157356Y1867582D01*
X4156243Y1870268D01*
X4154474Y1872574D01*
X4152168Y1874343D01*
X4149482Y1875456D01*
X4147600Y1875704D01*
D02*
G37*
G36*
X4145600D02*
X4143718Y1875456D01*
X4141032Y1874343D01*
X4138726Y1872574D01*
X4136956Y1870268D01*
X4135844Y1867582D01*
X4135596Y1865700D01*
X4145600D01*
Y1875704D01*
D02*
G37*
G36*
X4248200Y1875291D02*
X4245459Y1874930D01*
X4242905Y1873872D01*
X4240711Y1872189D01*
X4239028Y1869995D01*
X4237970Y1867441D01*
X4237609Y1864700D01*
X4237970Y1861959D01*
X4239028Y1859405D01*
X4240711Y1857211D01*
X4242905Y1855528D01*
X4245459Y1854470D01*
X4248200Y1854109D01*
X4250941Y1854470D01*
X4253495Y1855528D01*
X4255689Y1857211D01*
X4257372Y1859405D01*
X4258430Y1861959D01*
X4258791Y1864700D01*
X4258430Y1867441D01*
X4257372Y1869995D01*
X4255689Y1872189D01*
X4253495Y1873872D01*
X4250941Y1874930D01*
X4248200Y1875291D01*
D02*
G37*
G36*
X4222800D02*
X4220059Y1874930D01*
X4217505Y1873872D01*
X4215311Y1872189D01*
X4213628Y1869995D01*
X4212570Y1867441D01*
X4212209Y1864700D01*
X4212570Y1861959D01*
X4213628Y1859405D01*
X4215311Y1857211D01*
X4217505Y1855528D01*
X4220059Y1854470D01*
X4222800Y1854109D01*
X4225541Y1854470D01*
X4228095Y1855528D01*
X4230289Y1857211D01*
X4231972Y1859405D01*
X4233030Y1861959D01*
X4233391Y1864700D01*
X4233030Y1867441D01*
X4231972Y1869995D01*
X4230289Y1872189D01*
X4228095Y1873872D01*
X4225541Y1874930D01*
X4222800Y1875291D01*
D02*
G37*
G36*
X4197400D02*
X4194659Y1874930D01*
X4192105Y1873872D01*
X4189911Y1872189D01*
X4188228Y1869995D01*
X4187170Y1867441D01*
X4186809Y1864700D01*
X4187170Y1861959D01*
X4188228Y1859405D01*
X4189911Y1857211D01*
X4192105Y1855528D01*
X4194659Y1854470D01*
X4197400Y1854109D01*
X4200141Y1854470D01*
X4202695Y1855528D01*
X4204889Y1857211D01*
X4206572Y1859405D01*
X4207630Y1861959D01*
X4207991Y1864700D01*
X4207630Y1867441D01*
X4206572Y1869995D01*
X4204889Y1872189D01*
X4202695Y1873872D01*
X4200141Y1874930D01*
X4197400Y1875291D01*
D02*
G37*
G36*
X4172000D02*
X4169259Y1874930D01*
X4166705Y1873872D01*
X4164511Y1872189D01*
X4162828Y1869995D01*
X4161770Y1867441D01*
X4161409Y1864700D01*
X4161770Y1861959D01*
X4162828Y1859405D01*
X4164511Y1857211D01*
X4166705Y1855528D01*
X4169259Y1854470D01*
X4172000Y1854109D01*
X4174741Y1854470D01*
X4177295Y1855528D01*
X4179489Y1857211D01*
X4181172Y1859405D01*
X4182230Y1861959D01*
X4182591Y1864700D01*
X4182230Y1867441D01*
X4181172Y1869995D01*
X4179489Y1872189D01*
X4177295Y1873872D01*
X4174741Y1874930D01*
X4172000Y1875291D01*
D02*
G37*
G36*
X4145600Y1863700D02*
X4135596D01*
X4135844Y1861818D01*
X4136956Y1859132D01*
X4138726Y1856826D01*
X4141032Y1855057D01*
X4143718Y1853944D01*
X4145600Y1853696D01*
Y1863700D01*
D02*
G37*
G36*
X4157603D02*
X4147600D01*
Y1853696D01*
X4149482Y1853944D01*
X4152168Y1855057D01*
X4154474Y1856826D01*
X4156243Y1859132D01*
X4157356Y1861818D01*
X4157603Y1863700D01*
D02*
G37*
G36*
X4147600Y1850304D02*
Y1840300D01*
X4157603D01*
X4157356Y1842182D01*
X4156243Y1844868D01*
X4154474Y1847174D01*
X4152168Y1848943D01*
X4149482Y1850056D01*
X4147600Y1850304D01*
D02*
G37*
G36*
X4145600D02*
X4143718Y1850056D01*
X4141032Y1848943D01*
X4138726Y1847174D01*
X4136956Y1844868D01*
X4135844Y1842182D01*
X4135596Y1840300D01*
X4145600D01*
Y1850304D01*
D02*
G37*
G36*
X4248200Y1849891D02*
X4245459Y1849530D01*
X4242905Y1848472D01*
X4240711Y1846789D01*
X4239028Y1844595D01*
X4237970Y1842041D01*
X4237609Y1839300D01*
X4237970Y1836559D01*
X4239028Y1834005D01*
X4240711Y1831811D01*
X4242905Y1830128D01*
X4245459Y1829070D01*
X4248200Y1828709D01*
X4250941Y1829070D01*
X4253495Y1830128D01*
X4255689Y1831811D01*
X4257372Y1834005D01*
X4258430Y1836559D01*
X4258791Y1839300D01*
X4258430Y1842041D01*
X4257372Y1844595D01*
X4255689Y1846789D01*
X4253495Y1848472D01*
X4250941Y1849530D01*
X4248200Y1849891D01*
D02*
G37*
G36*
X4222800D02*
X4220059Y1849530D01*
X4217505Y1848472D01*
X4215311Y1846789D01*
X4213628Y1844595D01*
X4212570Y1842041D01*
X4212209Y1839300D01*
X4212570Y1836559D01*
X4213628Y1834005D01*
X4215311Y1831811D01*
X4217505Y1830128D01*
X4220059Y1829070D01*
X4222800Y1828709D01*
X4225541Y1829070D01*
X4228095Y1830128D01*
X4230289Y1831811D01*
X4231972Y1834005D01*
X4233030Y1836559D01*
X4233391Y1839300D01*
X4233030Y1842041D01*
X4231972Y1844595D01*
X4230289Y1846789D01*
X4228095Y1848472D01*
X4225541Y1849530D01*
X4222800Y1849891D01*
D02*
G37*
G36*
X4197400D02*
X4194659Y1849530D01*
X4192105Y1848472D01*
X4189911Y1846789D01*
X4188228Y1844595D01*
X4187170Y1842041D01*
X4186809Y1839300D01*
X4187170Y1836559D01*
X4188228Y1834005D01*
X4189911Y1831811D01*
X4192105Y1830128D01*
X4194659Y1829070D01*
X4197400Y1828709D01*
X4200141Y1829070D01*
X4202695Y1830128D01*
X4204889Y1831811D01*
X4206572Y1834005D01*
X4207630Y1836559D01*
X4207991Y1839300D01*
X4207630Y1842041D01*
X4206572Y1844595D01*
X4204889Y1846789D01*
X4202695Y1848472D01*
X4200141Y1849530D01*
X4197400Y1849891D01*
D02*
G37*
G36*
X4172000D02*
X4169259Y1849530D01*
X4166705Y1848472D01*
X4164511Y1846789D01*
X4162828Y1844595D01*
X4161770Y1842041D01*
X4161409Y1839300D01*
X4161770Y1836559D01*
X4162828Y1834005D01*
X4164511Y1831811D01*
X4166705Y1830128D01*
X4169259Y1829070D01*
X4172000Y1828709D01*
X4174741Y1829070D01*
X4177295Y1830128D01*
X4179489Y1831811D01*
X4181172Y1834005D01*
X4182230Y1836559D01*
X4182591Y1839300D01*
X4182230Y1842041D01*
X4181172Y1844595D01*
X4179489Y1846789D01*
X4177295Y1848472D01*
X4174741Y1849530D01*
X4172000Y1849891D01*
D02*
G37*
G36*
X4121200D02*
X4118459Y1849530D01*
X4115905Y1848472D01*
X4113711Y1846789D01*
X4112028Y1844595D01*
X4110970Y1842041D01*
X4110609Y1839300D01*
X4110970Y1836559D01*
X4112028Y1834005D01*
X4113711Y1831811D01*
X4115905Y1830128D01*
X4118459Y1829070D01*
X4121200Y1828709D01*
X4123941Y1829070D01*
X4126495Y1830128D01*
X4128689Y1831811D01*
X4130372Y1834005D01*
X4131430Y1836559D01*
X4131790Y1839300D01*
X4131430Y1842041D01*
X4130372Y1844595D01*
X4128689Y1846789D01*
X4126495Y1848472D01*
X4123941Y1849530D01*
X4121200Y1849891D01*
D02*
G37*
G36*
X4145600Y1838300D02*
X4135596D01*
X4135844Y1836418D01*
X4136956Y1833732D01*
X4138726Y1831426D01*
X4141032Y1829657D01*
X4143718Y1828544D01*
X4145600Y1828296D01*
Y1838300D01*
D02*
G37*
G36*
X4157603D02*
X4147600D01*
Y1828296D01*
X4149482Y1828544D01*
X4152168Y1829657D01*
X4154474Y1831426D01*
X4156243Y1833732D01*
X4157356Y1836418D01*
X4157603Y1838300D01*
D02*
G37*
%LPD*%
G36*
X4502639Y2175791D02*
X4502854Y2175622D01*
X4503081Y2175474D01*
X4503318Y2175345D01*
X4503566Y2175237D01*
X4503825Y2175149D01*
X4504095Y2175082D01*
X4504376Y2175034D01*
X4504667Y2175007D01*
X4504970Y2175000D01*
X4502000Y2172030D01*
X4501993Y2172333D01*
X4501966Y2172624D01*
X4501919Y2172905D01*
X4501851Y2173175D01*
X4501763Y2173434D01*
X4501655Y2173682D01*
X4501526Y2173919D01*
X4501378Y2174146D01*
X4501209Y2174361D01*
X4501020Y2174566D01*
X4502434Y2175980D01*
X4502639Y2175791D01*
D02*
G37*
G36*
X4510858Y2161900D02*
X4510639Y2162109D01*
X4510413Y2162296D01*
X4510181Y2162461D01*
X4509942Y2162604D01*
X4509697Y2162725D01*
X4509445Y2162824D01*
X4509187Y2162901D01*
X4508922Y2162956D01*
X4508650Y2162989D01*
X4508372Y2163000D01*
Y2165000D01*
X4508650Y2165011D01*
X4508922Y2165044D01*
X4509187Y2165099D01*
X4509445Y2165176D01*
X4509697Y2165275D01*
X4509942Y2165396D01*
X4510181Y2165539D01*
X4510413Y2165704D01*
X4510639Y2165891D01*
X4510858Y2166100D01*
Y2161900D01*
D02*
G37*
G36*
X4502639Y2159791D02*
X4502854Y2159622D01*
X4503081Y2159474D01*
X4503318Y2159345D01*
X4503566Y2159237D01*
X4503825Y2159149D01*
X4504095Y2159082D01*
X4504376Y2159034D01*
X4504667Y2159007D01*
X4504970Y2159000D01*
X4502000Y2156030D01*
X4501993Y2156333D01*
X4501966Y2156624D01*
X4501919Y2156905D01*
X4501851Y2157175D01*
X4501763Y2157434D01*
X4501655Y2157682D01*
X4501526Y2157919D01*
X4501378Y2158146D01*
X4501209Y2158361D01*
X4501020Y2158566D01*
X4502434Y2159980D01*
X4502639Y2159791D01*
D02*
G37*
G36*
X4319891Y2157639D02*
X4319704Y2157413D01*
X4319539Y2157181D01*
X4319396Y2156942D01*
X4319275Y2156697D01*
X4319176Y2156445D01*
X4319099Y2156187D01*
X4319044Y2155921D01*
X4319011Y2155650D01*
X4319000Y2155372D01*
X4317000D01*
X4316989Y2155650D01*
X4316956Y2155921D01*
X4316901Y2156187D01*
X4316824Y2156445D01*
X4316725Y2156697D01*
X4316604Y2156942D01*
X4316461Y2157181D01*
X4316296Y2157413D01*
X4316109Y2157639D01*
X4315900Y2157858D01*
X4320100D01*
X4319891Y2157639D01*
D02*
G37*
G36*
X4311641D02*
X4311454Y2157413D01*
X4311289Y2157181D01*
X4311146Y2156942D01*
X4311025Y2156697D01*
X4310926Y2156445D01*
X4310849Y2156187D01*
X4310794Y2155921D01*
X4310761Y2155650D01*
X4310750Y2155372D01*
X4308750D01*
X4308739Y2155650D01*
X4308706Y2155921D01*
X4308651Y2156187D01*
X4308574Y2156445D01*
X4308475Y2156697D01*
X4308354Y2156942D01*
X4308211Y2157181D01*
X4308046Y2157413D01*
X4307859Y2157639D01*
X4307650Y2157858D01*
X4311850D01*
X4311641Y2157639D01*
D02*
G37*
G36*
X4303391D02*
X4303204Y2157413D01*
X4303039Y2157181D01*
X4302896Y2156942D01*
X4302775Y2156697D01*
X4302676Y2156445D01*
X4302599Y2156187D01*
X4302544Y2155921D01*
X4302511Y2155650D01*
X4302500Y2155372D01*
X4300500D01*
X4300489Y2155650D01*
X4300456Y2155921D01*
X4300401Y2156187D01*
X4300324Y2156445D01*
X4300225Y2156697D01*
X4300104Y2156942D01*
X4299961Y2157181D01*
X4299796Y2157413D01*
X4299609Y2157639D01*
X4299400Y2157858D01*
X4303600D01*
X4303391Y2157639D01*
D02*
G37*
G36*
X4393011Y2039350D02*
X4393044Y2039079D01*
X4393099Y2038813D01*
X4393176Y2038555D01*
X4393275Y2038303D01*
X4393396Y2038058D01*
X4393539Y2037819D01*
X4393704Y2037587D01*
X4393891Y2037361D01*
X4394100Y2037142D01*
X4389900D01*
X4390109Y2037361D01*
X4390296Y2037587D01*
X4390461Y2037819D01*
X4390604Y2038058D01*
X4390725Y2038303D01*
X4390824Y2038555D01*
X4390901Y2038813D01*
X4390956Y2039079D01*
X4390989Y2039350D01*
X4391000Y2039628D01*
X4393000D01*
X4393011Y2039350D01*
D02*
G37*
G36*
X4358011D02*
X4358044Y2039079D01*
X4358099Y2038813D01*
X4358176Y2038555D01*
X4358275Y2038303D01*
X4358396Y2038058D01*
X4358539Y2037819D01*
X4358704Y2037587D01*
X4358891Y2037361D01*
X4359100Y2037142D01*
X4354900D01*
X4355109Y2037361D01*
X4355296Y2037587D01*
X4355461Y2037819D01*
X4355604Y2038058D01*
X4355725Y2038303D01*
X4355824Y2038555D01*
X4355901Y2038813D01*
X4355956Y2039079D01*
X4355989Y2039350D01*
X4356000Y2039628D01*
X4358000D01*
X4358011Y2039350D01*
D02*
G37*
G36*
X4385011Y2031350D02*
X4385044Y2031078D01*
X4385099Y2030813D01*
X4385176Y2030555D01*
X4385275Y2030303D01*
X4385396Y2030058D01*
X4385539Y2029819D01*
X4385704Y2029587D01*
X4385891Y2029361D01*
X4386100Y2029142D01*
X4381900D01*
X4382109Y2029361D01*
X4382296Y2029587D01*
X4382461Y2029819D01*
X4382604Y2030058D01*
X4382725Y2030303D01*
X4382824Y2030555D01*
X4382901Y2030813D01*
X4382956Y2031078D01*
X4382989Y2031350D01*
X4383000Y2031628D01*
X4385000D01*
X4385011Y2031350D01*
D02*
G37*
G36*
X4369011D02*
X4369044Y2031078D01*
X4369099Y2030813D01*
X4369176Y2030555D01*
X4369275Y2030303D01*
X4369396Y2030058D01*
X4369539Y2029819D01*
X4369704Y2029587D01*
X4369891Y2029361D01*
X4370100Y2029142D01*
X4365900D01*
X4366109Y2029361D01*
X4366296Y2029587D01*
X4366461Y2029819D01*
X4366604Y2030058D01*
X4366725Y2030303D01*
X4366824Y2030555D01*
X4366901Y2030813D01*
X4366956Y2031078D01*
X4366989Y2031350D01*
X4367000Y2031628D01*
X4369000D01*
X4369011Y2031350D01*
D02*
G37*
G36*
X4453081Y2100321D02*
X4453064Y2100251D01*
X4453049Y2100146D01*
X4453025Y2099835D01*
X4453001Y2098806D01*
X4453000Y2098464D01*
X4449000D01*
X4448900Y2100358D01*
X4453100D01*
X4453081Y2100321D01*
D02*
G37*
G36*
X4462331Y2094321D02*
X4462314Y2094250D01*
X4462299Y2094146D01*
X4462275Y2093835D01*
X4462251Y2092806D01*
X4462250Y2092464D01*
X4458250D01*
X4458150Y2094358D01*
X4462350D01*
X4462331Y2094321D01*
D02*
G37*
G36*
X4180268Y1993690D02*
X4179000Y1992280D01*
X4176030Y1995250D01*
X4176069Y1995262D01*
X4176131Y1995300D01*
X4176216Y1995363D01*
X4176453Y1995566D01*
X4177197Y1996277D01*
X4177440Y1996518D01*
X4180268Y1993690D01*
D02*
G37*
G36*
X4140878Y1991780D02*
X4140910Y1991701D01*
X4140968Y1991602D01*
X4141053Y1991482D01*
X4141163Y1991342D01*
X4141649Y1990799D01*
X4142103Y1990334D01*
X4138777Y1988003D01*
X4137547Y1989271D01*
X4140872Y1991838D01*
X4140878Y1991780D01*
D02*
G37*
G36*
X4222220Y1982750D02*
X4222181Y1982738D01*
X4222119Y1982700D01*
X4222034Y1982637D01*
X4221797Y1982434D01*
X4221053Y1981723D01*
X4220810Y1981482D01*
X4217982Y1984310D01*
X4219250Y1985720D01*
X4222220Y1982750D01*
D02*
G37*
G36*
X4106662Y1847334D02*
X4106203Y1846819D01*
X4105794Y1846242D01*
X4105434Y1845603D01*
X4105124Y1844901D01*
X4104862Y1844138D01*
X4104651Y1843312D01*
X4104489Y1842423D01*
X4104376Y1841473D01*
X4104313Y1840460D01*
X4104300Y1839385D01*
X4095885Y1847800D01*
X4096960Y1847813D01*
X4098923Y1847989D01*
X4099812Y1848151D01*
X4100638Y1848362D01*
X4101401Y1848624D01*
X4102103Y1848934D01*
X4102742Y1849294D01*
X4103319Y1849703D01*
X4103834Y1850162D01*
X4106662Y1847334D01*
D02*
G37*
%LPC*%
G36*
X4606700Y2751754D02*
Y2741750D01*
X4616703D01*
X4616456Y2743632D01*
X4615343Y2746318D01*
X4613574Y2748624D01*
X4611268Y2750393D01*
X4608582Y2751506D01*
X4606700Y2751754D01*
D02*
G37*
G36*
X4604700D02*
X4602818Y2751506D01*
X4600132Y2750393D01*
X4597826Y2748624D01*
X4596057Y2746318D01*
X4594944Y2743632D01*
X4594696Y2741750D01*
X4604700D01*
Y2751754D01*
D02*
G37*
G36*
X4681900Y2751341D02*
X4679159Y2750980D01*
X4676605Y2749922D01*
X4674411Y2748239D01*
X4672728Y2746045D01*
X4671670Y2743491D01*
X4671310Y2740750D01*
X4671670Y2738009D01*
X4672728Y2735455D01*
X4674411Y2733261D01*
X4676605Y2731578D01*
X4679159Y2730520D01*
X4681900Y2730159D01*
X4684641Y2730520D01*
X4687195Y2731578D01*
X4689389Y2733261D01*
X4691072Y2735455D01*
X4692130Y2738009D01*
X4692491Y2740750D01*
X4692130Y2743491D01*
X4691072Y2746045D01*
X4689389Y2748239D01*
X4687195Y2749922D01*
X4684641Y2750980D01*
X4681900Y2751341D01*
D02*
G37*
G36*
X4656500D02*
X4653759Y2750980D01*
X4651205Y2749922D01*
X4649011Y2748239D01*
X4647328Y2746045D01*
X4646270Y2743491D01*
X4645909Y2740750D01*
X4646270Y2738009D01*
X4647328Y2735455D01*
X4649011Y2733261D01*
X4651205Y2731578D01*
X4653759Y2730520D01*
X4656500Y2730159D01*
X4659241Y2730520D01*
X4661795Y2731578D01*
X4663989Y2733261D01*
X4665672Y2735455D01*
X4666730Y2738009D01*
X4667090Y2740750D01*
X4666730Y2743491D01*
X4665672Y2746045D01*
X4663989Y2748239D01*
X4661795Y2749922D01*
X4659241Y2750980D01*
X4656500Y2751341D01*
D02*
G37*
G36*
X4631100D02*
X4628359Y2750980D01*
X4625805Y2749922D01*
X4623611Y2748239D01*
X4621928Y2746045D01*
X4620870Y2743491D01*
X4620509Y2740750D01*
X4620870Y2738009D01*
X4621928Y2735455D01*
X4623611Y2733261D01*
X4625805Y2731578D01*
X4628359Y2730520D01*
X4631100Y2730159D01*
X4633841Y2730520D01*
X4636395Y2731578D01*
X4638589Y2733261D01*
X4640272Y2735455D01*
X4641330Y2738009D01*
X4641691Y2740750D01*
X4641330Y2743491D01*
X4640272Y2746045D01*
X4638589Y2748239D01*
X4636395Y2749922D01*
X4633841Y2750980D01*
X4631100Y2751341D01*
D02*
G37*
G36*
X4616703Y2739750D02*
X4606700D01*
Y2729746D01*
X4608582Y2729994D01*
X4611268Y2731107D01*
X4613574Y2732876D01*
X4615343Y2735182D01*
X4616456Y2737868D01*
X4616703Y2739750D01*
D02*
G37*
G36*
X4604700D02*
X4594696D01*
X4594944Y2737868D01*
X4596057Y2735182D01*
X4597826Y2732876D01*
X4600132Y2731107D01*
X4602818Y2729994D01*
X4604700Y2729746D01*
Y2739750D01*
D02*
G37*
G36*
X4669250Y2725098D02*
X4667299Y2724710D01*
X4665645Y2723605D01*
X4664540Y2721951D01*
X4664152Y2720000D01*
X4664540Y2718049D01*
X4665645Y2716395D01*
X4667299Y2715290D01*
X4669250Y2714902D01*
X4671201Y2715290D01*
X4672855Y2716395D01*
X4673960Y2718049D01*
X4674348Y2720000D01*
X4673960Y2721951D01*
X4672855Y2723605D01*
X4671201Y2724710D01*
X4669250Y2725098D01*
D02*
G37*
G36*
X4674250Y2670348D02*
X4672299Y2669960D01*
X4670645Y2668855D01*
X4669540Y2667201D01*
X4669152Y2665250D01*
X4669540Y2663299D01*
X4670645Y2661645D01*
X4672299Y2660540D01*
X4674250Y2660152D01*
X4676201Y2660540D01*
X4677855Y2661645D01*
X4678960Y2663299D01*
X4679348Y2665250D01*
X4678960Y2667201D01*
X4677855Y2668855D01*
X4676201Y2669960D01*
X4674250Y2670348D01*
D02*
G37*
G36*
X4655200D02*
X4653249Y2669960D01*
X4651595Y2668855D01*
X4650490Y2667201D01*
X4650102Y2665250D01*
X4650490Y2663299D01*
X4651595Y2661645D01*
X4653249Y2660540D01*
X4655200Y2660152D01*
X4657151Y2660540D01*
X4658805Y2661645D01*
X4659910Y2663299D01*
X4660298Y2665250D01*
X4659910Y2667201D01*
X4658805Y2668855D01*
X4657151Y2669960D01*
X4655200Y2670348D01*
D02*
G37*
G36*
X4661500Y2651098D02*
X4659549Y2650710D01*
X4657895Y2649605D01*
X4656790Y2647951D01*
X4656402Y2646000D01*
X4656790Y2644049D01*
X4657895Y2642395D01*
X4659549Y2641290D01*
X4661500Y2640902D01*
X4663451Y2641290D01*
X4665105Y2642395D01*
X4666210Y2644049D01*
X4666598Y2646000D01*
X4666210Y2647951D01*
X4665105Y2649605D01*
X4663451Y2650710D01*
X4661500Y2651098D01*
D02*
G37*
G36*
X4615000Y2541598D02*
X4613049Y2541210D01*
X4611395Y2540105D01*
X4610290Y2538451D01*
X4609902Y2536500D01*
X4610290Y2534549D01*
X4611395Y2532895D01*
X4613049Y2531790D01*
X4615000Y2531402D01*
X4616951Y2531790D01*
X4618605Y2532895D01*
X4619710Y2534549D01*
X4620098Y2536500D01*
X4619710Y2538451D01*
X4618605Y2540105D01*
X4616951Y2541210D01*
X4615000Y2541598D01*
D02*
G37*
G36*
X4577000Y2532098D02*
X4575049Y2531710D01*
X4573395Y2530605D01*
X4572290Y2528951D01*
X4571902Y2527000D01*
X4572290Y2525049D01*
X4573395Y2523395D01*
X4575049Y2522290D01*
X4577000Y2521902D01*
X4578951Y2522290D01*
X4580605Y2523395D01*
X4581710Y2525049D01*
X4582098Y2527000D01*
X4581710Y2528951D01*
X4580605Y2530605D01*
X4578951Y2531710D01*
X4577000Y2532098D01*
D02*
G37*
G36*
X4638000Y2518348D02*
X4636049Y2517960D01*
X4634395Y2516855D01*
X4633290Y2515201D01*
X4632902Y2513250D01*
X4633290Y2511299D01*
X4634395Y2509645D01*
X4636049Y2508540D01*
X4638000Y2508152D01*
X4639951Y2508540D01*
X4641605Y2509645D01*
X4642710Y2511299D01*
X4643098Y2513250D01*
X4642710Y2515201D01*
X4641605Y2516855D01*
X4639951Y2517960D01*
X4638000Y2518348D01*
D02*
G37*
G36*
X4578250D02*
X4576299Y2517960D01*
X4574645Y2516855D01*
X4573540Y2515201D01*
X4573152Y2513250D01*
X4573540Y2511299D01*
X4574645Y2509645D01*
X4576299Y2508540D01*
X4578250Y2508152D01*
X4580201Y2508540D01*
X4581855Y2509645D01*
X4582960Y2511299D01*
X4583348Y2513250D01*
X4582960Y2515201D01*
X4581855Y2516855D01*
X4580201Y2517960D01*
X4578250Y2518348D01*
D02*
G37*
G36*
X4612500Y2508348D02*
X4610549Y2507960D01*
X4608895Y2506855D01*
X4607790Y2505201D01*
X4607402Y2503250D01*
X4607790Y2501299D01*
X4608895Y2499645D01*
X4610549Y2498540D01*
X4612500Y2498152D01*
X4614451Y2498540D01*
X4615674Y2499357D01*
X4616239Y2499581D01*
X4617263Y2499092D01*
X4617895Y2498145D01*
X4619549Y2497040D01*
X4621500Y2496652D01*
X4623451Y2497040D01*
X4625105Y2498145D01*
X4626210Y2499799D01*
X4626598Y2501750D01*
X4626210Y2503701D01*
X4625105Y2505355D01*
X4623451Y2506460D01*
X4621500Y2506848D01*
X4619549Y2506460D01*
X4618326Y2505643D01*
X4617761Y2505419D01*
X4616737Y2505908D01*
X4616105Y2506855D01*
X4614451Y2507960D01*
X4612500Y2508348D01*
D02*
G37*
G36*
X4571000Y2501098D02*
X4569049Y2500710D01*
X4567395Y2499605D01*
X4566290Y2497951D01*
X4565902Y2496000D01*
X4566290Y2494049D01*
X4567395Y2492395D01*
X4569049Y2491290D01*
X4571000Y2490902D01*
X4572951Y2491290D01*
X4574605Y2492395D01*
X4575710Y2494049D01*
X4576098Y2496000D01*
X4575710Y2497951D01*
X4574605Y2499605D01*
X4572951Y2500710D01*
X4571000Y2501098D01*
D02*
G37*
G36*
X4557250Y2500098D02*
X4555299Y2499710D01*
X4553645Y2498605D01*
X4552540Y2496951D01*
X4552152Y2495000D01*
X4552540Y2493049D01*
X4553645Y2491395D01*
X4555299Y2490290D01*
X4557250Y2489902D01*
X4559201Y2490290D01*
X4560855Y2491395D01*
X4561960Y2493049D01*
X4562348Y2495000D01*
X4561960Y2496951D01*
X4560855Y2498605D01*
X4559201Y2499710D01*
X4557250Y2500098D01*
D02*
G37*
G36*
X4719000Y2488098D02*
X4717049Y2487710D01*
X4715395Y2486605D01*
X4714290Y2484951D01*
X4713902Y2483000D01*
X4714290Y2481049D01*
X4715395Y2479395D01*
X4717049Y2478290D01*
X4719000Y2477902D01*
X4720951Y2478290D01*
X4722605Y2479395D01*
X4723710Y2481049D01*
X4724098Y2483000D01*
X4723710Y2484951D01*
X4722605Y2486605D01*
X4720951Y2487710D01*
X4719000Y2488098D01*
D02*
G37*
G36*
X4581000Y2484098D02*
X4579049Y2483710D01*
X4577395Y2482605D01*
X4576290Y2480951D01*
X4575902Y2479000D01*
X4576290Y2477049D01*
X4577395Y2475395D01*
X4579049Y2474290D01*
X4581000Y2473902D01*
X4582951Y2474290D01*
X4584605Y2475395D01*
X4585710Y2477049D01*
X4586098Y2479000D01*
X4585710Y2480951D01*
X4584605Y2482605D01*
X4582951Y2483710D01*
X4581000Y2484098D01*
D02*
G37*
G36*
X4663000Y2478098D02*
X4661049Y2477710D01*
X4659395Y2476605D01*
X4658290Y2474951D01*
X4657902Y2473000D01*
X4658290Y2471049D01*
X4659395Y2469395D01*
X4661049Y2468290D01*
X4663000Y2467902D01*
X4664951Y2468290D01*
X4666605Y2469395D01*
X4667710Y2471049D01*
X4668098Y2473000D01*
X4667710Y2474951D01*
X4666605Y2476605D01*
X4664951Y2477710D01*
X4663000Y2478098D01*
D02*
G37*
G36*
X4582000Y2468098D02*
X4580049Y2467710D01*
X4578395Y2466605D01*
X4577290Y2464951D01*
X4576902Y2463000D01*
X4577290Y2461049D01*
X4578395Y2459395D01*
X4580049Y2458290D01*
X4582000Y2457902D01*
X4583951Y2458290D01*
X4585605Y2459395D01*
X4586710Y2461049D01*
X4587098Y2463000D01*
X4586710Y2464951D01*
X4585605Y2466605D01*
X4583951Y2467710D01*
X4582000Y2468098D01*
D02*
G37*
G36*
X4673750Y2460598D02*
X4671799Y2460210D01*
X4670145Y2459105D01*
X4669040Y2457451D01*
X4668652Y2455500D01*
X4669040Y2453549D01*
X4670145Y2451895D01*
X4671799Y2450790D01*
X4673750Y2450402D01*
X4675701Y2450790D01*
X4677355Y2451895D01*
X4678460Y2453549D01*
X4678848Y2455500D01*
X4678460Y2457451D01*
X4677355Y2459105D01*
X4675701Y2460210D01*
X4673750Y2460598D01*
D02*
G37*
G36*
X4571500Y2413348D02*
X4569549Y2412960D01*
X4567895Y2411855D01*
X4566790Y2410201D01*
X4566402Y2408250D01*
X4566790Y2406299D01*
X4567895Y2404645D01*
X4569549Y2403540D01*
X4571500Y2403152D01*
X4573451Y2403540D01*
X4575105Y2404645D01*
X4576210Y2406299D01*
X4576598Y2408250D01*
X4576210Y2410201D01*
X4575105Y2411855D01*
X4573451Y2412960D01*
X4571500Y2413348D01*
D02*
G37*
G36*
X4665000Y2403098D02*
X4663049Y2402710D01*
X4661395Y2401605D01*
X4660290Y2399951D01*
X4659902Y2398000D01*
X4660290Y2396049D01*
X4661395Y2394395D01*
X4663049Y2393290D01*
X4665000Y2392902D01*
X4666951Y2393290D01*
X4668605Y2394395D01*
X4669710Y2396049D01*
X4670098Y2398000D01*
X4669710Y2399951D01*
X4668605Y2401605D01*
X4666951Y2402710D01*
X4665000Y2403098D01*
D02*
G37*
G36*
X4626000Y2402348D02*
X4624049Y2401960D01*
X4622395Y2400855D01*
X4621290Y2399201D01*
X4620902Y2397250D01*
X4621290Y2395299D01*
X4622395Y2393645D01*
X4624049Y2392540D01*
X4626000Y2392152D01*
X4627951Y2392540D01*
X4629605Y2393645D01*
X4630710Y2395299D01*
X4631098Y2397250D01*
X4630710Y2399201D01*
X4629605Y2400855D01*
X4627951Y2401960D01*
X4626000Y2402348D01*
D02*
G37*
G36*
X4723500Y2114598D02*
X4721549Y2114210D01*
X4719895Y2113105D01*
X4718790Y2111451D01*
X4718402Y2109500D01*
X4718790Y2107549D01*
X4719895Y2105895D01*
X4721549Y2104790D01*
X4723500Y2104402D01*
X4725451Y2104790D01*
X4727105Y2105895D01*
X4728210Y2107549D01*
X4728598Y2109500D01*
X4728210Y2111451D01*
X4727105Y2113105D01*
X4725451Y2114210D01*
X4723500Y2114598D01*
D02*
G37*
G36*
X4659000Y2103098D02*
X4657049Y2102710D01*
X4655395Y2101605D01*
X4654290Y2099951D01*
X4653902Y2098000D01*
X4654290Y2096049D01*
X4655395Y2094395D01*
X4657049Y2093290D01*
X4659000Y2092902D01*
X4660951Y2093290D01*
X4662605Y2094395D01*
X4663710Y2096049D01*
X4664098Y2098000D01*
X4663710Y2099951D01*
X4662605Y2101605D01*
X4660951Y2102710D01*
X4659000Y2103098D01*
D02*
G37*
G36*
X4711500Y2079328D02*
X4709939Y2079018D01*
X4708616Y2078134D01*
X4707732Y2076811D01*
X4707422Y2075250D01*
Y2075000D01*
X4707732Y2073439D01*
X4708616Y2072116D01*
X4709939Y2071232D01*
X4711500Y2070922D01*
X4713061Y2071232D01*
X4714384Y2072116D01*
X4715268Y2073439D01*
X4715578Y2075000D01*
Y2075250D01*
X4715268Y2076811D01*
X4714384Y2078134D01*
X4713061Y2079018D01*
X4711500Y2079328D01*
D02*
G37*
G36*
X4674750Y2074098D02*
X4672799Y2073710D01*
X4671145Y2072605D01*
X4670040Y2070951D01*
X4669652Y2069000D01*
X4670040Y2067049D01*
X4671145Y2065395D01*
X4672799Y2064290D01*
X4674750Y2063902D01*
X4676701Y2064290D01*
X4678355Y2065395D01*
X4679460Y2067049D01*
X4679848Y2069000D01*
X4679460Y2070951D01*
X4678355Y2072605D01*
X4676701Y2073710D01*
X4674750Y2074098D01*
D02*
G37*
G36*
X4545750Y2071848D02*
X4543799Y2071460D01*
X4542145Y2070355D01*
X4541040Y2068701D01*
X4540652Y2066750D01*
X4541040Y2064799D01*
X4542145Y2063145D01*
X4543799Y2062040D01*
X4545750Y2061652D01*
X4547701Y2062040D01*
X4549355Y2063145D01*
X4550460Y2064799D01*
X4550848Y2066750D01*
X4550460Y2068701D01*
X4549355Y2070355D01*
X4547701Y2071460D01*
X4545750Y2071848D01*
D02*
G37*
G36*
X4593750Y2025848D02*
X4591799Y2025460D01*
X4590145Y2024355D01*
X4589040Y2022701D01*
X4588652Y2020750D01*
X4589040Y2018799D01*
X4590145Y2017145D01*
X4591799Y2016040D01*
X4593750Y2015652D01*
X4595701Y2016040D01*
X4597355Y2017145D01*
X4598460Y2018799D01*
X4598848Y2020750D01*
X4598460Y2022701D01*
X4597355Y2024355D01*
X4595701Y2025460D01*
X4593750Y2025848D01*
D02*
G37*
G36*
X4639000Y2016598D02*
X4637049Y2016210D01*
X4635395Y2015105D01*
X4634290Y2013451D01*
X4633902Y2011500D01*
X4634290Y2009549D01*
X4635395Y2007895D01*
X4637049Y2006790D01*
X4639000Y2006402D01*
X4640951Y2006790D01*
X4642605Y2007895D01*
X4643710Y2009549D01*
X4644098Y2011500D01*
X4643710Y2013451D01*
X4642605Y2015105D01*
X4640951Y2016210D01*
X4639000Y2016598D01*
D02*
G37*
G36*
X4581250Y2014598D02*
X4579299Y2014210D01*
X4577645Y2013105D01*
X4576540Y2011451D01*
X4576152Y2009500D01*
X4576540Y2007549D01*
X4577645Y2005895D01*
X4579299Y2004790D01*
X4581250Y2004402D01*
X4583201Y2004790D01*
X4584855Y2005895D01*
X4585960Y2007549D01*
X4586348Y2009500D01*
X4585960Y2011451D01*
X4584855Y2013105D01*
X4583201Y2014210D01*
X4581250Y2014598D01*
D02*
G37*
G36*
X4566250Y1984348D02*
X4564299Y1983960D01*
X4562645Y1982855D01*
X4561540Y1981201D01*
X4561152Y1979250D01*
X4561540Y1977299D01*
X4562645Y1975645D01*
X4564299Y1974540D01*
X4566250Y1974152D01*
X4568201Y1974540D01*
X4569855Y1975645D01*
X4570960Y1977299D01*
X4571348Y1979250D01*
X4570960Y1981201D01*
X4569855Y1982855D01*
X4568201Y1983960D01*
X4566250Y1984348D01*
D02*
G37*
G36*
X4464750Y1981848D02*
X4462799Y1981460D01*
X4461145Y1980355D01*
X4460040Y1978701D01*
X4459652Y1976750D01*
X4460040Y1974799D01*
X4461145Y1973145D01*
X4462799Y1972040D01*
X4464750Y1971652D01*
X4466701Y1972040D01*
X4468355Y1973145D01*
X4469460Y1974799D01*
X4469848Y1976750D01*
X4469460Y1978701D01*
X4468355Y1980355D01*
X4466701Y1981460D01*
X4464750Y1981848D01*
D02*
G37*
G36*
X4522000Y1959348D02*
X4520049Y1958960D01*
X4518395Y1957855D01*
X4517290Y1956201D01*
X4516902Y1954250D01*
X4517290Y1952299D01*
X4518395Y1950645D01*
X4520049Y1949540D01*
X4522000Y1949152D01*
X4523951Y1949540D01*
X4525605Y1950645D01*
X4526710Y1952299D01*
X4527098Y1954250D01*
X4526710Y1956201D01*
X4525605Y1957855D01*
X4523951Y1958960D01*
X4522000Y1959348D01*
D02*
G37*
G36*
X4576000Y1941598D02*
X4574049Y1941210D01*
X4572395Y1940105D01*
X4571290Y1938451D01*
X4570902Y1936500D01*
X4571290Y1934549D01*
X4572395Y1932895D01*
X4574049Y1931790D01*
X4576000Y1931402D01*
X4577951Y1931790D01*
X4579605Y1932895D01*
X4580710Y1934549D01*
X4581098Y1936500D01*
X4580710Y1938451D01*
X4579605Y1940105D01*
X4577951Y1941210D01*
X4576000Y1941598D01*
D02*
G37*
G36*
X4415000Y1922848D02*
X4413049Y1922460D01*
X4411395Y1921355D01*
X4411135Y1920965D01*
X4409865D01*
X4409605Y1921355D01*
X4407951Y1922460D01*
X4406000Y1922848D01*
X4404049Y1922460D01*
X4402395Y1921355D01*
X4401290Y1919701D01*
X4400902Y1917750D01*
X4401290Y1915799D01*
X4402395Y1914145D01*
X4404049Y1913040D01*
X4406000Y1912652D01*
X4407951Y1913040D01*
X4409605Y1914145D01*
X4409865Y1914535D01*
X4411135D01*
X4411395Y1914145D01*
X4413049Y1913040D01*
X4415000Y1912652D01*
X4416951Y1913040D01*
X4418605Y1914145D01*
X4419710Y1915799D01*
X4420098Y1917750D01*
X4419710Y1919701D01*
X4418605Y1921355D01*
X4416951Y1922460D01*
X4415000Y1922848D01*
D02*
G37*
G36*
X4591250Y1899848D02*
X4589299Y1899460D01*
X4587645Y1898355D01*
X4586540Y1896701D01*
X4586152Y1894750D01*
X4586540Y1892799D01*
X4587645Y1891145D01*
X4589299Y1890040D01*
X4591250Y1889652D01*
X4593201Y1890040D01*
X4594855Y1891145D01*
X4595960Y1892799D01*
X4596348Y1894750D01*
X4595960Y1896701D01*
X4594855Y1898355D01*
X4593201Y1899460D01*
X4591250Y1899848D01*
D02*
G37*
G36*
X4431000Y1899348D02*
X4429049Y1898960D01*
X4427395Y1897855D01*
X4426290Y1896201D01*
X4425902Y1894250D01*
X4426290Y1892299D01*
X4427395Y1890645D01*
X4429049Y1889540D01*
X4431000Y1889152D01*
X4432951Y1889540D01*
X4434605Y1890645D01*
X4435710Y1892299D01*
X4436098Y1894250D01*
X4435710Y1896201D01*
X4434605Y1897855D01*
X4432951Y1898960D01*
X4431000Y1899348D01*
D02*
G37*
G36*
X4439250Y1843098D02*
X4437299Y1842710D01*
X4435645Y1841605D01*
X4434540Y1839951D01*
X4434152Y1838000D01*
X4434540Y1836049D01*
X4435645Y1834395D01*
X4437299Y1833290D01*
X4439250Y1832902D01*
X4441201Y1833290D01*
X4442855Y1834395D01*
X4443960Y1836049D01*
X4444348Y1838000D01*
X4443960Y1839951D01*
X4442855Y1841605D01*
X4441201Y1842710D01*
X4439250Y1843098D01*
D02*
G37*
G36*
X4622750Y2168348D02*
X4620799Y2167960D01*
X4619145Y2166855D01*
X4618040Y2165201D01*
X4617652Y2163250D01*
X4618040Y2161299D01*
X4619145Y2159645D01*
X4620799Y2158540D01*
X4622750Y2158152D01*
X4624701Y2158540D01*
X4626355Y2159645D01*
X4627460Y2161299D01*
X4627848Y2163250D01*
X4627460Y2165201D01*
X4626355Y2166855D01*
X4624701Y2167960D01*
X4622750Y2168348D01*
D02*
G37*
G36*
X4581500Y2147848D02*
X4579549Y2147460D01*
X4577895Y2146355D01*
X4576790Y2144701D01*
X4576402Y2142750D01*
X4576790Y2140799D01*
X4577895Y2139145D01*
X4579549Y2138040D01*
X4581500Y2137652D01*
X4583451Y2138040D01*
X4585105Y2139145D01*
X4586210Y2140799D01*
X4586598Y2142750D01*
X4586210Y2144701D01*
X4585105Y2146355D01*
X4583451Y2147460D01*
X4581500Y2147848D01*
D02*
G37*
G36*
X4612750Y2129348D02*
X4610799Y2128960D01*
X4609145Y2127855D01*
X4608040Y2126201D01*
X4607652Y2124250D01*
X4608040Y2122299D01*
X4609145Y2120645D01*
X4610799Y2119540D01*
X4612750Y2119152D01*
X4614701Y2119540D01*
X4616355Y2120645D01*
X4616794Y2121303D01*
X4617159Y2121375D01*
X4618263Y2121215D01*
X4619145Y2119895D01*
X4620799Y2118790D01*
X4622750Y2118402D01*
X4624701Y2118790D01*
X4626355Y2119895D01*
X4627460Y2121549D01*
X4627848Y2123500D01*
X4627460Y2125451D01*
X4626355Y2127105D01*
X4624701Y2128210D01*
X4622750Y2128598D01*
X4620799Y2128210D01*
X4619145Y2127105D01*
X4618706Y2126447D01*
X4618341Y2126375D01*
X4617237Y2126535D01*
X4616355Y2127855D01*
X4614701Y2128960D01*
X4612750Y2129348D01*
D02*
G37*
%LPD*%
D11*
X4485000Y2176000D02*
X4505000Y2156000D01*
X4501950Y2164000D02*
X4513000D01*
X4488500Y2177450D02*
X4501950Y2164000D01*
X4492000Y2185000D02*
X4505000Y2172000D01*
X4464750Y2165500D02*
Y2190500D01*
X4111000Y2248250D02*
X4131500Y2268750D01*
X4384875Y2442125D02*
X4405125D01*
X4431250Y2468250D01*
Y2488500D01*
X4293000Y2111500D02*
X4357000Y2047500D01*
X4293000Y2111500D02*
Y2164000D01*
X4176000Y2346000D02*
X4310000Y2480000D01*
X4405000Y2348500D02*
Y2368000D01*
X4421250Y2384250D01*
X4394000Y2349000D02*
Y2368750D01*
X4410250Y2385000D01*
X4482250Y2378750D02*
X4594500D01*
X4353750Y2391250D02*
X4469750D01*
X4482250Y2378750D01*
X4594500D02*
X4613000Y2397250D01*
X4429250Y2311750D02*
X4564500D01*
X4633000Y2380250D01*
X4424250Y2316750D02*
X4429250Y2311750D01*
X4577750Y2337500D02*
X4619750Y2379500D01*
X4428250Y2337500D02*
X4577750D01*
X4423250Y2332500D02*
X4428250Y2337500D01*
X4427750Y2173750D02*
X4467750Y2133750D01*
X4239250Y2164750D02*
X4248250Y2173750D01*
X4427750D01*
X4224750Y2164750D02*
X4239250D01*
X4267000Y2301000D02*
Y2408550D01*
X4320450Y2462000D02*
X4354000D01*
X4267000Y2408550D02*
X4320450Y2462000D01*
X4254000Y2303000D02*
Y2400500D01*
X4319500Y2466000D01*
X4352000D01*
X4492000Y2185000D02*
Y2232950D01*
X4390975Y2333975D02*
X4492000Y2232950D01*
X4390975Y2333975D02*
Y2334025D01*
X4352000Y2373000D02*
X4390975Y2334025D01*
X4488500Y2177450D02*
Y2231500D01*
X4363000Y2357000D02*
X4488500Y2231500D01*
X4354000Y2357000D02*
X4363000D01*
X4485000Y2176000D02*
Y2227000D01*
X4363000Y2349000D02*
X4485000Y2227000D01*
X4354000Y2462000D02*
X4420000Y2528000D01*
Y2545000D01*
X4352000Y2466000D02*
X4412000Y2526000D01*
Y2553000D01*
X4254000Y2303000D02*
X4266000Y2291000D01*
X4169000Y2317000D02*
X4203500Y2351500D01*
Y2365500D01*
X4346100Y2480000D02*
X4377000Y2510899D01*
Y2553000D01*
X4310000Y2480000D02*
X4346100D01*
X4385000Y2513950D02*
Y2545000D01*
X4347550Y2476500D02*
X4385000Y2513950D01*
X4314500Y2476500D02*
X4347550D01*
X4203500Y2365500D02*
X4314500Y2476500D01*
X4350450Y2469500D02*
X4399500Y2518550D01*
Y2540500D02*
X4404000Y2545000D01*
X4399500Y2518550D02*
Y2540500D01*
X4317450Y2469500D02*
X4350450D01*
X4210500Y2362550D02*
X4317450Y2469500D01*
X4194950Y2285000D02*
X4210500Y2300550D01*
Y2362550D01*
X4169000Y2285000D02*
X4194950D01*
X4349000Y2473000D02*
X4396000Y2520000D01*
Y2553000D01*
X4207000Y2364000D02*
X4316000Y2473000D01*
X4349000D01*
X4207000Y2302000D02*
Y2364000D01*
X4202112Y2297112D02*
X4207000Y2302000D01*
X4169067Y2297112D02*
X4202112D01*
X4194250Y2311000D02*
X4200125Y2316875D01*
X4010000Y2306000D02*
X4200374D01*
X4200399Y2305974D01*
X4024000Y2311000D02*
X4194250D01*
X4010000Y2325000D02*
X4024000Y2311000D01*
X4301500Y2144209D02*
Y2160000D01*
Y2144209D02*
X4304750Y2140959D01*
X4309750Y2123351D02*
Y2160000D01*
X4318000Y2120050D02*
Y2160000D01*
X4326250Y2116750D02*
Y2160000D01*
X4375750Y2035250D02*
Y2057350D01*
X4309750Y2123351D02*
X4375750Y2057350D01*
X4384000Y2027000D02*
Y2054050D01*
X4318000Y2120050D02*
X4384000Y2054050D01*
X4392000Y2035000D02*
Y2051000D01*
X4326250Y2116750D02*
X4392000Y2051000D01*
X4375750Y2035250D02*
X4376000Y2035000D01*
X4357000D02*
Y2047500D01*
X4174500Y2235500D02*
X4250334D01*
X4251834Y2237000D02*
X4262000D01*
X4250334Y2235500D02*
X4251834Y2237000D01*
X4183000Y2245000D02*
X4188750Y2239250D01*
X4240500D01*
X4246250Y2245000D01*
X4172500Y2261000D02*
X4225000D01*
X4073500Y2162000D02*
X4172500Y2261000D01*
X4073500Y2132000D02*
Y2162000D01*
Y2132000D02*
X4080750Y2124750D01*
X4172250Y2245000D02*
X4183000D01*
X4380750Y2181250D02*
X4388500Y2189000D01*
X4416250D01*
X4341250Y2181250D02*
X4380750D01*
X4262000Y2189000D02*
X4333500D01*
X4341250Y2181250D01*
X4246250Y2181000D02*
X4320000D01*
X4191000Y2173000D02*
X4238250D01*
X4246250Y2181000D01*
X4183000D02*
X4191000Y2173000D01*
X4246250Y2245000D02*
X4320000D01*
X4246250Y2229000D02*
X4320000D01*
X4238250Y2221000D02*
X4246250Y2229000D01*
X4183000D02*
X4191000Y2221000D01*
X4238250D01*
X4246250Y2213000D02*
X4320000D01*
X4238250Y2205000D02*
X4246250Y2213000D01*
X4183000D02*
X4191000Y2205000D01*
X4238250D01*
X4191000Y2189000D02*
X4238250D01*
X4183000Y2197000D02*
X4191000Y2189000D01*
X4238250D02*
X4246250Y2197000D01*
X4320000D01*
X4333500Y2253000D02*
X4341250Y2245250D01*
X4262000Y2253000D02*
X4333500D01*
X4341250Y2245250D02*
X4380750D01*
X4388500Y2253000D02*
X4416250D01*
X4380750Y2245250D02*
X4388500Y2253000D01*
X4333500Y2237000D02*
X4341250Y2229250D01*
X4262000Y2237000D02*
X4333500D01*
X4341250Y2229250D02*
X4380750D01*
X4388500Y2237000D02*
X4416250D01*
X4380750Y2229250D02*
X4388500Y2237000D01*
X4333500Y2221000D02*
X4341250Y2213250D01*
X4262000Y2221000D02*
X4333500D01*
X4341250Y2213250D02*
X4380750D01*
X4388500Y2221000D02*
X4416250D01*
X4380750Y2213250D02*
X4388500Y2221000D01*
X4333500Y2205000D02*
X4341250Y2197250D01*
X4262000Y2205000D02*
X4333500D01*
X4341250Y2197250D02*
X4380750D01*
X4388500Y2205000D02*
X4416250D01*
X4380750Y2197250D02*
X4388500Y2205000D01*
X4464750Y2165500D02*
X4495000Y2135250D01*
X4568500D01*
X4582448Y2121302D01*
X4597125D01*
X4092000Y2153000D02*
X4174500Y2235500D01*
X4092000Y2132750D02*
Y2153000D01*
X4082750Y2155500D02*
X4172250Y2245000D01*
X4082750Y2141250D02*
Y2155500D01*
X4304750Y2123250D02*
Y2140959D01*
Y2123250D02*
X4368000Y2060000D01*
Y2027000D02*
Y2060000D01*
X4333000Y2370500D02*
X4353750Y2391250D01*
X4333000Y2329750D02*
Y2370500D01*
X4131500Y2268750D02*
X4272000D01*
X4333000Y2329750D01*
X4182018Y2275268D02*
X4273518D01*
X4319250Y2321000D01*
Y2376500D01*
X4384875Y2442125D01*
X4176000Y2340000D02*
Y2346000D01*
D12*
X4565000Y2125500D02*
G03*
X4568182Y2117818I10864J0D01*
G01*
X4460250Y2073500D02*
Y2096500D01*
X4385250Y1998500D02*
X4460250Y2073500D01*
X4051750Y2222750D02*
X4093000Y2264000D01*
X4151750Y2114500D02*
X4169000Y2131750D01*
X4711500Y2075000D02*
Y2075250D01*
X4633250Y2170000D02*
X4642500Y2179250D01*
Y2445750D01*
X4568182Y2117818D02*
X4582000Y2104000D01*
X4137900Y1991709D02*
X4150109Y1979500D01*
X4179750D01*
X4137900Y1991709D02*
Y1992250D01*
X4179750Y1979500D02*
X4198750Y1998500D01*
X4385250D01*
X4188750Y2005000D02*
X4382500D01*
X4176000Y1992250D02*
X4188750Y2005000D01*
X4109200Y1852700D02*
Y1872700D01*
X4095800Y1839300D02*
X4109200Y1852700D01*
Y1872700D02*
X4222250Y1985750D01*
X4451000Y2073500D02*
Y2102500D01*
X4382500Y2005000D02*
X4451000Y2073500D01*
X4427000Y2134250D02*
X4441500Y2119750D01*
X4517250D01*
X4415750Y2132000D02*
X4433750Y2114000D01*
X4513250D01*
X4633250Y2076250D02*
Y2170000D01*
Y2076250D02*
X4640000Y2069500D01*
X4582000Y2104000D02*
X4633250D01*
X4517250Y2119750D02*
X4572500Y2064500D01*
X4609000D01*
X4652000Y2021500D01*
X4513250Y2114000D02*
X4569750Y2057500D01*
X4592500D01*
X4630500Y2019500D01*
X4051750Y2139000D02*
Y2222750D01*
Y2139000D02*
X4076250Y2114500D01*
X4151750D01*
D97*
X4605700Y2740750D02*
D03*
X4631100D02*
D03*
X4656500D02*
D03*
X4681900D02*
D03*
X4121200Y1864700D02*
D03*
Y1839300D02*
D03*
X4146600Y1864700D02*
D03*
Y1839300D02*
D03*
X4172000Y1864700D02*
D03*
Y1839300D02*
D03*
X4248200D02*
D03*
Y1864700D02*
D03*
X4222800Y1839300D02*
D03*
Y1864700D02*
D03*
X4197400Y1839300D02*
D03*
Y1864700D02*
D03*
X4095800D02*
D03*
Y1839300D02*
D03*
X4504650Y2687300D02*
D03*
Y2712700D02*
D03*
X4479250Y2687300D02*
D03*
Y2712700D02*
D03*
X4453850Y2687300D02*
D03*
Y2712700D02*
D03*
D98*
X4095000Y1902500D02*
D03*
Y1985500D02*
D03*
D99*
Y1964000D02*
D03*
Y1924000D02*
D03*
Y1944000D02*
D03*
D100*
X4762000Y2762000D02*
D03*
X4022000D02*
D03*
X4022000Y1822000D02*
D03*
X4762000D02*
D03*
D101*
X4452750Y1837750D02*
D03*
X4622750Y2163250D02*
D03*
X4460250Y2096500D02*
D03*
X4505000Y2156000D02*
D03*
X4519750Y2146000D02*
D03*
X4513000Y2164000D02*
D03*
X4505000Y2172000D02*
D03*
X4309750Y1905250D02*
D03*
X4431000Y1894250D02*
D03*
X4225000Y2181000D02*
D03*
X4415000Y1917750D02*
D03*
X4544500Y2164250D02*
D03*
X4035231Y2348718D02*
D03*
X4026750Y2349000D02*
D03*
X4093000Y2264000D02*
D03*
X4069000Y2275250D02*
D03*
X4158750Y2190500D02*
D03*
X4177500Y2186500D02*
D03*
X4179000Y2205250D02*
D03*
X4178250Y2220750D02*
D03*
X4111000Y2248250D02*
D03*
X4687000Y2595000D02*
D03*
X4575000Y2623000D02*
D03*
X4210000Y2284000D02*
D03*
X4561000Y2180000D02*
D03*
X4321000Y2302000D02*
D03*
X4312000Y2329000D02*
D03*
X4275000Y2353000D02*
D03*
Y2334000D02*
D03*
X4276000Y2291000D02*
D03*
X4467000Y2305000D02*
D03*
X4504000Y2284000D02*
D03*
X4467000Y2203000D02*
D03*
Y2230000D02*
D03*
X4220000Y2681000D02*
D03*
X4238000Y2652000D02*
D03*
X4205000Y2582000D02*
D03*
X4379000Y2643000D02*
D03*
X4452000Y2662000D02*
D03*
X4577000Y2527000D02*
D03*
X4571000Y2496000D02*
D03*
X4404000Y2461000D02*
D03*
X4300000Y2479000D02*
D03*
X4283000D02*
D03*
X4205000Y2468000D02*
D03*
X4151000Y2479000D02*
D03*
X4067000Y2164000D02*
D03*
X4159000Y1957000D02*
D03*
X4150000Y2012000D02*
D03*
X4141000Y2039000D02*
D03*
X4496000Y2390000D02*
D03*
X4453000Y2158000D02*
D03*
X4400000Y2159000D02*
D03*
X4355000D02*
D03*
X4293000Y2164000D02*
D03*
X4350000Y2275000D02*
D03*
X4348000Y2365000D02*
D03*
X4351000Y2317000D02*
D03*
X4282000Y2391000D02*
D03*
X4231000Y2340000D02*
D03*
X4293000Y2317000D02*
D03*
Y2273000D02*
D03*
X4217000Y2637000D02*
D03*
X4154000Y2586000D02*
D03*
X4151000Y2493000D02*
D03*
X4241000Y2504000D02*
D03*
X4206000Y2505000D02*
D03*
X4291000Y2493000D02*
D03*
X4511000Y2415000D02*
D03*
X4416000Y2341000D02*
D03*
X4505000Y2269000D02*
D03*
X4487000Y2252000D02*
D03*
X4269000Y1937000D02*
D03*
X4236000Y1949000D02*
D03*
X4178000Y2012000D02*
D03*
X4087000Y2009000D02*
D03*
X4089000Y2088000D02*
D03*
X4091000Y2210000D02*
D03*
X4041000Y2226000D02*
D03*
X4163000Y2277000D02*
D03*
X4171000Y2331000D02*
D03*
X4165000Y2365000D02*
D03*
X4163000Y2397000D02*
D03*
X4185000Y1899000D02*
D03*
X4545000Y2473000D02*
D03*
X4685000Y2425000D02*
D03*
X4666500Y2163000D02*
D03*
X4711500Y2075250D02*
D03*
X4723500Y2109500D02*
D03*
X4500750Y1944750D02*
D03*
X4406000Y1917750D02*
D03*
X4557250Y2495000D02*
D03*
X4117500Y2100750D02*
D03*
X4182500Y2167250D02*
D03*
X4177000Y2159750D02*
D03*
X4431250Y2488500D02*
D03*
X4182018Y2275268D02*
D03*
X4137900Y1992250D02*
D03*
X4176000D02*
D03*
X4405000Y2348500D02*
D03*
X4394000Y2349000D02*
D03*
X4545750Y2066750D02*
D03*
X4421250Y2384250D02*
D03*
X4410250Y2385000D02*
D03*
X4413250Y2269000D02*
D03*
X4586750Y2361250D02*
D03*
X4336500Y2159250D02*
D03*
X4427250Y2415500D02*
D03*
X4424250Y2316750D02*
D03*
X4423250Y2332500D02*
D03*
X4547000Y2348500D02*
D03*
X4537750Y2355500D02*
D03*
X4416500Y2157500D02*
D03*
X4229250Y2133000D02*
D03*
X4212500Y2106500D02*
D03*
X4206250Y2101250D02*
D03*
X4198750Y2104000D02*
D03*
X4231000Y2115000D02*
D03*
X4222250Y1985750D02*
D03*
X4156500Y2130250D02*
D03*
X4132500Y2157250D02*
D03*
X4330250Y2620750D02*
D03*
X4274250Y2513500D02*
D03*
X4464750Y2190500D02*
D03*
X4467750Y2133750D02*
D03*
X4224750Y2164750D02*
D03*
X4427000Y2134250D02*
D03*
X4415750Y2132000D02*
D03*
X4410750Y2115750D02*
D03*
X4578250Y2513250D02*
D03*
X4218750Y2421500D02*
D03*
X4343500Y2454750D02*
D03*
X4353750Y2421000D02*
D03*
X4158000Y2694500D02*
D03*
Y2683500D02*
D03*
Y2672500D02*
D03*
Y2661500D02*
D03*
Y2650500D02*
D03*
Y2639500D02*
D03*
Y2628500D02*
D03*
Y2617500D02*
D03*
Y2606500D02*
D03*
X4304500Y2368000D02*
D03*
X4478000Y2393000D02*
D03*
X4204000Y2426000D02*
D03*
X4066000Y2332000D02*
D03*
X4159000Y2317000D02*
D03*
X4352000Y2373000D02*
D03*
X4354000Y2357000D02*
D03*
X4363000Y2349000D02*
D03*
X4234000Y2420000D02*
D03*
X4501000Y2441000D02*
D03*
X4266000Y2291000D02*
D03*
X4267000Y2301000D02*
D03*
X4261000Y2307000D02*
D03*
X4200000Y2330000D02*
D03*
X4226000Y2410000D02*
D03*
X4328000Y2261000D02*
D03*
X4169000Y2317000D02*
D03*
X4169067Y2297112D02*
D03*
X4169000Y2285000D02*
D03*
X4200000Y2317000D02*
D03*
Y2305974D02*
D03*
X4301500Y2160000D02*
D03*
X4309750D02*
D03*
X4318000D02*
D03*
X4326250D02*
D03*
X4223500Y2357000D02*
D03*
X4230750Y2373000D02*
D03*
Y2349000D02*
D03*
X4223500Y2333000D02*
D03*
X4230750Y2325000D02*
D03*
X4268903Y2124250D02*
D03*
X4299000D02*
D03*
X4093750Y2363000D02*
D03*
X4094500Y2384000D02*
D03*
X4066750Y2349750D02*
D03*
X4095750Y2317500D02*
D03*
X4094750Y2276250D02*
D03*
X4132000Y2166000D02*
D03*
X4080750Y2124750D02*
D03*
X4181000Y2093000D02*
D03*
X4169000Y2131750D02*
D03*
X4673750Y2455500D02*
D03*
X4269000Y2093500D02*
D03*
X4297736Y2093764D02*
D03*
X4361000Y2092250D02*
D03*
X4404250Y2271750D02*
D03*
X4411000Y2261250D02*
D03*
X4398500Y2278750D02*
D03*
X4392750Y2271750D02*
D03*
X4387000Y2278750D02*
D03*
X4381250Y2271750D02*
D03*
X4360000Y2325000D02*
D03*
Y2309000D02*
D03*
X4351000Y2333000D02*
D03*
Y2301000D02*
D03*
Y2285000D02*
D03*
X4500500Y2226000D02*
D03*
Y2213000D02*
D03*
X4116750Y2238500D02*
D03*
X4162000Y2325500D02*
D03*
X4118500Y2406000D02*
D03*
X4113500Y2263000D02*
D03*
X4176750Y2130250D02*
D03*
X4505000Y2187000D02*
D03*
X4635000Y2364750D02*
D03*
Y2353250D02*
D03*
X4648750Y2526750D02*
D03*
X4710000Y2502000D02*
D03*
Y2450000D02*
D03*
X4541000Y2003250D02*
D03*
Y1940000D02*
D03*
X4462500Y1963250D02*
D03*
X4367250Y1874750D02*
D03*
X4407500Y1826250D02*
D03*
X4468500Y2292500D02*
D03*
X4427250Y2405500D02*
D03*
X4406500Y2426500D02*
D03*
X4316500Y2425500D02*
D03*
X4279500Y2458000D02*
D03*
X4205000Y2457000D02*
D03*
X4251750Y2460500D02*
D03*
X4245500Y2469000D02*
D03*
X4619750Y2379500D02*
D03*
X4626000Y2397250D02*
D03*
X4613000D02*
D03*
X4600000D02*
D03*
X4571500Y2408250D02*
D03*
X4633000Y2380250D02*
D03*
X4593750Y2020750D02*
D03*
X4581250Y2009500D02*
D03*
X4630500Y2019500D02*
D03*
X4639000Y2011500D02*
D03*
X4652000Y2021500D02*
D03*
X4674000Y2573250D02*
D03*
X4662000D02*
D03*
X4707000Y2589000D02*
D03*
X4705000Y2636000D02*
D03*
X4698250Y2677750D02*
D03*
X4629000Y2704250D02*
D03*
X4669250Y2720000D02*
D03*
X4621000Y2605000D02*
D03*
X4612750Y2638750D02*
D03*
X4661500Y2646000D02*
D03*
X4581500Y2142750D02*
D03*
X4597125Y2121302D02*
D03*
X4565000Y2125500D02*
D03*
X4557250Y2090000D02*
D03*
X4711500Y2125750D02*
D03*
X4672250Y2035500D02*
D03*
X4566250Y1979250D02*
D03*
X4642000Y2135250D02*
D03*
X4638000Y2513250D02*
D03*
X4591250Y1894750D02*
D03*
X4642500Y2445750D02*
D03*
X4576000Y1936500D02*
D03*
X4615000Y2536500D02*
D03*
X4612750Y2124250D02*
D03*
X4622750Y2123500D02*
D03*
X4621500Y2501750D02*
D03*
X4612500Y2503250D02*
D03*
X4439250Y1838000D02*
D03*
X4640000Y2069500D02*
D03*
X4674750Y2069000D02*
D03*
X4464750Y1976750D02*
D03*
X4635000Y2244750D02*
D03*
Y2233250D02*
D03*
X4623500Y2244750D02*
D03*
Y2233250D02*
D03*
X4635000Y2209250D02*
D03*
Y2220750D02*
D03*
X4416250Y2253000D02*
D03*
Y2237000D02*
D03*
Y2221000D02*
D03*
Y2205000D02*
D03*
X4399750Y2245000D02*
D03*
Y2229000D02*
D03*
Y2213000D02*
D03*
Y2197000D02*
D03*
Y2181000D02*
D03*
X4416250Y2189000D02*
D03*
X4175000Y2253000D02*
D03*
X4183000Y2245000D02*
D03*
Y2229000D02*
D03*
Y2213000D02*
D03*
Y2197000D02*
D03*
X4281750Y2163250D02*
D03*
X4268250D02*
D03*
X4225000Y2197000D02*
D03*
Y2213000D02*
D03*
Y2229000D02*
D03*
Y2245000D02*
D03*
Y2261000D02*
D03*
X4262000Y2253000D02*
D03*
Y2237000D02*
D03*
Y2221000D02*
D03*
Y2205000D02*
D03*
Y2189000D02*
D03*
X4357000Y2253000D02*
D03*
Y2221000D02*
D03*
Y2205000D02*
D03*
Y2189000D02*
D03*
X4320000Y2245000D02*
D03*
Y2229000D02*
D03*
Y2213000D02*
D03*
Y2197000D02*
D03*
Y2181000D02*
D03*
X4183000D02*
D03*
X4068000D02*
D03*
X4010000Y2290000D02*
D03*
Y2306000D02*
D03*
X4010000Y2325000D02*
D03*
Y2341000D02*
D03*
X4002000Y2333000D02*
D03*
Y2317000D02*
D03*
X4002000Y2298000D02*
D03*
Y2282000D02*
D03*
X4171000Y2553000D02*
D03*
X4187000D02*
D03*
X4226000D02*
D03*
X4361000D02*
D03*
X4377000D02*
D03*
X4396000D02*
D03*
X4412000D02*
D03*
X4179000Y2545000D02*
D03*
X4195000D02*
D03*
X4234000D02*
D03*
X4250000D02*
D03*
X4369000D02*
D03*
X4385000D02*
D03*
X4404000D02*
D03*
X4420000D02*
D03*
X4505000Y2345000D02*
D03*
Y2321000D02*
D03*
X4513000Y2329000D02*
D03*
X4228000Y2027000D02*
D03*
X4244000D02*
D03*
X4263000Y2027000D02*
D03*
X4279000D02*
D03*
X4298000Y2027000D02*
D03*
X4314000D02*
D03*
X4333000D02*
D03*
X4349000D02*
D03*
X4368000D02*
D03*
X4236000Y2035000D02*
D03*
X4252000D02*
D03*
X4271000Y2035000D02*
D03*
X4287000D02*
D03*
X4306000Y2035000D02*
D03*
X4322000D02*
D03*
X4341000D02*
D03*
X4357000D02*
D03*
X4376000D02*
D03*
X4384000Y2027000D02*
D03*
X4392000Y2035000D02*
D03*
X4403000Y2501000D02*
D03*
X4693500Y2191000D02*
D03*
X4674250Y2665250D02*
D03*
X4655200D02*
D03*
X4522000Y1954250D02*
D03*
X4581000Y2479000D02*
D03*
X4582000Y2463000D02*
D03*
Y2104000D02*
D03*
X4663000Y2473000D02*
D03*
X4659000Y2098000D02*
D03*
X4719000Y2483000D02*
D03*
X4665000Y2398000D02*
D03*
X4451000Y2102500D02*
D03*
X4082750Y2141250D02*
D03*
X4092000Y2132750D02*
D03*
X4268250Y2532000D02*
D03*
X4383750Y2408750D02*
D03*
X4376500Y2425250D02*
D03*
X4376000Y2470750D02*
D03*
X4376500Y2457750D02*
D03*
X4395000Y2408500D02*
D03*
X4418750Y2373000D02*
D03*
X4169000Y2347000D02*
D03*
X4176000Y2340000D02*
D03*
M02*
