G04*
G04 #@! TF.GenerationSoftware,Altium Limited,Altium Designer,22.4.2 (48)*
G04*
G04 Layer_Color=16711935*
%FSLAX44Y44*%
%MOMM*%
G71*
G04*
G04 #@! TF.SameCoordinates,CD49FAE8-A699-4325-8C5D-96517E71F74C*
G04*
G04*
G04 #@! TF.FilePolarity,Negative*
G04*
G01*
G75*
%ADD19R,1.0532X1.1532*%
%ADD44R,1.1532X1.0532*%
%ADD49R,0.8032X1.7532*%
%ADD58C,1.9032*%
%ADD59O,2.2032X1.4032*%
%ADD60C,1.4032*%
%ADD61C,3.6032*%
%ADD106R,1.1032X1.0032*%
%ADD107O,1.4032X0.7532*%
D19*
X4268250Y2381250D02*
D03*
X4281750D02*
D03*
X4268250Y2367250D02*
D03*
X4281750D02*
D03*
X4145250Y1944000D02*
D03*
X4158750D02*
D03*
X4669250Y2706000D02*
D03*
X4682750D02*
D03*
X4642250D02*
D03*
X4655750D02*
D03*
X4619250Y2623000D02*
D03*
X4632750D02*
D03*
X4618250Y2679000D02*
D03*
X4631750D02*
D03*
X4295250Y2341000D02*
D03*
X4308750D02*
D03*
X4295250Y2293000D02*
D03*
X4308750D02*
D03*
X4089250Y2293250D02*
D03*
X4102750D02*
D03*
X4486750Y2276250D02*
D03*
X4473250D02*
D03*
X4486750Y2172250D02*
D03*
X4473250D02*
D03*
X4486750Y2380250D02*
D03*
X4473250D02*
D03*
X4486750Y2366250D02*
D03*
X4473250D02*
D03*
X4089250Y2341250D02*
D03*
X4102750D02*
D03*
X4486750Y2316250D02*
D03*
X4473250D02*
D03*
X4281750Y2173250D02*
D03*
X4268250D02*
D03*
X4281750Y2277250D02*
D03*
X4268250D02*
D03*
X4281750Y2317250D02*
D03*
X4268250D02*
D03*
D44*
X4662000Y2598750D02*
D03*
Y2585250D02*
D03*
X4674000Y2598750D02*
D03*
Y2585250D02*
D03*
D49*
X4687050Y2624000D02*
D03*
X4674350D02*
D03*
X4661650D02*
D03*
X4648950D02*
D03*
X4687050Y2678000D02*
D03*
X4674350D02*
D03*
X4661650D02*
D03*
X4648950D02*
D03*
D58*
X4605700Y2740750D02*
D03*
X4631100D02*
D03*
X4656500D02*
D03*
X4681900D02*
D03*
X4121200Y1864700D02*
D03*
Y1839300D02*
D03*
X4146600Y1864700D02*
D03*
Y1839300D02*
D03*
X4172000Y1864700D02*
D03*
Y1839300D02*
D03*
X4248200D02*
D03*
Y1864700D02*
D03*
X4222800Y1839300D02*
D03*
Y1864700D02*
D03*
X4197400Y1839300D02*
D03*
Y1864700D02*
D03*
X4095800D02*
D03*
Y1839300D02*
D03*
X4504650Y2687300D02*
D03*
Y2712700D02*
D03*
X4479250Y2687300D02*
D03*
Y2712700D02*
D03*
X4453850Y2687300D02*
D03*
Y2712700D02*
D03*
D59*
X4095000Y1902500D02*
D03*
Y1985500D02*
D03*
D60*
Y1964000D02*
D03*
Y1924000D02*
D03*
Y1944000D02*
D03*
D61*
X4762000Y2762000D02*
D03*
X4022000D02*
D03*
X4022000Y1822000D02*
D03*
X4762000D02*
D03*
D106*
X4162000Y1899000D02*
D03*
X4142000Y1908500D02*
D03*
Y1889500D02*
D03*
D107*
X4453500Y2381000D02*
D03*
Y2373000D02*
D03*
Y2365000D02*
D03*
Y2357000D02*
D03*
Y2349000D02*
D03*
Y2341000D02*
D03*
Y2333000D02*
D03*
Y2325000D02*
D03*
Y2317000D02*
D03*
Y2309000D02*
D03*
Y2301000D02*
D03*
Y2293000D02*
D03*
Y2285000D02*
D03*
Y2277000D02*
D03*
Y2269000D02*
D03*
Y2261000D02*
D03*
Y2253000D02*
D03*
Y2245000D02*
D03*
Y2237000D02*
D03*
Y2229000D02*
D03*
Y2221000D02*
D03*
Y2213000D02*
D03*
Y2205000D02*
D03*
Y2197000D02*
D03*
Y2189000D02*
D03*
Y2181000D02*
D03*
Y2173000D02*
D03*
X4338500Y2381000D02*
D03*
Y2373000D02*
D03*
Y2365000D02*
D03*
Y2357000D02*
D03*
Y2349000D02*
D03*
Y2341000D02*
D03*
Y2333000D02*
D03*
Y2325000D02*
D03*
Y2317000D02*
D03*
Y2309000D02*
D03*
Y2301000D02*
D03*
Y2293000D02*
D03*
Y2285000D02*
D03*
Y2277000D02*
D03*
Y2269000D02*
D03*
Y2261000D02*
D03*
Y2253000D02*
D03*
Y2245000D02*
D03*
Y2237000D02*
D03*
Y2229000D02*
D03*
Y2221000D02*
D03*
Y2213000D02*
D03*
Y2205000D02*
D03*
Y2197000D02*
D03*
Y2189000D02*
D03*
Y2181000D02*
D03*
Y2173000D02*
D03*
X4243500Y2381000D02*
D03*
Y2373000D02*
D03*
Y2365000D02*
D03*
Y2357000D02*
D03*
Y2349000D02*
D03*
Y2341000D02*
D03*
Y2333000D02*
D03*
Y2325000D02*
D03*
Y2317000D02*
D03*
Y2309000D02*
D03*
Y2301000D02*
D03*
Y2293000D02*
D03*
Y2285000D02*
D03*
Y2277000D02*
D03*
Y2269000D02*
D03*
Y2261000D02*
D03*
Y2253000D02*
D03*
Y2245000D02*
D03*
Y2237000D02*
D03*
Y2229000D02*
D03*
Y2221000D02*
D03*
Y2213000D02*
D03*
Y2205000D02*
D03*
Y2197000D02*
D03*
Y2189000D02*
D03*
Y2181000D02*
D03*
Y2173000D02*
D03*
X4128500Y2381000D02*
D03*
Y2373000D02*
D03*
Y2365000D02*
D03*
Y2357000D02*
D03*
Y2349000D02*
D03*
Y2341000D02*
D03*
Y2333000D02*
D03*
Y2325000D02*
D03*
Y2317000D02*
D03*
Y2309000D02*
D03*
Y2301000D02*
D03*
Y2293000D02*
D03*
Y2285000D02*
D03*
Y2277000D02*
D03*
Y2269000D02*
D03*
Y2261000D02*
D03*
Y2253000D02*
D03*
Y2245000D02*
D03*
Y2237000D02*
D03*
Y2229000D02*
D03*
Y2221000D02*
D03*
Y2213000D02*
D03*
Y2205000D02*
D03*
Y2197000D02*
D03*
Y2189000D02*
D03*
Y2181000D02*
D03*
Y2173000D02*
D03*
M02*
